<svg xmlns="http://www.w3.org/2000/svg" xmlns:xlink="http://www.w3.org/1999/xlink" width="425" height="601" viewBox="0 0 425 601">
  <defs>
    <polygon id="art-2-a" points="4.338 6.246 71.047 6.246 71.047 288 4.338 288"/>
    <path id="art-2-c" d="M25.623,2.72381818 C16.3215,10.6306364 13,38.198 13.2405,64.823 C13.2405,64.823 13.481,70.858 2.067,65.7330909 C2.067,65.7330909 8.2225,18.5051818 25.623,2.72381818"/>
    <linearGradient id="art-2-d" x1="50.724%" x2="49.32%" y1="99.676%" y2=".779%">
      <stop offset="0%" stop-color="#165795"/>
      <stop offset="100%" stop-color="#2272AC"/>
    </linearGradient>
    <path id="art-2-f" d="M14.7392,78.3583846 L4.4544,72.4973077 C6.6048,56.7528462 10.0096,20.003 15.1424,14.1483077 C20.32,8.23615385 24.7168,5.50353846 29.856,2.72623077 C23.2576,10.8538462 21.856,26.5216923 16.1792,40.8040769 C12.224,50.7576923 13.568,68.5069231 14.7392,78.3583846"/>
    <linearGradient id="art-2-g" x1="56.285%" x2="43.817%" y1="49.536%" y2="50.978%">
      <stop offset="0%" stop-color="#2272AC"/>
      <stop offset="100%" stop-color="#165795"/>
    </linearGradient>
    <path id="art-2-i" d="M62.647125,33.8271818 C52.2495,28.6486364 47.72325,23.547 28.305,23.6815909 C8.893125,23.8225909 2.224875,19.0734545 2.224875,19.0734545 L2.224875,19.0670455 C3.040875,13.4206364 3.63375,8.55613636 3.876,5.17213636 L53.734875,14.7152727 L93.87825,25.3095 C94.503,40.467 96.804375,84.1898182 97.021125,92.2780909 C97.34625,104.513045 100.5465,128.854773 100.5465,128.854773 C94.962,132.418227 88.3065,134.289682 81.10275,134.975455 C81.1155,134.667818 81.835875,50.7792273 81.74025,48.3053182 C81.644625,45.8185909 73.038375,39.0185455 62.647125,33.8271818"/>
    <linearGradient id="art-2-j" x1="51.401%" x2="48.404%" y1="100.825%" y2="-1.35%">
      <stop offset="0%" stop-color="#165795"/>
      <stop offset="100%" stop-color="#2272AC"/>
    </linearGradient>
    <polygon id="art-2-l" points="3.262 1.999 349.181 1.999 349.181 479 3.262 479"/>
    <path id="art-2-n" d="M28.8384,73.1243333 C28.736,72.6815833 28.6272,72.2324167 28.5248,71.7768333 L28.0512,72.2580833 C22.08,50.95475 9.5232,7.11608333 6.08,4.40183333 C5.9776,4.32483333 5.8688,4.24141667 5.7472,4.15158333 C5.8688,4.235 5.9776,4.31841667 6.08,4.40183333 C9.504,7.09041667 23.8528,50.6916667 28.544,71.8538333 C28.64,72.28375 28.7424,72.70725 28.8384,73.1243333 L28.8384,73.1243333 Z"/>
  </defs>
  <g fill="none" fill-rule="evenodd">
    <path fill="#16191A" d="M315.949484,557.205901 C314.597795,564.133313 288.512119,573.732542 284.034249,578.264975 C279.549973,582.797408 282.99646,588.900741 289.338507,589.975906 C295.680555,591.044633 314.745136,592.415952 321.61889,587.477918 C328.499051,582.533445 330.017299,580.711459 335.417649,581.76731 C340.824405,582.816723 347.313793,577.402268 344.181206,557.856151 C341.048619,538.316472 315.949484,557.205901 315.949484,557.205901"/>
    <path fill="#165794" d="M308.133752,318 C307.363946,351.828616 310.13143,382.712558 310.97758,421.632073 C311.82373,460.557976 309.717898,550.750584 310.004189,557.323403 C310.284119,563.902609 340.650097,564.598855 344.149214,563.666268 C347.635608,562.740069 350.52397,457.4089 349.919577,426.576059 C349.321546,395.743218 349.346995,318.945362 349.346995,318.945362 L308.133752,318"/>
    <path fill="#1B65A2" d="M338.36114,564 C328.591341,564 310.217529,562.447808 309.995776,557.324938 C309.976769,556.909742 309.970433,556.156003 309.970433,555.102046 C309.970433,542.32042 311.167899,485.323691 311.161563,445.100852 C311.161563,436.247611 311.104541,428.211986 310.965153,421.632738 C310.223865,387.427036 308.006336,359.4301 308,330.18119 C308,326.150602 308.044351,322.094464 308.133052,318 L331.138332,318.530172 C331.980993,358.037599 327.761352,439.92688 327.780359,459.587973 C327.786695,476.559877 326.855333,540.129466 324.941922,563.207935 C329.700106,563.770046 334.692714,564 338.411827,564 C341.167899,564 343.233369,563.872248 344,563.667844 C343.227033,563.878635 341.142555,564 338.36114,564"/>
    <g transform="translate(320 312)">
      <mask id="art-2-b" fill="#fff">
        <use xlink:href="#art-2-a"/>
      </mask>
      <path fill="#165794" d="M28.8814167,6.6624 L10.6131667,6.2464 C11.4665833,45.8304 7.19308333,127.8784 7.21233333,147.5776 C7.21875,164.5824 6.2755,228.2752 4.33766667,251.3984 C12.72425,252.384 21.81025,252.3456 23.639,251.8592 C27.1553333,250.9312 30.0685,145.3952 29.4653333,114.5024 C28.85575,83.6096 28.8814167,6.6624 28.8814167,6.6624" mask="url(#art-2-b)"/>
      <path fill="#272A2C" d="M41.8559167,252.768 C31.62775,264.512 1.08441667,275.3408 7.66791667,283.7824 C9.317,285.8944 19.4681667,290.5088 35.9076667,286.272 C52.3471667,282.0352 50.1205833,274.6112 58.1029167,274.336 C66.0788333,274.0544 75.6781667,272.448 68.54925,253.3824 L41.8559167,252.768" mask="url(#art-2-b)"/>
    </g>
    <path fill="#165794" d="M341,315 C343.031795,358.438817 341.974755,423.986143 342.94951,437.891668 C343.930595,451.790814 351.583055,493.150181 353.273052,513.874516 C354.95672,534.59885 353.735112,569.381798 355.893498,569.432827 C358.051884,569.483856 368.76153,573.260036 378.692639,572.985752 C388.636406,572.711469 391.73157,569.254224 391.73157,569.254224 C391.73157,569.254224 394.314038,476.674048 383.458811,441.380806 C376.610208,419.11921 391.845502,319.707467 391.845502,319.707467 L341,315"/>
    <path fill="#1B65A2" d="M377.64557,573 C368.018987,573 357.974684,569.485326 355.892405,569.434297 C353.734177,569.383267 354.955696,534.600119 353.272152,513.875664 C352.582278,505.423863 350.898734,493.540312 349.088608,481.490914 C346.449367,463.987712 343.531646,446.120924 342.949367,437.892378 C342,424.356738 342.974684,361.909091 341.151899,318.53381 C341.107595,317.340989 341.050633,316.160927 341,315 L391.841772,319.707494 C391.841772,319.707494 381.689873,385.969615 381.683544,422.41123 C381.683544,430.607882 382.202532,437.299157 383.455696,441.381536 C390.816456,465.301728 392,515.534131 392,545.431182 C392,559.642965 391.727848,569.255693 391.727848,569.255693 C391.727848,569.255693 388.632911,572.712958 378.689873,572.987243 C378.341772,573 377.993671,573 377.64557,573"/>
    <path fill="#165794" d="M391.843869,319.943699 L370.569073,318 C367.703436,358.671108 362.989207,429.84236 365.931602,441.109442 C368.618137,451.388742 376.42188,542.697992 372.961368,572.745669 C374.816356,572.924107 376.690534,573.038817 378.551919,572.987834 C388.600838,572.713805 391.728732,569.259756 391.728732,569.259756 C391.728732,569.259756 394.338508,476.765168 383.368492,441.504554 C376.447467,419.263538 391.843869,319.943699 391.843869,319.943699"/>
    <path fill="#251714" d="M363.94087,87.7100109 C355.165052,90.9836 320.651102,81.5237507 317.698071,76.6102012 C317.698071,76.6102012 314.508028,81.1058458 315.353582,85.4368611 C315.353582,85.4368611 310.478839,82.2709142 312.483825,73.824168 C314.495217,65.3774218 322.957156,49.99092 334.730846,47.9267227 C344.730155,46.17912 361.967913,45.647241 374.798544,58.1147397 C387.62277,70.5885703 386.834868,97.119205 373.728791,107.756786 C360.616308,118.4007 363.94087,87.7100109 363.94087,87.7100109"/>
    <path fill="#F0BEA3" d="M369.762074,93 C369.857648,95.4924432 373.992814,118.077813 380.963342,125.593488 C387.93387,133.115554 386.952644,131.281371 386.952644,131.281371 L341.879962,167 L339,148.881855 L344.868241,131.990759 C344.868241,131.990759 348.672085,125.919423 348.863233,122.954055 C349.060753,119.982296 369.762074,93 369.762074,93"/>
    <path fill="#251714" d="M375.113604,62.3587165 C383.998333,66.2790743 392.646137,51.3491496 382.258797,41.3541161 C370.836464,30.3570742 358.123506,38.1727395 360.230902,48.0049466 C362.637573,59.2086527 375.113604,62.3587165 375.113604,62.3587165"/>
    <path fill="#2172AC" d="M294.824921,317.389616 C296.777014,307.115674 306.321288,225.147065 305.240324,217.535558 C304.15936,209.93042 293,199.962212 293,199.962212 C295.136493,184.388876 298.531991,147.363193 303.65703,141.490549 C309.926619,134.299426 315.026224,131.828075 321.740916,128.235698 C326.630687,125.617849 334.966825,123.796183 339.15079,123 C340.931201,124.936317 341.166469,127.03187 345.534834,128.133787 C346.488626,128.375826 347.620458,128.280284 348.866746,127.917225 C347.753989,133.707066 344.428436,162.267734 344.428436,162.267734 C352.885387,152.516088 382.681833,126.235687 382.681833,126.235687 C382.681833,126.235687 410.240047,142.216667 409.99842,146.152995 C409.763152,150.082953 395.589811,209.503666 394.775908,222.650236 C393.962006,235.796806 397.777172,296.109243 398.101461,308.255807 C398.42575,320.415111 401.617773,344.606328 401.617773,344.606328 C367.402093,366.345303 293.578633,325.676287 293.578633,325.676287 C293.578633,325.676287 292.872828,327.663559 294.824921,317.389616"/>
    <g transform="translate(371 165)">
      <mask id="art-2-e" fill="#fff">
        <use xlink:href="#art-2-c"/>
      </mask>
      <path fill="url(#art-2-d)" d="M25.623,2.72381818 C16.3215,10.6306364 13,38.198 13.2405,64.823 C13.2405,64.823 13.481,70.858 2.067,65.7330909 C2.067,65.7330909 8.2225,18.5051818 25.623,2.72381818" mask="url(#art-2-e)"/>
    </g>
    <polyline fill="#8B8D8E" points="323.378 217.367 328.622 214.745 325.214 212.633 323.378 217.367"/>
    <path fill="#EEA88E" d="M374,108.223542 L374,108.230081 C374,108.230081 372.953762,123.610566 348,131 L348.337916,129.018585 C349.494626,126.965238 349.332167,125.716228 349.462134,123.649802 C349.663584,120.609017 370.776806,93 370.776806,93 C370.828793,94.3013251 371.95951,100.984512 374,108.223542"/>
    <path fill="#F0BEA3" d="M364.185258,86.7249996 C364.914007,81.198043 366.623021,76.7223046 370.776248,78.4506878 C374.929475,80.1790709 374.007252,84.609665 373.678347,88.2470086 C373.342994,91.8714539 375.155194,97.3016726 369.570265,97.6757256 C369.570265,97.6757256 373.194664,104.137815 367.371118,112.07032 C361.547572,119.996375 350.590535,129.231616 345.19263,127.864388 C339.794725,126.503609 340.162325,124.02067 336.776542,121.795699 C333.390759,119.570729 326.457967,115.230423 325.148797,109.780857 C323.839628,104.331291 324.542581,102.254651 321.646931,100.642353 C318.75773,99.0236065 318.39013,97.6305813 317.461459,94.0448312 C316.539236,90.4655303 314.185311,82.5394747 315.288109,78.5667732 C316.390906,74.5876224 325.767912,69.1960989 334.9063,73.7169817 C344.044689,78.2314153 364.185258,86.7249996 364.185258,86.7249996"/>
    <path fill="#251714" d="M317.006778 77C317.006778 77 314.432778 80.9294872 314.702778 85 314.504778 83.1474359 312.698778 80.4102564 313.034778 79.1025641 313.298778 78.0961538 315.866778 78.0128205 317.006778 77M318 76.4620411C318.507827 71.8155447 331.040726 69.1122487 337.896385 72.5558115 347.121901 77.1890889 365 88.0485394 365 88.0485394 356.080482 91.4656641 323.110819 85.2328815 318 76.4620411"/>
    <polyline fill="#251714" points="315.012 84.096 314.988 83.904 315.012 84.096"/>
    <g transform="translate(288 128)">
      <mask id="art-2-h" fill="#fff">
        <use xlink:href="#art-2-f"/>
      </mask>
      <path fill="url(#art-2-g)" d="M14.7392,78.3583846 L4.4544,72.4973077 C6.6048,56.7528462 10.0096,20.003 15.1424,14.1483077 C20.32,8.23615385 24.7168,5.50353846 29.856,2.72623077 C23.2576,10.8538462 21.856,26.5216923 16.1792,40.8040769 C12.224,50.7576923 13.568,68.5069231 14.7392,78.3583846" mask="url(#art-2-h)"/>
    </g>
    <g transform="translate(300 216)">
      <mask id="art-2-k" fill="#fff">
        <use xlink:href="#art-2-i"/>
      </mask>
      <path fill="url(#art-2-j)" d="M62.647125,33.8271818 C52.2495,28.6486364 47.72325,23.547 28.305,23.6815909 C8.893125,23.8225909 2.224875,19.0734545 2.224875,19.0734545 L2.224875,19.0670455 C3.040875,13.4206364 3.63375,8.55613636 3.876,5.17213636 L53.734875,14.7152727 L93.87825,25.3095 C94.503,40.467 96.804375,84.1898182 97.021125,92.2780909 C97.34625,104.513045 100.5465,128.854773 100.5465,128.854773 C94.962,132.418227 88.3065,134.289682 81.10275,134.975455 C81.1155,134.667818 81.835875,50.7792273 81.74025,48.3053182 C81.644625,45.8185909 73.038375,39.0185455 62.647125,33.8271818" mask="url(#art-2-k)"/>
    </g>
    <path fill="#8B8D8E" d="M337.772396,201.139061 C338.866308,199.611808 350.479082,185.654765 349.984659,183.896499 C349.490235,182.138232 346.536054,182.407748 341.517654,189.877172 C336.499255,197.340179 332,203 332,203 L337.772396,201.139061"/>
    <path fill="#F0BEA3" d="M415.828138,240.126554 C416.639258,245.691094 414.843206,260.478873 404.710641,259.988072 C394.584514,259.490896 380.177474,256.221012 371.242277,248.317199 C362.313518,240.41976 357.279423,235.084687 350.230402,232.96213 C343.928127,231.062666 345.724179,227.072515 344.378749,226.677324 C343.020445,226.294882 337.368353,226.218393 335.192491,223.796257 C335.192491,223.796257 332.366445,223.758013 331.246327,221.743815 C330.126209,219.729618 331.928698,216.364123 338.095786,214.458284 C338.095786,214.458284 334.336309,213.381071 333.299877,213.565918 C332.269883,213.750766 330.827892,214.98733 329.224964,215.784085 C329.224964,215.784085 329.089777,219.767862 327.602724,219.818854 C326.11567,219.876221 324.512742,216.84855 324.956927,213.145231 C324.956927,213.145231 321.751071,214.745116 321.100887,213.298208 C320.450704,211.851301 323.128688,208.071493 323.836808,207.300234 C324.551367,206.541723 331.471638,201.06642 333.847062,201.00268 C336.228923,200.93894 346.232738,202.022527 347.610355,203.150732 C348.994409,204.278938 354.595001,214.337177 356.320241,216.568092 C358.045481,218.792633 379.578791,229.545644 384.181576,229.469155 C388.790798,229.386292 415.828138,240.126554 415.828138,240.126554"/>
    <path fill="#2172AC" d="M408.179912,143 C418.13928,152.685899 426.536647,174.826009 424.761646,200.488845 C422.986646,226.151681 421.13419,240.006033 421.185827,241.188799 C421.237463,242.365172 401.041182,244.321532 384.175448,230.013254 C384.175448,230.013254 383.51063,213.205183 384.769267,199.491485 C385.421176,192.337346 388.015904,175.919269 396.471362,168.503003 L408.179912,143"/>
    <path fill="#C9CBC7" d="M353.489036,236.059117 L279.002264,192.398921 C277.316323,191.413025 275.394987,190.92987 273.448202,191.008219 L240.658245,192.320572 C239.971144,192.340159 239.748473,193.273823 240.346505,193.626395 L310.093557,234.439897 C311.092397,235.027517 312.205754,235.360502 313.357284,235.438851 L352.922815,237.998265 C353.991637,238.057027 354.417894,236.607563 353.489036,236.059117"/>
    <path fill="#F0BEA3" d="M275.47017,225.2029 C274.339747,221.745358 274.682104,220.051352 282.995558,217.693649 C294.506494,214.432055 296.799638,216.340972 295.540024,219.539357 C295.540024,219.539357 304.221672,217.782142 304.092481,222.074046 C304.092481,222.074046 309.085721,224.014568 305.985132,227.838724 C305.985132,227.838724 306.514816,229.254609 304.576948,231.138243 C302.63908,233.021877 291.444663,239.197415 289.145059,238.995145 C286.851915,238.786555 285.960496,236.289792 284.965724,236.422531 C283.977411,236.561592 280.986635,236.384606 280.444032,235.133064 C279.894969,233.894164 279.933726,232.332897 278.725789,231.991567 C277.517851,231.650238 275.508928,231.043429 275.47017,225.2029"/>
    <polyline fill="#626663" points="268.398 191.624 269 190.994 268.975 190.22 268.323 189.644 248.608 190.376 248 191 248.038 191.78 248.683 192.356 268.398 191.624"/>
    <polyline fill="#454746" points="264.683 189.363 265 189.021 264.981 188.583 264.638 188.265 254.317 188.637 254 188.985 254.019 189.411 254.356 189.735 264.683 189.363"/>
    <path fill="#442922" d="M320,72 C320,72 320.344715,72.7071555 321.099187,73.8484066 C321.554472,74.3455159 322.022764,75.0876792 322.738211,75.7038147 C323.414634,76.368961 324.201626,77.1041227 325.164228,77.7342613 C328.871545,80.5418789 334.536585,82.8943964 340.344715,84.4207321 C343.271545,85.0718753 346.230894,85.6109939 349.027642,85.8280416 C351.817886,86.1221063 354.452033,85.9820755 356.682927,85.8280416 C358.913821,85.624997 360.760976,85.2609169 362.022764,84.9108399 C363.278049,84.574766 364,84.3787228 364,84.3787228 C364,84.3787228 361.053659,84.924843 356.650407,84.9108399 C354.445528,84.9318445 351.882927,84.756806 349.15122,84.4137305 C346.419512,84.1406705 343.531707,83.5315365 340.682927,82.8453856 C334.972358,81.4520791 329.411382,79.3026063 325.613008,76.9640919 C324.643902,76.3969672 323.817886,75.8018363 323.076423,75.2557161 C322.308943,74.7446037 321.814634,74.1214666 321.307317,73.6803696 C320.429268,72.6651463 320,72 320,72"/>
    <path fill="#442922" d="M359 78.3261984C359 78.3261984 356.76133 78.8068481 353.403326 78.8280533 350.051718 78.8280533 345.580775 78.5594549 341.212171 77.5345401 339.018275 77.0963006 336.843567 76.5308304 334.828765 75.9088131 332.813962 75.2443856 330.914291 74.6859837 329.33443 74.0427613 326.129934 72.8764789 324 72 324 72 324 72 324.498904 72.3039403 325.368787 72.8270002 326.251462 73.3147183 327.447551 74.1982656 329.027412 74.9051034 332.103984 76.5449671 336.453399 78.1424206 340.937135 79.1461303 345.433662 80.0791562 350.058114 80.1993186 353.454496 79.7398741 356.870066 79.2733611 359 78.3261984 359 78.3261984M364.474172 56C362.548331 54.1328277 360.943463 51.6886474 360.237321 48.3951629 358.369254 39.6233432 367.831556 32.4463998 378 37.8923189 377.64051 37.8015536 368.768799 36.0445964 364.288008 41.2247028 360.391388 45.7370358 361.078272 51.0662566 364.474172 56"/>
    <path fill="#442922" d="M367.001242 59L366.425231 58.3128791C366.068104 57.856939 365.716738 57.1633964 365.32505 56.2964681 364.610797 54.5497681 364.052066 51.9682483 364.374632 49.4445237 364.437993 48.1858723 364.737519 46.9464859 365.186808 45.8804852 365.595775 44.782376 366.171786 43.8576525 366.747797 43.1384231 367.905579 41.6871209 369 41 369 41L368.210865 41.3210846C367.703975 41.5008919 366.978202 41.87335 366.229387 42.5219408 365.526654 43.2090617 364.662638 44.07599 364.144228 45.302533 363.585497 46.4905458 363.17653 47.8712094 363.044047 49.2968248 362.928845 50.7224402 363.044047 52.1480557 363.337813 53.4323939 363.591257 54.7424188 364.167268 55.8341063 364.674158 56.7202997 365.209848 57.5936497 365.866501 58.1716019 366.286989 58.4991081L367.001242 59M382.678567 48L383.033251 48.86564C383.197926 49.3999021 383.185259 50.2587793 383.13459 51.2326243 382.94458 53.1667886 382.279546 55.817811 380.721467 57.7384497 380.024765 58.7596344 379.093717 59.5711718 378.099333 60.0919084 377.104949 60.6126449 376.085231 61.004888 375.16685 61.1198559 373.33009 61.5053362 371.993689 61.3159774 372.000022 61.3903683 372.006356 61.2821633 373.209751 61.9652074 375.230187 61.9990215 376.218237 62.0125471 377.4533 61.8908165 378.637694 61.3227402 379.828421 60.7749524 381.000148 59.8754984 381.867859 58.7258203 383.615948 56.3655988 384.166976 53.3629102 383.957965 51.2190987 383.875628 50.1438115 383.565278 49.2849343 383.248596 48.7303837L382.678567 48M377.952091 51.1903897C377.952091 51.1903897 377.568091 51.6103897 377.028091 52.1743897 376.476091 52.7383897 375.864091 53.5303897 375.132091 54.1843897 374.478091 54.9103897 373.710091 55.5163897 373.116091 55.9963897 372.528091 56.4943897 372.048091 56.8003897 372.048091 56.8003897 372.036091 56.7583897 372.618091 56.8963897 373.452091 56.7043897 374.292091 56.5363897 375.300091 55.9363897 376.122091 55.1623897 376.890091 54.3343897 377.460091 53.3683897 377.700091 52.5643897 377.946091 51.7603897 377.952091 51.1903897 377.952091 51.1903897"/>
    <path fill="#251714" d="M317,76.2134182 C317.089075,76.2259343 317.229051,76.8267114 318.412481,78.059556 C319.494111,79.2423358 321.021118,80.4751804 323.044402,81.8457031 C327.046433,84.5491998 332.880872,87.3903747 339.1416,88.8234783 C342.246514,89.6057401 345.446866,89.9186448 348.437255,90 C349.932449,89.9123867 351.383105,89.9687095 352.738324,89.7747086 C354.08718,89.5556753 355.385136,89.4430296 356.536754,89.1551573 C358.852714,88.5794126 360.742385,88.009926 361.989441,87.4028908 C363.268309,86.8772109 364,86.5768224 364,86.5768224 C364,86.5768224 363.255584,86.8396624 361.957628,87.3027613 C360.685123,87.8472155 358.776364,88.3228307 356.460403,88.7859297 C355.308786,89.0174792 354.023555,89.0612858 352.693786,89.2177382 C351.351293,89.3491582 349.926086,89.2177382 348.462705,89.2365125 C345.542304,89.0112211 342.43739,88.5606383 339.453364,87.6469565 C333.447137,85.9697872 327.930824,82.9346115 324.259645,80.1873081 C322.439962,78.8355597 320.97658,77.4838113 320.251252,76.6076781 C319.500474,75.8754811 319.150535,74.9179926 319.13781,75.0056059 L317,76.2134182"/>
    <g transform="translate(39 122)">
      <mask id="art-2-m" fill="#fff">
        <use xlink:href="#art-2-l"/>
      </mask>
      <path fill="#165794" d="M297.711818,2.37584 C298.401055,2.24172 299.045618,2.1076 299.6136,1.99902667 C301.400509,3.94057333 301.636636,6.04178667 306.020945,7.14668 C306.978218,7.38937333 308.114182,7.29357333 309.365018,6.92953333 C308.2482,12.7350133 304.910509,41.3728267 304.910509,41.3728267 C313.398327,31.59484 343.303527,5.24345333 343.303527,5.24345333 C343.303527,5.24345333 345.760527,6.96785333 349.181182,9.45865333 L348.625964,10.0079067 L298.458491,55.77476 L297.711818,2.37584" mask="url(#art-2-m)"/>
      <path fill="#16191A" d="M17.3904545,478.814787 C-0.223363636,476.521973 2.45061818,468.046867 5.43730909,464.68748 C8.424,461.321707 16.1077091,451.23716 17.3904545,445.859587 C18.6668182,440.475627 50.4546545,442.717347 50.4546545,442.717347 C50.4546545,442.717347 51.9543818,455.094707 50.4546545,456.863813 C48.9613091,458.639307 45.3364364,458.390227 44.6982545,460.52976 C44.0536909,462.669293 34.6724182,481.05012 17.3904545,478.814787" mask="url(#art-2-m)"/>
    </g>
    <path fill="#16191A" d="M159.120123,561 C167.941777,567.248137 178.276634,577.729498 184.735115,579.966878 C191.193595,582.191545 193.344276,585.312435 191.193595,590.448239 C189.042915,595.584042 176.125953,596.473909 169.023556,595.806509 C161.91472,595.132752 155.675171,588.223571 152.017726,585.986192 C148.353842,583.755168 142.539278,587.994748 138.669341,584.206458 C134.792965,580.411811 135.436881,575.504831 135.005457,570.813961 C134.580472,566.129447 159.120123,561 159.120123,561"/>
    <path fill="#12635E" d="M88.1310372,337.106685 C88.1310372,337.106685 125.704892,573.990794 126.521295,577.394742 C127.337699,580.811463 164.917982,568.875293 169,563.766178 C169,563.766178 151.849094,420.615167 150.209859,411.239941 C148.577051,401.871102 141.229418,278.479593 133.875357,249 C133.875357,249 54.6327728,257.008537 35.0326561,255.309757 C35.0326561,255.309757 34.2162525,345.626134 40.7474819,389.085542 C47.2851397,432.54495 48.1015434,563.766178 48.9179471,567.176512 C49.7343507,570.58046 89.7638445,572.292014 92.2130556,568.025903 C94.6622666,563.766178 88.1310372,337.106685 88.1310372,337.106685"/>
    <path fill="#22908C" d="M38 359L59.8948069 369.134821C60.3710608 371.711688 66.1311585 544.745378 67 571 57.8288948 570.533223 49.6424767 569.356688 49.2756325 567.834867 48.4582779 564.420359 47.6409232 433.038546 41.0956502 389.525954 39.7956059 380.861801 38.7851753 370.311356 38 359M112.963952 375.910945L150 573.283179C138.756008 577.251523 126.370494 580.360807 125.907543 578.392662 125.286048 575.757784 103.121495 433.87826 93 369L112.963952 375.910945"/>
    <path fill="#CBE8EB" d="M102.231984,81.4277027 C111.687935,82.6852764 136.373146,96.6526434 140.784644,100.112567 C145.202536,103.578874 164.593949,174.373252 165.859858,178.784336 C167.119372,183.189036 159.881957,182.716647 144.435319,185.863774 C144.435319,185.863774 137.786104,227.829711 139.991853,255.52825 C142.197603,283.220407 153.590777,386.590412 153.590777,386.590412 C153.590777,386.590412 78.6080898,403.787892 29.1161917,388.997038 C29.1161917,388.997038 23.0807503,240.309693 22.1409093,230.555518 C21.1946749,220.801342 17.7294108,183.661424 17.7294108,183.661424 C17.7294108,183.661424 10.6710133,185.180726 5,179.83125 C5,179.83125 20.5297533,106.272763 23.9950174,99.9785109 C27.4602814,93.6906423 62.3366933,81 62.3366933,81 L102.231984,81.4277027"/>
    <path fill="#F0BEA3" d="M101.651997,100.914552 C102.076101,100.49827 103.599019,103.841337 102.076101,100.49827 C100.41824,96.8606028 107.769374,93.5367487 107.120366,89.7517818 C106.471359,85.966815 107.672986,83.7637209 108.161348,81.2340054 C109.15735,76.1617655 119.04668,83.5203559 126.404239,83.9110208 C132.065383,84.212025 132.200325,80.5231233 131.493485,77.2889299 C130.786645,74.0483323 134.365825,74.3493364 134.744948,73.3374502 C135.419659,71.5570428 129.514334,68.5470014 129.514334,68.5470014 C129.514334,68.5470014 135.027684,67.8425237 136.158627,66.4335682 C137.289571,65.031017 134.468638,63.1929705 135.451788,61.784015 C136.447789,60.3750595 141.395667,60.2277596 141.961139,58.4025218 C142.520185,56.5708796 136.871893,48.2516378 136.299995,45.2928312 C135.734524,42.340429 141.395667,40.3614869 140.682402,37.2681891 C139.975562,34.1620827 136.871893,24.1584986 133.614004,18.9389589 C130.362542,13.7322278 115.943011,1.46791055 98.6896959,3.15865716 C81.4428065,4.84940377 71.5406245,25.9901407 71.8233604,33.4576049 C72.1060962,40.9250691 78.3327117,59.6705817 76.4949284,66.1517771 C74.6507193,72.6329724 68,83.2513735 68,83.2513735 L101.651997,100.914552"/>
    <path fill="#000207" d="M117.295175,21.2856812 C114.381144,23.6609646 116.727842,29.0053523 111.55737,31.7701311 C106.096784,34.6881541 105.961398,43.3081342 103.846791,43.8317182 C101.725737,44.3616873 99.0760314,34.649843 94.0473929,34.911635 C89.0123075,35.173427 86.6269277,40.4220372 87.6842312,45.6706473 C88.7415346,50.9192574 76.0345521,62.7445932 76.0281051,63 C76.06034,54.9993814 71.2573456,39.8792977 71.0059136,33.3664238 C70.7222469,25.921315 80.6570313,4.84386719 97.9607051,3.15818218 C115.270826,1.47249717 129.737832,13.7000987 133,18.8912423 C127.236407,22.4222415 120.209207,18.9103978 117.295175,21.2856812"/>
    <path fill="#000207" d="M130.03,20.4698378 C131.779364,19.0200185 132.918041,16.4972051 131.009644,15.2006707 C128.019822,13.1760331 126.766641,8.40504182 119.056716,4.72620515 C111.34043,1.05375534 103.916764,1.44974123 100.767909,0.395907809 C97.6190532,-0.651538744 90.6915711,0.523645194 89.2602731,2.23532615 C87.8162525,3.93423336 81.9383889,4.96890618 82.1992032,9.44610151 C82.1992032,9.44610151 77.6254111,8.79464085 75.2717211,13.1249382 C72.9180312,17.4552355 72.3964026,20.7316994 71.3531454,21.6577955 C70.3035269,22.5711178 70.8315168,27.297401 69.6483105,29.398681 C68.4778269,31.4935741 68.9040356,42.7280771 70.8315168,45.1423136 C72.7526367,47.5565502 71.5821531,51.3886717 72.7908047,52.4872132 C73.9994563,53.5921416 75.1381333,63 75.1381333,63 L92.3900446,22.8329794 L104.412947,9.45248838 L130.03,20.4698378"/>
    <path fill="#000207" d="M115.48298,26 C116.157292,23.3471883 122.616822,24.4413203 127.759238,25.3154034 C134.149446,26.4095355 137.880218,25.3520782 136.821486,24.1723716 C136.046342,23.3105134 136.607218,21.9229829 135.138857,20.297066 C133.65159,18.6405868 133.386906,16.8374083 131.477406,14.7224939 C129.567906,12.5953545 122.969733,11.1283619 122.57901,11 L113,21.9229829 L115.48298,26"/>
    <path fill="#F0BEA3" d="M160.962471,180 C162.835657,182.51143 168.350054,195.959525 166.693763,202.376906 C165.037472,208.787832 161.718318,218.65278 161.718318,220.550879 C161.718318,222.448978 146.995732,217.716643 146.995732,217.716643 C146.995732,217.716643 144.360127,209.87246 143.255933,204.991634 C142.151739,200.117265 144.977949,186.101032 144.977949,186.101032 L160.962471,180"/>
    <path fill="#CBE8EB" d="M163.356492,167 C166.70065,181.559872 168.86711,193.491056 167.66422,199.941552 C166.461331,206.392047 161.177436,223 161.177436,223 L141.0873,220.199043 C141.0873,220.199043 140.085942,201.562151 144.866009,185.713456 L163.356492,167"/>
    <g transform="translate(135 96)">
      <mask id="art-2-o" fill="#fff">
        <use xlink:href="#art-2-n"/>
      </mask>
      <polygon fill="#C6E5E4" points="5.747 73.124 28.838 73.124 28.838 4.152 5.747 4.152" mask="url(#art-2-o)"/>
    </g>
    <path fill="#B0DCDE" d="M140.610306,217 C140.152979,188.085252 139.26409,99.6590957 131,95 C135.412238,97.1974435 138.94847,99.1500106 140.552335,100.297063 C140.674718,100.387281 140.784219,100.471054 140.887279,100.548384 C144.352657,103.274245 156.990338,147.300444 163,168.694908 L144.565217,187.112191 C141.215781,198.067188 140.642512,210.343228 140.610306,217"/>
    <path fill="#C6E5E4" d="M165.768,179.613718 C165.696,179.345539 165.576,178.849407 165.402,178.15214 C165.27,177.441465 165.138,176.724085 165,176 C165.372,177.843734 165.642,179.124291 165.768,179.613718"/>
    <path fill="#B0DCDE" d="M165.201,180.011 C165.069,179.345 164.937,178.673 164.799,177.989 C164.973,178.613 165.093,179.057 165.165,179.297 L165.201,180.011"/>
    <path fill="#B0DCDE" d="M161.179916,223 L141.088177,220.199043 C141.056685,218.859177 141.031492,217.213057 141,215.305344 C141.031492,208.714481 141.592045,196.559986 144.867187,185.713456 L162.893068,167.478523 L163.359146,167 C163.459919,167.453002 163.566991,167.899624 163.667765,168.339866 C164.140141,170.445369 164.581026,172.480688 165.003015,174.471346 C165.0597,174.726558 165.116386,174.96901 165.166772,175.198701 C165.311634,175.887775 165.450198,176.570468 165.588762,177.246781 C165.733624,177.974137 165.872188,178.688732 166.010751,179.396947 L166.010751,179.499032 C167.679814,188.227299 168.486003,195.334966 167.692411,199.820326 C167.686113,199.826706 167.686113,199.833086 167.686113,199.845847 C167.686113,199.852227 167.679814,199.864988 167.679814,199.877749 C167.673516,199.89689 167.673516,199.916031 167.667218,199.941552 C166.476829,206.334625 161.261795,222.738407 161.179916,222.99362 C161.179916,223 161.179916,223 161.179916,223"/>
    <path fill="#C6E5E4" d="M29.786,388.955608 C29.768,388.467301 29.612,384.421324 29.36,377.921126 C29.612,384.421324 29.768,388.467301 29.786,388.955608 M27.722,335.964725 C27.596,332.787554 27.47,329.540626 27.338,326.26199 C27.47,329.546968 27.596,332.787554 27.722,335.964725 M26.36,301.859294 C26.33,301.117321 26.3,300.381688 26.27,299.646056 C26.252,299.252874 26.24,298.859691 26.222,298.47285 C26.27,299.595323 26.312,300.724138 26.36,301.859294 M26.054,294.331748 C26.036,293.887832 26.018,293.443916 26,293 C26.018,293.443916 26.036,293.887832 26.054,294.331748"/>
    <path fill="#B0DCDE" d="M71,395 C56.798552,394.565527 42.5971039,392.878751 30.0310903,389.121839 C30.0310903,389.11545 30.0310903,389.11545 30.0310903,389.11545 C30.0310903,389.11545 30.0310903,389.11545 30.0310903,389.109061 C30.0310903,389.109061 30.0310903,389.109061 30.0310903,389.102671 C30.0310903,389.096282 30.0310903,389.089893 30.0310903,389.089893 C30.0310903,389.083503 30.0310903,389.077114 30.0310903,389.077114 C30.011925,388.585137 29.8458262,384.508761 29.5775128,377.959723 C29.5775128,377.959723 29.5775128,377.953333 29.5775128,377.946944 C29.5775128,377.921387 29.5775128,377.902219 29.5775128,377.870273 C29.3283646,371.8196 28.996167,363.679625 28.6064736,354.306515 C28.4403748,350.249306 28.2614991,345.968471 28.0762351,341.521515 C27.9995741,339.604723 27.9165247,337.662374 27.8334753,335.688079 C27.6993186,332.487037 27.5651618,329.222102 27.4246167,325.912442 C27.3479557,324.174551 27.2776831,322.430271 27.2074106,320.679601 C26.9327087,314.271128 26.6580068,307.760426 26.3833049,301.326395 C26.3321976,300.18271 26.2874787,299.045413 26.2363714,297.914506 C26.1788756,296.515248 26.1149915,295.128769 26.0574957,293.74229 C26.0383305,293.295038 26.0191652,292.847787 26,292.400536 C38.7576661,288.304991 47.8036627,280.759221 47.8036627,280.759221 C47.8036627,280.759221 34.7776831,206.854127 35.3206985,197.608802 C35.697615,191.174772 42.2201874,163.400462 46.1554514,147.082176 C45.9190801,149.216204 45.9701874,151.433293 46.3279387,153.66955 C44.8394378,166.224535 43.6384157,183.993193 45.2291312,204.490084 C49.8032368,263.246136 62.3820273,347.073821 71,395 M47.4522998,141.727938 C48.4616695,137.587669 49.1068995,135 49.1068995,135 C48.9791312,135.926449 48.6916525,137.562111 48.3147359,139.823925 C48.2764055,139.894208 48.2444634,139.96449 48.2061329,140.034773 C47.931431,140.584253 47.6822828,141.146512 47.4522998,141.727938"/>
    <path fill="#EEA88E" d="M146.894467 216.838201C150.962441 213.695497 150.34744 211.314069 152.628068 208.639843 154.908696 205.965617 158.412919 202.940032 160.872923 204.364985 163.332926 205.783431 156.997136 213.292086 156.747292 215.354689 156.394948 218.282674 162.628237 217.72961 162.980582 220.93738 163.332926 224.151657 158.82292 230.385012 154.934321 234.126326 151.045722 237.867641 150.98166 236.885139 148.380719 239.071368 145.779778 241.257597 142.621492 243.216093 139.290238 241.075411 135.958983 238.941235 135.548983 234.920136 134.146012 231.712365 132.743042 228.504595 141.884773 224.119124 142.999462 222.999983 145.324933 220.664102 140.603521 225.940981 141.654147 225.407437 142.704774 224.873894 142.032116 220.573009 146.894467 216.838201M28.7489883 187.235687C30.0947216 195.996701 31.8954409 214.896649 32.7990047 238.757113 33.6961602 262.611168 34.599724 276.121203 42.6997567 284.670722 50.7997894 293.22665 49.4476479 297.277096 54.401228 307.1789 59.3548081 317.080705 59.8610602 320.015997 58.0154831 321.592595 56.1763143 323.169192 51.3060415 320.015997 49.5886295 316.459038 47.8776257 312.902079 43.8724671 302.109433 43.8724671 302.109433 43.8724671 302.109433 46.8266721 314.876031 47.0894105 317.375516 47.3521489 319.881409 55.9135759 326.463385 56.1763143 330.020344 56.4390527 333.577302 47.7686854 331.334175 43.8724671 330.94323 39.9826571 330.545876 28.8579286 325.918625 26.6855306 322.252715 24.5067244 318.586804 24.3144767 308.428643 23.917165 299.731718 23.5262615 291.047612 20.3605842 276.031478 19.1814655 271.160687 17.9959386 266.296306 10.6200385 220.889003 8.5181313 206.257406 6.40981582 191.632216 5 180 5 180L28.7489883 187.235687"/>
    <path fill="#F0BEA3" d="M145.88974,216.856736 C150.56687,214.196107 158.691677,218.470026 162.217414,219.69951 C162.880929,219.927192 163.433858,220.317505 163.934747,220.766364 L163.980282,220.942004 C164.33806,224.155576 159.758505,230.387562 155.80994,234.128055 C151.861375,237.868548 151.78982,236.886262 149.155275,239.072011 C146.514225,241.25776 143.307235,243.215826 139.924609,241.075614 C136.541984,238.941907 135.696327,236.235741 134.265216,233.028675 C133.562671,231.4349 134.362792,226.731637 135.41661,224.188102 C136.489943,221.592525 137.081903,219.413281 138.630105,218.450511 C141.733013,216.51196 143.28772,218.333417 145.88974,216.856736"/>
    <path fill="#CBE8EB" d="M48.6640776,280.436102 C48.6640776,280.436102 35.2852077,291.292317 18.0033487,294 C18.0033487,294 2.42413602,214.330418 0.191050046,202.403873 C-2.04203593,190.470956 15.9929165,115.573267 18.2260025,108.52055 C20.4525398,101.467833 30.0462963,95.1541537 41.8927846,90 L50,135.094066 C50,135.094066 36.4246709,188.298438 35.8680365,197.523673 C35.3114022,206.742536 48.6640776,280.436102 48.6640776,280.436102"/>
    <polyline fill="#CBE8EB" points="75.07 69 63 79.878 102.988 108 104 95.034 75.07 69"/>
    <polyline fill="#CBE8EB" points="102 96 106.124 84 113 89.71 102 96"/>
    <polyline fill="#2172AC" points="116 85.647 105.837 196 68 83 102.704 95.953 116 85.647"/>
    <polyline fill="#165794" points="75.07 69 104 95.252 96.884 104 63 79.969 75.07 69"/>
    <polyline fill="#165794" points="102 96.034 109.745 102 116 85.696 106.87 81 102 96.034"/>
    <polyline fill="#CBE8EB" points="70.239 74 106 196 41 89.814 70.239 74"/>
    <path fill="#CBE8EB" d="M114.588748,86 C114.588748,86 111.006422,128.375761 111.000002,137.706847 C110.993582,147.031556 128,102.869941 128,102.869941 L126.369336,92.186708 L114.588748,86"/>
    <path fill="#272A2A" d="M121.29814,160 C121.29814,160 126.109702,121.418623 127.715723,107.996761 C129.490799,93.0785425 122.96268,83.6987854 107.858279,80 C107.858279,80 107.565684,80.4404858 107.351114,81.0753036 L107,82.5133603 C120.777971,85.8947368 126.688389,94.1214575 125.075866,107.679352 C123.476347,121.107692 118.658283,159.669636 118.658283,159.669636 L121.29814,160"/>
    <path fill="#5A6060" d="M110,165 C110,170.522589 114.477411,175 120,175 C125.522589,175 130,170.522589 130,165 C130,159.477411 125.522589,155 120,155 C114.477411,155 110,159.477411 110,165"/>
    <path fill="#7F8688" d="M111,164.003317 C111,168.972724 115.022124,173 120,173 C124.971239,173 129,168.972724 129,164.003317 C129,159.033911 124.971239,155 120,155 C115.022124,155 111,159.033911 111,164.003317"/>
    <path fill="#494D4C" d="M120,155 L120,155"/>
    <path fill="#929999" d="M126.201681,170 C127.455882,168.498083 128.294118,166.612697 128.294118,164.490839 C128.294118,159.703877 124.468487,155.818066 119.747899,155.818066 C117.516807,155.818066 115.518908,156.738389 114,158.150831 C115.556723,156.284619 117.794118,155.019173 120.390756,155 C120.415966,155 120.434874,155 120.453782,155 C125.17437,155 129,158.885812 129,163.672774 C129,163.691947 129,163.711121 129,163.730294 C128.981092,166.229229 127.884454,168.42778 126.201681,170"/>
    <path fill="#5A6060" d="M114,164.5 C114,167.534483 116.466984,170 119.503272,170 C122.53956,170 125,167.534483 125,164.5 C125,161.465517 122.53956,159 119.503272,159 C116.466984,159 114,161.465517 114,164.5"/>
    <path fill="#7F8688" d="M116,164.507199 C116,167.545157 118.462042,170 121.5,170 C124.537958,170 127,167.545157 127,164.507199 C127,161.469241 124.537958,159 121.5,159 C118.462042,159 116,161.469241 116,164.507199"/>
    <path fill="#929999" d="M124.322148,168 C125.073826,167.101362 125.577181,165.978064 125.577181,164.698185 C125.577181,161.818457 123.281879,159.490166 120.449664,159.490166 C119.114094,159.490166 117.919463,160.048411 117,160.899395 C117.946309,159.762481 119.302013,159 120.872483,159 C123.704698,159 126,161.335098 126,164.208018 C126,164.221634 126,164.228442 126,164.242057 C125.993289,165.746596 125.33557,167.060514 124.322148,168"/>
    <path fill="#868D8F" d="M47.6174839,159 L48.9202487,158.70899 C47.8007875,153.72948 48.3048724,148.782304 50.3473981,144.772829 C52.5077618,140.537012 56.1476474,137.74978 60.8677148,136.715076 C65.1884422,135.764443 69.312773,136.521069 72.8479137,138.881486 C76.9329651,141.62345 79.7872638,146.286082 80.6775955,151.698874 L82,151.491934 C81.0507493,145.723462 77.9869607,140.724552 73.6007677,137.788581 C69.7579389,135.221223 65.2342681,134.406394 60.5796663,135.428164 C55.4537124,136.553404 51.4995921,139.579911 49.1559248,144.177874 C46.9693748,148.452493 46.4260106,153.723013 47.6174839,159"/>
    <path fill="#272A2A" d="M60.2649716,134 L62.6980087,133.030967 C54.7009999,113.085566 53.4652732,97.2665784 59.0228421,86.0360599 C62.313845,79.3811755 67.2055301,76.1018641 70.2660346,74.6001834 C71.6874405,73.9135174 72.7118772,73.6054803 73,73.5220536 L72.3085052,71 C71.2648604,71.2823673 61.9937085,74.1060405 56.6794433,84.868086 C50.7761269,96.7981053 51.97984,113.342263 60.2649716,134"/>
    <path fill="#5A6060" d="M59.385155,134.029557 C54.9466204,135.02773 51.5226079,137.726017 49.4935635,141.821746 C47.5596305,145.724281 47.0777325,150.573469 48.1493216,155.454857 C50.6031972,166.666594 58.0535946,176.261934 68.458788,181.890342 C74.3620391,172.951864 79.8150959,159.608545 78.0587043,148.622202 C77.2153828,143.335105 74.5142174,138.782149 70.6526922,136.122501 C68.2622243,134.480345 65.5800812,133.636728 62.7521006,133.636728 C61.6488077,133.636728 60.5264925,133.771964 59.385155,134.029557 M57.6858303,193.977895 C57.7175341,193.945696 60.7167154,191.408404 64.109024,187.628227 C65.0347755,186.591415 65.9985716,185.393607 66.9623677,184.067003 C56.0372317,178.045766 48.21907,167.896601 45.6193568,156.021562 C44.4209525,150.54771 44.9725989,145.080298 47.1791847,140.636818 C49.5379488,135.884227 53.6784676,132.619235 58.820827,131.453627 C63.5890814,130.371736 68.1797944,131.234673 72.1047271,133.9394 C76.5559433,137.011197 79.6565768,142.195256 80.6140321,148.190734 C82.5416243,160.278287 76.7461662,173.975796 70.8048706,183.07527 C71.5467399,183.416581 72.3012908,183.738572 73.074864,184.047683 C79.5424431,186.630054 83.9619554,186.964925 84,186.977804 L83.8224586,189.605253 C83.6322357,189.592373 78.9971374,189.238183 72.1300902,186.494817 C71.1662941,186.114868 70.2278611,185.702719 69.3021096,185.264811 C68.1734536,186.842568 67.0638199,188.24001 66.0239347,189.392739 C62.49847,193.327472 59.4675849,195.896963 59.3407697,196 L57.6858303,193.977895"/>
    <path fill="#7F8688" d="M65.5431034,185.706767 C66.299569,184.919344 67.0818966,183.965824 67.8642241,183 L68,183.086124 C67.0172414,184.353383 66.0344828,185.503759 65.0905172,186.488038 C62.5625,189.127136 60.2801724,191.101846 59.2068966,192 L59,191.772386 C59.0323276,191.741627 62.0905172,189.31784 65.5431034,185.706767"/>
    <path fill="#A2B8B9" d="M69.4051095,180 C69.9410444,179.163642 70.4769792,178.295117 71,177.407291 C70.9225154,177.535962 70.8450309,177.671066 70.7740034,177.799736 C70.3220101,178.558891 69.8635598,179.292313 69.4051095,180 M48.2130825,154.349555 C48.1291409,153.989277 48.0581134,153.629 48,153.275157 L48,153.268723 C48.0581134,153.629 48.1291409,153.989277 48.2130825,154.349555 M48.0581134,145.168921 C48.3422235,143.75998 48.7877597,142.408941 49.3753509,141.154404 L49.4786637,141 C48.8587872,142.273837 48.4003369,143.637743 48.0903987,145.072418 C48.0774846,145.104586 48.0645705,145.136754 48.0581134,145.168921"/>
    <path fill="#83898B" d="M48.1236739,154 C47.6616739,151.276863 47.6856739,148.585098 48.1776739,146.094118 C48.1836739,146.062745 48.1956739,146.031373 48.2076739,146 C47.6976739,148.516078 47.6616739,151.239216 48.1236739,153.993725 L48.1236739,154"/>
    <path fill="#6C7374" d="M68.6282878,182 C57.8471803,176.296674 50.1210485,166.580137 47.5785204,155.219163 C46.4682174,150.266274 46.9675253,145.352539 48.9778963,141.398058 L49.2275502,141 C48.6296948,142.272481 48.1763758,143.642846 47.8873029,145.07194 C47.348576,147.662582 47.3222966,150.46204 47.8281743,153.294127 C47.8873029,153.653032 47.9595711,154.018463 48.044979,154.383893 C50.5875071,165.744867 58.3070691,175.467929 69.0881766,181.171256 C69.2655622,180.91676 69.4363781,180.662263 69.6071939,180.401241 C70.0736526,179.683431 70.5401112,178.939519 71,178.169505 C70.2247589,179.513767 69.4363781,180.7993 68.6282878,182"/>
    <path fill="#A2B8B9" d="M72.567,182.249 C72.183,182.087 71.805,181.925 71.433,181.757 L71.433,181.751 C71.805,181.919 72.183,182.087 72.567,182.249"/>
    <path fill="#6C7374" d="M84.8178439,188 L84.8178439,188 L84.4210037,187.958457 L84.5381041,186.332344 C84.4990706,186.326409 79.964684,186.011869 73.3289963,183.632047 C72.5418216,183.347181 71.7611524,183.050445 71,182.735905 L71.5009294,182 C71.9042751,182.166172 72.3141264,182.326409 72.7304833,182.486647 C73.0817844,182.623145 73.4330855,182.753709 73.7908922,182.878338 C80.4265799,185.25816 84.9609665,185.566766 85,185.578635 L84.8178439,188"/>
    <path fill="#A2B8B9" d="M81.036 158.142C81.144 157.428 81.234 156.714 81.306 156 81.234 156.714 81.144 157.428 81.036 158.142M81.174 156L81.174 156C81.432 153.032209 81.408 150.071319 81.03 147.200153 81.408 150.071319 81.432 153.032209 81.174 156"/>
    <path fill="#6C7374" d="M73.635464,179 C78.7060817,170.303335 82.8476313,158.964002 81.1465209,148.768131 C80.1585683,142.847538 76.9591721,137.733722 72.3661739,134.703547 C69.4481152,132.785071 66.1767489,131.806776 62.7352716,131.806776 C61.4005542,131.806776 60.0396659,131.952885 58.6591493,132.251456 C53.5623607,133.356803 49.4796956,136.406035 47,140.782954 L47.1112265,140.503441 C49.5451229,135.815246 53.8175273,132.594494 59.1236833,131.44468 C60.5041999,131.146109 61.871631,131 63.2063484,131 C66.6412829,131 69.9126492,131.978295 72.8307079,133.896771 C77.4237061,136.926945 80.6231023,142.040762 81.6110549,147.955003 C81.6110549,147.986765 81.6175976,148.018528 81.6241404,148.056644 C81.6241404,148.069349 81.6306831,148.082054 81.6306831,148.094759 C81.6372258,148.120169 81.6372258,148.14558 81.6437686,148.17099 C81.6437686,148.190048 81.6503113,148.209105 81.6503113,148.234516 C81.6503113,148.234516 81.656854,148.234516 81.656854,148.240868 C82.0690462,150.883536 82.0952171,153.608788 81.8138796,156.340392 C81.7353668,157.096347 81.6372258,157.852303 81.5194566,158.608258 C81.5129139,158.614611 81.5129139,158.620963 81.5129139,158.627316 C81.5063712,158.659079 81.5063712,158.684489 81.4998284,158.716252 C81.4932857,158.741662 81.4932857,158.767073 81.486743,158.792483 C81.486743,158.798835 81.4802002,158.81154 81.4802002,158.817893 C80.2828802,166.03441 77.1423686,173.168343 73.635464,179"/>
    <path fill="#272A2A" d="M54.7530097,134.973847 L55.7435779,134.685847 C57.2487271,133.719847 58.9725732,133.035847 60.8572258,132.651847 C63.2307302,132.153847 65.5656411,132.189847 67.7912035,132.753847 C68.762475,132.987847 69.6951529,132.465847 69.9395788,131.601847 C70.190437,130.725847 69.6372626,129.831847 68.7045847,129.591847 C65.9258477,128.889847 63.0184656,128.835847 60.0917866,129.459847 C57.7761725,129.939847 55.647094,130.785847 53.7688737,131.991847 C52.964841,132.501847 52.7590087,133.515847 53.3057509,134.265847 L54.7530097,134.973847"/>
    <path fill="#272A2C" d="M56.7906885 198.205047L56.7906885 198.205047C57.8512527 199.264984 59.5620438 199.264984 60.6162951 198.205047L63.2045768 195.618297C64.2651411 194.564669 64.2651411 192.84858 63.2045768 191.794953 62.1503255 190.735016 60.4395344 190.735016 59.3852831 191.794953L56.7906885 194.381703C55.7364372 195.435331 55.7364372 197.15142 56.7906885 198.205047M81.0752958 186.989962L81.0752958 186.989962C80.7269738 188.369962 81.6199447 189.755962 83.0765639 190.091962L86.6484474 190.907962C88.1050665 191.237962 89.5743519 190.391962 89.9226739 189.011962 90.277329 187.631962 89.378025 186.239962 87.9214058 185.909962L84.3495223 185.093962C82.8929032 184.757962 81.4299509 185.609962 81.0752958 186.989962"/>
    <polyline fill="#B0DCDE" points="130.486 390 105 195 140 388.453 130.486 390"/>
    <polyline fill="#165794" points="72.035 70.269 72.719 72.267 70.199 73.731 69.281 72.843 72.035 70.269"/>
    <path fill="#272A2A" d="M68.786,71.114921 C70.28,70.496921 71.642,69.812921 73.214,69.854921 L70.76,72.146921 L68.786,71.114921"/>
    <path fill="#EEA88E" d="M83.1474383,54.4957279 C83.3330706,54.2669141 84.3474185,53.2753875 86.0711469,50.0529261 C87.344054,47.6567368 87.8876914,44.6249536 87.9539887,45.0380896 C88.1131021,46.0041925 87.8876914,48.4003817 88.066694,50.478774 C88.2456966,52.5571663 90.9572539,52.0359793 90.5992488,52.5571663 C90.234614,53.0783534 87.6887997,55.1058981 87.4368702,60.2669212 C87.1650514,65.7203174 103.242134,76.1122788 111.874035,78.5656716 L112,78.6355869 C110.050861,78.2860102 108.63873,78.5275359 108.293984,80.205504 C108.1415,80.9745727 107.922719,81.7245736 107.703938,82.4809304 L107.18019,84 C87.9805076,79.4618591 81.9408284,56.0211534 83.1474383,54.4957279"/>
  </g>
</svg>
