<svg xmlns="http://www.w3.org/2000/svg" width="290" height="447" viewBox="0 0 290 447">
  <g fill="none" fill-rule="evenodd">
    <path fill="#41B6AE" fill-opacity=".12" d="M145.058405,446.831105 C65.3978108,446.831105 0.822027027,439.934593 0.822027027,431.431686 C0.822027027,424.911919 38.77,419.339244 92.3664324,417.094477 L91.9731892,418.402616 L91.9731892,429.265407 L91.4986757,429.265407 L91.4986757,434.981977 L153.256216,434.981977 L153.256216,429.265407 L152.752865,429.265407 L150.684405,424.011919 L142.263757,420.96657 L134.62173,416.461337 L133.976811,416.07936 C137.633973,416.047965 141.330459,416.034884 145.058405,416.034884 C164.025838,416.034884 182.141243,416.424709 198.730865,417.136337 C198.754459,417.377035 198.767568,417.505233 198.767568,417.505233 C198.767568,417.505233 196.581135,420.058721 193.230703,422.682849 C190.973486,424.446221 188.199811,426.240988 185.187568,427.305814 C178.924514,429.5375 180.678378,431.625291 193.50073,431.627907 C195.965054,431.627907 198.83573,431.549419 202.138973,431.381977 L204.815649,431.164826 L214.216784,430.421802 C214.793541,430.722674 215.716351,430.960756 217.003568,431.151744 C218.938324,431.452616 221.706757,431.627907 225.377027,431.627907 C227.825622,431.627907 230.677946,431.549419 233.952351,431.381977 L247.20727,430.327616 C247.20727,430.327616 247.20727,427.235174 246.546622,423.951744 C246.313297,422.740407 245.993459,421.505523 245.553027,420.385756 C272.534757,423.185174 289.297405,427.099128 289.297405,431.431686 C289.297405,439.934593 224.719,446.831105 145.058405,446.831105 M215.283784,428.014826 L215.283784,428.014826 C215.249703,427.546512 215.199892,427.007558 215.142216,426.445058 C215.042595,425.665407 214.914135,424.815116 214.730622,423.951744 C214.374081,422.083721 213.807811,420.155523 212.908595,418.693023 C212.777514,418.481105 212.651676,418.188081 212.528459,417.819186 C218.351081,418.148837 223.932514,418.520349 229.249162,418.928488 C228.279162,419.909593 226.826784,421.285756 225.044081,422.682849 C222.789486,424.446221 220.015811,426.240988 217.003568,427.305814 L216.615568,427.452326 C216.114838,427.630233 215.669162,427.823837 215.283784,428.014826"/>
    <path fill="#ED9D8C" d="M186.008135,235.736628 L170.855162,264.350872 L142.748757,241.722674 L136.622027,249.872384 L167.832432,280.391279 C170.842054,282.881977 175.327649,282.371802 177.697595,279.266279 L193.285757,255.602035 L186.008135,235.736628"/>
    <path fill="#FFFFFE" d="M195.765811,228.149419 L190.404595,263.118605 L184.416811,259.921512 L172.750595,253.718314 C172.750595,253.718314 175.872946,246.643895 181.034919,239.323547 C183.604108,235.668605 187.282243,232.8875 190.312838,231.009012 L190.312838,230.993314 C193.361784,229.112209 195.765811,228.149419 195.765811,228.149419"/>
    <path fill="#ED9D8C" d="M152.412054,258.134593 C152.412054,258.134593 148.629054,257.582558 142.137919,256.575291 C136.808162,255.764244 128.002135,247.42093 124.98727,244.425291 C124.879784,244.318023 124.649081,244.043314 124.373811,243.677035 C123.684324,242.790116 122.656649,241.413953 122.260784,240.911628 C120.407297,238.468023 122.292243,236.877326 122.292243,236.877326 C122.292243,236.877326 121.571297,235.532558 122.352541,234.017733 C123.149514,232.489826 124.772297,232.597093 124.772297,232.597093 L124.740838,231.296802 C124.98727,229.190698 128.201378,229.465407 128.201378,229.465407 C128.201378,229.465407 128.982622,227.798837 130.560838,227.966279 C131.326351,228.057849 133.376459,229.800291 135.245676,231.574128 C137.175189,233.392442 138.936919,235.226453 138.936919,235.226453 C141.157432,237.549709 143.684676,240.226163 143.684676,240.226163 C143.684676,240.226163 143.377946,237.884593 143.315027,235.501163 C143.299297,234.247965 144.064811,233.40814 144.804108,232.8875 C145.399216,232.476744 146.211919,232.764535 146.411162,233.468314 C146.822757,234.967442 147.572541,237.502616 148.338054,239.352326 C149.504676,242.102035 150.603135,246.45814 150.603135,246.45814 L152.412054,258.134593"/>
    <path fill="#BEBEB9" d="M187.172135,261.39186 L184.416811,259.921512 C185.874432,248.200581 188.936486,236.081977 190.312838,231.009012 L190.312838,230.993314 C190.782108,230.702907 191.235649,230.436047 191.668216,230.190116 C190.598595,232.994767 188.823757,240.621221 187.172135,261.39186"/>
    <path fill="#E67868" d="M124.373811,243.677035 L124.373811,243.677035 C123.684324,242.790116 122.656649,241.413953 122.260784,240.911628 C121.746946,240.234012 121.518865,239.621802 121.461189,239.090698 C121.59227,238.855233 121.691892,238.60407 121.757432,238.345058 C121.946189,238.376453 122.137568,238.394767 122.328946,238.394767 C123.956973,238.394767 125.558784,237.230523 125.978243,235.647674 C126.161757,234.938663 126.201081,234.080523 126.817162,233.685465 C127.084568,233.515407 127.41227,233.473547 127.721622,233.402907 C129.271,233.036628 130.542486,231.697093 130.825622,230.132558 C130.885919,229.810756 130.906892,229.478488 131.040595,229.182849 C131.166432,228.90814 131.376162,228.685756 131.604243,228.481686 C132.58473,229.146221 133.958459,230.352326 135.245676,231.574128 C134.894378,232.536919 134.432973,233.455233 133.822135,234.203488 C131.525595,237.013372 130.238378,237.395349 129.472865,238.923256 C128.830568,240.226163 127.435865,242.897384 124.373811,243.677035"/>
    <path fill="#ED9D8C" d="M228.931946,146.89564 L225.977378,156.157267 C225.565784,157.483721 224.632486,158.600872 223.405568,159.226163 C219.100865,161.442151 208.459703,166.685174 200.311703,168.288953 C198.277324,168.702326 196.408108,168.869767 194.829892,168.715407 L194.279351,168.655233 C193.605595,168.566279 192.963297,168.459012 192.321,168.367442 C174.999946,172.964244 137.114892,182.550291 127.252351,180.622093 C119.657514,179.141279 115.659541,163.38343 113.654,150.636919 C112.246189,141.668314 111.818865,134.177907 111.818865,134.177907 L132.183622,139.468023 C132.183622,139.468023 132.673865,141.851453 133.345,145.04593 C134.480162,150.380523 136.150135,158.00436 136.85273,160.419186 C137.665432,163.140116 167.266162,158.27907 184.831027,155.163081 L186.928324,150.914244 C186.928324,150.914244 190.373135,145.352035 193.194,142.034593 C195.060595,139.805523 197.220811,136.592733 198.442486,134.701163 C199.011378,133.814244 200.267135,133.767151 200.909432,134.591279 C201.247622,135.020349 201.554351,135.525291 201.766703,136.106105 C202.073432,136.914535 202.180919,137.861628 201.827,138.871512 C200.728541,142.14186 199.270919,145.260465 199.270919,145.260465 C199.270919,145.260465 202.304135,143.546802 205.628351,141.728488 C208.412514,140.184884 211.385432,138.534012 212.932189,137.709884 C215.121243,136.532558 218.752189,136.54564 220.985811,136.7 C222.257297,136.79157 223.452757,137.356686 224.338865,138.259302 L227.663081,141.652616 C229.039432,143.028779 229.516568,145.04593 228.931946,146.89564"/>
    <path fill="#E67868" d="M196.043703,168.772965 C195.621622,168.772965 195.217892,168.754651 194.829892,168.715407 L195.196919,164.163081 C195.196919,164.163081 194.431405,154.993023 195.396162,148.114826 C196.085649,143.13343 199.792622,138.36657 201.766703,136.106105 C201.93973,136.561337 202.049838,137.061047 202.049838,137.589535 C202.049838,138.000291 201.981676,138.42936 201.827,138.871512 C200.728541,142.14186 199.270919,145.260465 199.270919,145.260465 C199.270919,145.260465 202.304135,143.546802 205.628351,141.728488 C208.412514,140.184884 211.385432,138.534012 212.932189,137.709884 C214.523514,136.851744 216.880351,136.626744 218.906865,136.626744 C219.664514,136.626744 220.377595,136.65814 220.985811,136.7 C222.257297,136.79157 223.452757,137.356686 224.338865,138.259302 L227.663081,141.652616 C228.654054,142.64157 229.178378,143.962791 229.178378,145.312791 C229.178378,145.841279 229.097108,146.375 228.931946,146.89564 L225.977378,156.157267 C225.565784,157.483721 224.632486,158.600872 223.405568,159.226163 C219.100865,161.442151 208.459703,166.685174 200.311703,168.288953 C198.778054,168.600291 197.336162,168.772965 196.043703,168.772965"/>
    <path fill="#77A599" d="M133.347622,145.051163 C133.347622,145.048547 133.347622,145.048547 133.345,145.04593 C132.915054,142.994767 132.558514,141.278488 132.35927,140.313081 C132.561135,141.278488 132.920297,142.994767 133.352865,145.051163 C133.352865,145.051163 133.350243,145.051163 133.347622,145.051163"/>
    <path fill="#E67868" d="M119.730919,149.396802 C119.607703,144.959593 119.544784,140.446512 119.762378,136.244767 L132.181,139.47064 C132.181,139.47064 132.243919,139.774128 132.35927,140.313081 C132.558514,141.278488 132.915054,142.994767 133.345,145.04593 C133.347622,145.048547 133.347622,145.048547 133.347622,145.051163 C129.714054,146.393314 124.594027,148.159302 119.730919,149.396802"/>
    <polyline fill="#FFFFFE" points="91.973 418.403 91.973 429.373 152.797 429.373 152.753 429.265 150.684 424.012 142.264 420.967 134.622 416.461 132.171 415.009 130.086 413.785 127.653 412.351 125.325 410.975 122.937 409.567 114.194 404.4 95.25 407.43 92.477 416.72 91.973 418.403"/>
    <polygon fill="#008C76" points="91.499 434.982 153.256 434.982 153.256 429.265 91.499 429.265"/>
    <path fill="#008C76" d="M131.082541 419.75C131.470541 419.75 131.855919 419.587791 132.136432 419.276453L134.543081 416.563372C135.059541 415.982558 135.004486 415.098256 134.42773 414.585465 133.848351 414.072674 132.962243 414.122384 132.445784 414.703198L130.033892 417.418895C129.520054 417.997093 129.572486 418.884012 130.154486 419.396802 130.41927 419.632267 130.752216 419.75 131.082541 419.75M126.523541 417.123256C126.908919 417.123256 127.294297 416.961047 127.572189 416.649709L129.984081 413.936628C130.497919 413.355814 130.442865 412.471512 129.863486 411.958721 129.28673 411.44593 128.398 411.49564 127.881541 412.076453L125.47227 414.789535C124.958432 415.370349 125.010865 416.257267 125.590243 416.767442 125.857649 417.005523 126.190595 417.123256 126.523541 417.123256M121.610622 414.582849C121.996 414.582849 122.381378 414.423256 122.65927 414.109302L125.068541 411.396221C125.582378 410.818023 125.529946 409.933721 124.950568 409.418314 124.376432 408.905523 123.487703 408.957849 122.968622 409.536047L120.55673 412.251744C120.045514 412.829942 120.097946 413.71686 120.677324 414.229651 120.94473 414.465116 121.277676 414.582849 121.610622 414.582849"/>
    <path fill="#4EB8AA" d="M106.245297,429.265407 L91.9731892,429.265407 L91.9731892,418.402616 L92.4765405,416.720349 L92.6154865,416.811919 L100.624541,419.700291 C101.880297,420.142442 102.858162,421.105233 103.351027,422.345349 L104.727378,425.872093 C105.663297,426.714535 106.245297,427.923256 106.245297,429.265407"/>
    <polygon fill="#006F5B" points="91.499 434.982 106.245 434.982 106.245 429.265 91.499 429.265"/>
    <polyline fill="#FFFFFE" points="61.043 404.395 89.116 420.972 97.539 424.009 99.644 429.378 38.817 429.378 38.817 418.405 42.094 407.433 61.043 404.395"/>
    <polygon fill="#008C76" points="38.348 434.982 100.113 434.982 100.113 429.26 38.348 429.26"/>
    <path fill="#008C76" d="M77.9344054 419.75C78.3197838 419.75 78.7077838 419.587791 78.9830541 419.276453L81.3949459 416.563372C81.9061622 415.982558 81.8537297 415.098256 81.2743514 414.585465 80.6975946 414.072674 79.8114865 414.122384 79.2924054 414.703198L76.8805135 417.418895C76.3692973 417.997093 76.4217297 418.884012 77.0011081 419.396802 77.2685135 419.632267 77.6014595 419.75 77.9344054 419.75M73.3701622 417.123256C73.7581622 417.123256 74.1435405 416.961047 74.4214324 416.649709L76.8333243 413.936628C77.3445405 413.355814 77.2947297 412.471512 76.7127297 411.958721 76.1333514 411.44593 75.2472432 411.49564 74.7307838 412.076453L72.3188919 414.789535C71.8076757 415.370349 71.8574865 416.257267 72.4394865 416.767442 72.7095135 417.005523 73.0398378 417.123256 73.3701622 417.123256M68.4572432 414.582849C68.8452432 414.582849 69.2306216 414.423256 69.5085135 414.109302L71.9204054 411.396221C72.4316216 410.818023 72.3818108 409.933721 71.7998108 409.418314 71.2230541 408.905523 70.3343243 408.957849 69.8178649 409.536047L67.4085946 412.251744C66.8947568 412.829942 66.9445676 413.71686 67.5265676 414.229651 67.7965946 414.465116 68.1242973 414.582849 68.4572432 414.582849"/>
    <path fill="#00A28E" d="M106.39473,413.264244 L91.8473514,412.761919 L85.6917838,248.857267 L76.7625405,248.857267 L67.8673784,407.411628 L59.4441081,411.234012 C51.4062162,411.613372 40.6864054,411.234012 40.6864054,411.234012 L45.4315405,250.005814 C44.6371892,248.65843 43.6698108,238.863081 43.1192703,233.727326 C42.9986757,232.597093 42.8885676,231.697093 42.8125405,231.160756 C42.6447568,229.999128 42.6132973,227.722965 42.6735946,224.850291 C42.6893243,224.452616 42.6893243,224.054942 42.7050541,223.628488 C42.8885676,216.888953 43.4548378,207.611628 43.8402162,201.819186 C43.9005135,200.91657 43.9634324,200.092442 44.008,199.372965 C44.1469459,197.523256 44.2203514,196.408721 44.2203514,196.408721 L116.671486,196.408721 C116.671486,196.408721 116.702946,197.586047 116.702946,199.448837 L114.972676,223.474128 L114.849459,225.109302 L114.80227,225.781686 L114.694784,233.881686 L114.694784,234.326453 L119.673243,403.59186 C120.176595,408.939535 116.301838,411.78343 106.39473,413.264244"/>
    <path fill="#00A999" d="M110.04927,91.1741279 L112.775757,91.9616279 C112.775757,91.9616279 124.489162,99.9438953 128.993108,113.265988 C132.015838,122.205814 135.604838,139.481105 135.604838,139.481105 L107.275595,145.919767 L105.925459,104.017442 L108.465811,92.7543605 L110.04927,91.1741279"/>
    <path fill="#008C71" d="M43.1245135,233.735174 C43.0039189,232.602326 42.8938108,231.702326 42.8177838,231.168605 C42.65,230.006977 42.6185405,227.728198 42.6788378,224.855523 C42.6893243,224.457849 42.6971892,224.047093 42.7102973,223.628488 L58.4950811,224.648837 L81.955973,224.528488 C82.8106216,224.54157 83.6914865,224.546802 84.5907027,224.546802 C86.126973,224.546802 87.7209189,224.531105 89.3515676,224.515407 C93.1345676,226.469767 95.5385946,227.707267 95.5385946,227.707267 C95.5385946,227.707267 95.7378378,227.97936 96.1048649,228.437209 C76.9958649,230.878198 57.8842432,232.597093 43.1245135,233.735174"/>
    <path fill="#00A28E" d="M120.360108,207.734593 C120.451865,216.611628 120.530514,223.136628 120.530514,223.136628 C120.530514,223.136628 118.386027,223.290988 114.972676,223.474128 C114.068216,223.536919 113.072,223.597093 111.999757,223.644186 C105.81273,223.992151 97.2059459,224.392442 89.3515676,224.515407 C86.764027,224.54157 84.2682432,224.559884 81.955973,224.528488 L58.4950811,224.648837 L42.7050541,223.628488 L38.9246757,223.382558 C38.9246757,223.382558 38.9404054,206.784884 39.7976757,191.045349 C40.301027,181.707849 41.1137297,172.660756 42.3852162,167.572093 C42.6447568,166.439244 42.7837027,165.05 42.7968108,163.475 C42.8282703,159.623837 42.1387838,154.655523 41.2815135,149.585174 C41.098,148.483721 40.9013784,147.36657 40.7021351,146.267733 C39.5355135,139.619767 38.2823784,133.14186 38.1591622,129.015988 C37.024,121.588372 36.4891892,114.618605 38.1591622,98.45 C38.1591622,98.45 54.0252162,85.1069767 76.1045135,80.6906977 L79.3527027,81.1511628 L81.5705946,81.2113372 L90.6230541,81.4546512 C98.6006486,82.1898256 107.637378,88.5630814 113.654,92.244186 C115.614973,96.5087209 120.100568,108.564535 120.530514,130.740116 C120.315541,131.810174 120.129405,132.80436 119.932784,133.706977 C119.151541,142.937209 120.07173,154.168895 120.053378,162.894186 C120.04027,168.715407 120.129405,181.493314 120.236892,193.795058 C120.284081,198.671802 120.315541,203.470058 120.360108,207.734593"/>
    <path fill="#008C71" d="M108.552324,246.808721 L105.49027,244.778488 L107.26773,238.405233 C102.488514,236.126453 97.7092973,230.459593 96.1048649,228.437209 C97.6621081,228.238372 99.221973,228.034302 100.776595,227.827616 C101.017784,228.1625 101.272081,228.513081 101.539486,228.87936 C101.964189,229.481105 102.404622,230.085465 102.858162,230.70814 C104.740486,233.306105 107.716027,235.108721 110.46873,236.652326 C111.163459,237.042151 111.868676,237.411047 112.579135,237.76686 L112.091514,238.617151 L108.998,243.998837 L109.700595,244.393895 L108.552324,246.808721 M114.972676,243.860174 L112.542432,242.355814 L113.897811,239.99593 L114.603027,238.755814 C114.364459,238.643314 114.125892,238.528198 113.889946,238.410465 C113.882081,238.407849 113.876838,238.405233 113.871595,238.402616 C114.188811,238.556977 114.508649,238.708721 114.825865,238.863081 L114.972676,243.860174"/>
    <path fill="#006E57" d="M96.1048649,228.437209 C95.7378378,227.97936 95.5385946,227.707267 95.5385946,227.707267 C95.5385946,227.707267 93.1345676,226.469767 89.3515676,224.515407 C91.7241351,224.476163 94.1648649,224.415988 96.5846216,224.3375 C97.5284054,224.811047 98.4171351,225.25843 99.2508108,225.674419 C99.7017297,226.32064 100.207703,227.0375 100.776595,227.827616 C99.221973,228.034302 97.6621081,228.238372 96.1048649,228.437209"/>
    <path fill="#008C71" d="M89.3515676,224.515407 C76.3955135,217.804651 47.3479459,202.58314 44.008,199.372965 C42.5084324,197.936628 41.0508108,194.666279 39.7976757,191.045349 C40.0441081,186.469477 40.3665676,181.964244 40.7781622,177.958721 C42.4664865,184.753198 44.2282162,190.705233 45.7592432,193.496802 C49.2433784,199.890988 80.3567838,216.16686 96.5846216,224.3375 C94.1648649,224.415988 91.7241351,224.476163 89.3515676,224.515407"/>
    <polyline fill="#008C76" points="87.102 124.799 90.696 124.589 89.291 101.077 85.697 101.286 87.102 124.799"/>
    <path fill="#ED9D8C" d="M72.3922973,86.8337209 L79.1849189,99.5305233 C83.0937568,107.486628 88.6594595,112.674709 88.6594595,112.674709 L92.8986216,89.6514535 L93.1240811,88.4584302 L89.3594324,76.9049419 L89.3437027,68.9331395 L89.3253514,64.652907 L73.7004865,64.6843023 L73.6873784,65.2886628 L73.1735405,78.6055233 C73.1735405,79.0188953 73.0450811,79.8011628 72.8720541,80.7247093 C72.4735676,82.9511628 71.8365135,86.0069767 72.3922973,86.8337209"/>
    <path fill="#E67868" d="M92.8986216,89.6514535 C82.5196216,87.181686 76.4138649,83.730814 72.8720541,80.7247093 C73.0450811,79.8011628 73.1735405,79.0188953 73.1735405,78.6055233 L73.4514324,71.3976744 C73.7502973,71.7011628 74.0596486,72.0020349 74.3768649,72.3002907 C79.6620541,77.2293605 84.2813514,79.1549419 88.4392432,79.1549419 C88.9871622,79.1549419 89.5272162,79.1209302 90.062027,79.0555233 L93.1240811,88.4584302 L92.8986216,89.6514535"/>
    <path fill="#1D0F11" d="M91.3911892,83.1395349 L90.3137027,79.8430233 C99.9350541,83.197093 104.090324,91.9119186 102.630081,105.875 C100.553757,125.677616 106.641162,135.700581 106.704081,135.797384 L104.391811,137.249419 C104.119162,136.817733 97.7276486,126.423256 99.9114595,105.592442 C101.379568,91.6084302 96.8546486,85.7348837 91.3911892,83.1395349"/>
    <path fill="#FFFFFE" d="M99.395,141.228779 C99.6440541,145.312791 103.235676,148.418314 107.417162,148.161919 C111.60127,147.90814 114.783919,144.39186 114.537486,140.305233 C114.285811,136.223837 110.694189,133.118314 106.512703,133.372093 C102.331216,133.625872 99.1459459,137.144767 99.395,141.228779"/>
    <path fill="#2187A6" d="M103.571243,140.975 C103.683973,142.806395 105.293649,144.19564 107.168108,144.08314 C109.042568,143.968023 110.471351,142.393023 110.361243,140.561628 C110.248514,138.730233 108.638838,137.335756 106.764378,137.450872 C104.887297,137.565988 103.458514,139.143605 103.571243,140.975"/>
    <path fill="#ED9D8C" d="M111.286676,47.7386628 C111.286676,47.7386628 113.389216,43.2883721 117.214162,44.6331395 C121.039108,45.9752907 116.383108,58.9232558 108.539216,56.730814 L111.286676,47.7386628"/>
    <path fill="#E67868" d="M111.590784,54.5488372 C111.734973,53.9601744 111.871297,53.3741279 112.002378,52.793314 L112.455919,52.3380814 C112.639432,52.7593023 112.851784,53.3636628 112.746919,53.7299419 C112.678757,53.9706395 112.175405,54.2715116 111.590784,54.5488372 M112.980243,51.969186 C112.927811,51.969186 112.878,51.969186 112.828189,51.9665698 L113.394459,51.4014535 C113.394459,51.4014535 113.625162,49.6223837 114.12327,47.9401163 C114.304162,47.9034884 114.487676,47.8825581 114.663324,47.8825581 C115.051324,47.8825581 115.410486,47.9819767 115.691,48.2462209 C116.894324,49.3712209 115.507486,50.9043605 114.422135,51.5688953 C113.903054,51.8854651 113.383973,51.969186 112.980243,51.969186"/>
    <path fill="#1D0F11" d="M70.509973,4.86046512 C73.572027,2.88517442 76.8385676,3.2619186 78.8545946,3.8244186 C81.5863243,2.76482558 88.4051622,-3.36773256 109.737297,5.60087209 C120.672081,10.2002907 125.815703,23.0540698 120.021919,31.1017442 C119.560514,34.7985465 118.593135,39.4005814 116.653135,44.5781977 C116.653135,44.5781977 115.226973,44.994186 114.482432,46.8805233 C113.73527,48.7694767 113.394459,51.4014535 113.394459,51.4014535 L111.910622,52.8848837 C111.910622,52.8848837 112.503108,49.6093023 113.404946,46.1662791 C112.576514,47.375 111.687784,48.565407 110.72827,49.7087209 C99.8170811,62.7534884 83.8199459,30.0421512 79.0957838,19.5299419 C77.5962162,32.3706395 75.6247568,48.819186 75.3704595,48.8584302 C74.9562432,48.9159884 73.9705135,60.3281977 65.8592162,57.3848837 C57.7505405,54.4389535 60.7260811,35.0313953 60.2043784,34.9372093 C59.6800541,34.840407 65.6154054,8.02093023 70.509973,4.86046512"/>
    <path fill="#ED9D8C" d="M67.8857297,35.1020349 C67.8857297,35.1020349 67.6943514,29.3017442 62.1496216,28.5116279 C56.6048919,27.7215116 55.3281622,43.7619186 66.3835405,45.9674419 L67.8857297,35.1020349"/>
    <path fill="#E67868" d="M64.3386757,42.5662791 C63.525973,41.768314 62.6922973,40.8447674 62.7525946,40.4680233 C62.8679459,39.7406977 64.4278108,38.8354651 64.4278108,38.8354651 C64.4278108,38.8354651 62.8364865,38.5843023 61.8402703,37.2761628 C60.8414324,35.9680233 59.9395946,33.5950581 62.0735946,33.1162791 C62.2125405,33.0848837 62.3541081,33.0718023 62.4930541,33.0718023 C63.8091081,33.0718023 65.1251622,34.3563953 65.8749459,35.2380814 C65.2483784,37.5718023 64.7581351,39.6098837 64.5562703,40.9363372 C64.4802432,41.4098837 64.4068378,41.956686 64.3386757,42.5662791"/>
    <path fill="#ED9D8C" d="M64.5562703,40.9363372 C64.3255676,42.3805233 64.1001081,44.4813953 64.1158378,46.9930233 C64.0974865,54.0517442 65.8356216,64.3180233 74.3768649,72.3002907 C87.3774865,84.4267442 96.3434324,78.3726744 104.365595,70.1968023 C112.033838,62.3662791 112.925189,44.4918605 114.928108,39.5837209 C115.171919,38.984593 115.371162,38.3593023 115.504865,37.7366279 C116.527297,33.5139535 115.635946,29.0113372 115.635946,29.0113372 C100.530162,1.21598837 71.1942162,17.5703488 71.1942162,17.5703488 C71.1942162,17.5703488 65.3978108,35.4186047 64.5562703,40.9363372"/>
    <path fill="#E67868" d="M64.1158378,46.9930233 L64.1158378,46.9930233 C64.1158378,46.9145349 64.1158378,46.8360465 64.1158378,46.7601744 C64.1158378,44.3505814 64.3334324,42.3360465 64.5562703,40.9363372 C65.3978108,35.4186047 71.1942162,17.5703488 71.1942162,17.5703488 C71.1942162,17.5703488 79.7669189,12.790407 90.0331892,12.790407 C98.7527027,12.790407 108.696514,16.2438953 115.635946,29.0113372 C115.635946,29.0113372 115.995108,30.8244186 115.99773,33.2313953 C115.99773,34.615407 115.877135,36.1930233 115.504865,37.7366279 C110.531649,36.3656977 91.6690811,30.7276163 84.5513784,23.3287791 C84.5513784,23.3287791 79.0774324,32.3287791 69.9594324,34.3119186 C69.9594324,34.3119186 69.2725676,43.7200581 64.1158378,46.9930233"/>
    <path fill="#E78378" d="M89.6268378,51.602907 C89.3515676,52.8482558 91.2784595,54.3343023 93.9262973,54.9151163 C96.5767568,55.4985465 98.9493243,54.959593 99.2245946,53.7116279 C99.4998649,52.4636628 97.5755946,50.9802326 94.9251351,50.3994186 C92.2720541,49.8159884 89.9021081,50.3549419 89.6268378,51.602907"/>
    <path fill="#1D0F11" d="M110.112189 40.0363372C110.445135 40.0834302 110.799054 40.015407 111.100541 39.8165698 111.755946 39.3848837 111.934216 38.5031977 111.501649 37.8491279 110.447757 36.255814 107.301811 33.8017442 102.952541 35.9104651 102.244703 36.2531977 101.951081 37.1008721 102.294514 37.8072674 102.637946 38.5110465 103.48473 38.806686 104.195189 38.4639535 107.417162 36.9046512 109.060919 39.3116279 109.129081 39.4162791 109.362405 39.7668605 109.726811 39.9813953 110.112189 40.0363372M87.6632432 35.0130814C87.9961892 35.0601744 88.3474865 34.9895349 88.6515946 34.7906977 89.307 34.3590116 89.4878919 33.4773256 89.0527027 32.8232558 87.9988108 31.2299419 84.8502432 28.7758721 80.500973 30.884593 79.7957568 31.2273256 79.4995135 32.075 79.8429459 32.7813953 80.1863784 33.4851744 81.0331622 33.7834302 81.7462432 33.4380814 84.9655946 31.8787791 86.6093514 34.2883721 86.6801351 34.390407 86.9134595 34.7409884 87.2752432 34.9555233 87.6632432 35.0130814M103.628919 44.8686047C103.222568 46.7680233 103.741649 48.4895349 104.787676 48.7119186 105.833703 48.9343023 107.013432 47.5764535 107.417162 45.6718023 107.823514 43.7723837 107.304432 42.0482558 106.258405 41.8258721 105.212378 41.6034884 104.03527 42.9665698 103.628919 44.8686047"/>
    <path fill="#FFFFFE" d="M106.153541,44.0313953 C106.082757,44.4290698 106.245297,44.7875 106.512703,44.8398256 C106.785351,44.8869186 107.063243,44.6043605 107.134027,44.2093023 C107.207432,43.8116279 107.044892,43.4531977 106.774865,43.4034884 C106.502216,43.3537791 106.226946,43.6363372 106.153541,44.0313953"/>
    <path fill="#1D0F11" d="M81.3215405,40.1723837 C80.9151892,42.0718023 81.4368919,43.793314 82.4802973,44.0156977 C83.5263243,44.2380814 84.7060541,42.8776163 85.1097838,40.9755814 C85.5161351,39.0761628 84.9970541,37.3520349 83.9536486,37.1322674 C82.905,36.9098837 81.7278919,38.2703488 81.3215405,40.1723837"/>
    <path fill="#FFFFFE" d="M83.8487838,39.3351744 C83.7753784,39.7328488 83.9379189,40.0912791 84.2079459,40.1409884 C84.477973,40.1906977 84.7558649,39.9081395 84.8292703,39.5130814 C84.9000541,39.115407 84.7375135,38.7569767 84.4674865,38.7072674 C84.1948378,38.6575581 83.9195676,38.9401163 83.8487838,39.3351744"/>
    <path fill="#1D0F11" d="M69.5452162,16.1601744 C69.5452162,16.1601744 71.3855946,9.11715116 76.2696757,6.34389535 L75.6247568,4.94680233 C75.6247568,4.94680233 94.2435135,-1.6122093 103.943514,5.24505814 C113.640892,12.1023256 122.058919,19.9485465 116.493216,37.2709302 C116.493216,37.2709302 98.619,31.2770349 85.4401081,19.1453488 C83.6705135,21.6831395 78.9882973,27.3813953 71.8941892,28.5299419 C71.8941892,28.5299419 71.3331622,36.8549419 68.7901892,42.6866279 L64.1971081,39.7197674 L69.5452162,16.1601744"/>
    <path fill="#FFFFFE" d="M99.7227027,61.2805233 L81.9743243,57.1363372 C81.9743243,57.1363372 83.2064865,65.984593 89.6504324,67.6825581 C96.0943784,69.3857558 99.7227027,61.2805233 99.7227027,61.2805233"/>
    <path fill="#1D0F11" d="M69.2961622,80.6540698 C70.4287027,79.1366279 71.8915676,77.7997093 73.2285946,76.8447674 C73.2993784,77.2764535 73.0844054,79.4270349 72.990027,80.3322674 C72.3582162,80.9026163 72.0174054,81.5697674 71.4852162,82.2813953 C68.0718649,86.8546512 67.482,93.405814 69.7313514,101.751744 L67.0966216,102.45814 C64.6191892,93.2697674 65.3584865,85.9311047 69.2961622,80.6540698"/>
    <path fill="#FFFFFE" d="M68.8740811,137.568605 C69.1703243,138.463372 69.9987568,139.049419 70.7747568,138.861047 L75.9367297,137.613081 L76.0415946,137.573837 C76.7704054,137.330523 77.161027,136.43314 76.911973,135.525291 C76.6524324,134.572965 75.8004054,133.960756 74.9955676,134.15436 L72.5600811,134.737791 C71.8155405,134.918314 71.0264324,134.374128 70.7878649,133.513372 C68.9737027,127.215988 67.2067297,119.424709 66.6692973,113.286919 C66.3153784,109.388663 66.4726757,106.175872 67.4269459,104.436047 C67.8437838,103.659012 68.3995676,103.295349 69.1755676,103.253488 C71.0683784,103.180233 73.3885135,105.634302 75.7610811,109.349419 C79.0145135,114.485174 82.3597027,122.027907 84.7558649,128.67064 C85.0101622,129.379651 84.768973,130.13314 84.2105676,130.42093 L81.5076757,131.778779 C80.771,132.137209 80.4904865,133.173256 80.9047027,134.078488 C81.3110541,134.965407 82.2391081,135.397093 82.9757838,135.025581 C83.7806216,134.617442 84.5802162,134.232849 85.3719459,133.829942 C86.3996216,133.309302 88.1534865,132.681395 88.5467297,131.339244 C88.7066486,130.815988 88.4628378,130.232558 88.2819459,129.70407 C88.0145405,128.86686 87.7182973,128.0375 87.4037027,127.20814 C86.0561892,123.464244 84.5723514,119.764826 82.8918919,116.159593 C81.5941892,113.381105 80.1994865,110.607849 78.5714595,108.03343 C77.8636216,106.900581 77.1217027,105.825291 76.3221081,104.794477 C74.3611351,102.277616 71.6844595,99.6063953 68.7246486,99.734593 C67.0415676,99.8130814 65.6888108,100.694767 64.7895946,102.324709 C63.3293514,104.959302 63.2087568,109.451453 63.7278378,114.388372 C64.7476486,124.202035 68.2842162,135.70843 68.8740811,137.568605"/>
    <path fill="#1D0F11" d="M63.7278378,114.388372 L66.6692973,113.286919 C66.3153784,109.388663 66.4726757,106.175872 67.4269459,104.436047 C67.8437838,103.659012 68.3995676,103.295349 69.1755676,103.253488 C71.0683784,103.180233 73.3885135,105.634302 75.7610811,109.349419 L78.5714595,108.03343 C77.8636216,106.900581 77.1217027,105.825291 76.3221081,104.794477 C74.3611351,102.277616 71.6844595,99.6063953 68.7246486,99.734593 C67.0415676,99.8130814 65.6888108,100.694767 64.7895946,102.324709 C63.3293514,104.959302 63.2087568,109.451453 63.7278378,114.388372"/>
    <path fill="#ED9D8C" d="M202.138973,431.381977 L204.815649,431.164826 L214.216784,430.421802 L215.39127,430.327616 C215.39127,430.327616 215.39127,429.40407 215.283784,428.014826 C215.249703,427.546512 215.199892,427.007558 215.142216,426.445058 C215.042595,425.665407 214.914135,424.815116 214.730622,423.951744 C214.374081,422.083721 213.807811,420.155523 212.908595,418.693023 C212.019865,417.243605 211.298919,412.07907 210.758865,405.049128 C210.410189,400.410465 210.124432,394.971221 209.917324,389.254651 C209.547676,379.312791 209.400865,368.518023 209.463784,359.651453 L209.463784,338.590407 L197.44627,346.965116 C197.44627,346.965116 195.283432,358.727907 194.850865,365.200581 C194.659486,368.096802 195.427622,378.834012 196.329459,389.843314 C196.869514,396.410174 197.44627,403.071221 197.912919,408.212209 C198.405784,413.732558 198.767568,417.505233 198.767568,417.505233 C198.767568,417.505233 196.581135,420.058721 193.230703,422.682849 C190.973486,424.446221 188.199811,426.240988 185.187568,427.305814 C177.721189,429.96657 181.645757,432.423256 202.138973,431.381977"/>
    <path fill="#E67868" d="M197.912919,408.212209 L197.912919,408.212209 C197.776595,406.710465 197.632405,405.080523 197.480351,403.361628 L210.598946,402.820058 C210.651378,403.581395 210.703811,404.324419 210.758865,405.049128 C207.180351,406.019767 202.319865,407.2625 197.912919,408.212209"/>
    <path fill="#1D0F11" d="M215.372919,423.776453 C215.372919,423.776453 203.216459,427.755814 192.389162,422.261628 C192.389162,422.261628 183.651297,427.188081 177.763135,427.946802 C171.872351,428.702907 171.680973,433.443605 175.671081,434.202326 L216.321946,434.202326 C216.321946,434.202326 218.411378,430.693895 215.372919,423.776453"/>
    <path fill="#6F2E2F" d="M173.057324,434.981977 L216.702081,434.981977 C217.084838,434.981977 217.391568,434.675872 217.391568,434.296512 C217.391568,433.919767 217.084838,433.611047 216.702081,433.611047 L173.057324,433.611047 C172.677189,433.611047 172.370459,433.919767 172.370459,434.296512 C172.370459,434.675872 172.677189,434.981977 173.057324,434.981977"/>
    <path fill="#ED9D8C" d="M214.216784,430.421802 C214.793541,430.722674 215.716351,430.960756 217.003568,431.151744 C220.230784,431.65407 225.775514,431.800581 233.952351,431.381977 L247.20727,430.327616 C247.20727,430.327616 247.20727,427.235174 246.546622,423.951744 C246.184838,422.083721 245.621189,420.155523 244.721973,418.693023 C243.846351,417.277616 243.149,412.270058 242.608946,405.431105 C242.247162,400.855233 241.958784,395.460465 241.743811,389.772674 C241.361054,379.684302 241.216865,368.672384 241.274541,359.651453 L245.731297,349.17064 L229.257027,346.965116 C229.257027,346.965116 227.096811,358.727907 226.664243,365.200581 C226.472865,368.146512 227.267216,379.205523 228.190027,390.395349 C228.716973,396.862791 229.29373,403.369477 229.739405,408.390116 C230.229649,413.816279 230.578324,417.505233 230.578324,417.505233 C230.578324,417.505233 228.394514,420.058721 225.044081,422.682849 C222.789486,424.446221 220.015811,426.240988 217.003568,427.305814 L216.615568,427.452326 C216.114838,427.630233 215.669162,427.823837 215.283784,428.014826 C213.375243,428.925291 212.945297,429.775581 214.216784,430.421802"/>
    <path fill="#E67868" d="M229.739405,408.390116 L229.739405,408.390116 C229.597838,406.781105 229.440541,405.022965 229.278,403.160174 L242.380865,402.302035 C242.45427,403.379942 242.530297,404.426453 242.608946,405.431105 C238.524459,406.448837 233.650865,407.610465 229.739405,408.390116"/>
    <path fill="#1D0F11" d="M247.186297,423.776453 C247.186297,423.776453 235.029838,427.755814 224.202541,422.261628 C224.202541,422.261628 215.464676,427.188081 209.576514,427.946802 C203.68573,428.702907 203.496973,433.443605 207.487081,434.202326 L248.137946,434.202326 C248.137946,434.202326 250.224757,430.693895 247.186297,423.776453"/>
    <path fill="#6F2E2F" d="M204.873324,434.981977 L248.518081,434.981977 C248.898216,434.981977 249.204946,434.675872 249.204946,434.296512 C249.204946,433.919767 248.898216,433.611047 248.518081,433.611047 L204.873324,433.611047 C204.493189,433.611047 204.186459,433.919767 204.186459,434.296512 C204.186459,434.675872 204.493189,434.981977 204.873324,434.981977"/>
    <path fill="#FFFFFE" d="M250.235243,401.786628 L224.553838,403.468895 L219.732676,363.70407 L217.478081,327.531395 L215.551189,327.544477 L214.586432,353.097674 L214.400297,375.825291 L217.082216,402.550581 L190.818811,403.636337 L187.832784,356.812791 L186.653054,318.68314 L186.868027,315.93343 L186.868027,315.902035 L187.174757,312.050872 L224.21827,312.906395 L224.21827,312.827907 L244.968405,312.265407 L249.377973,312.142442 C249.377973,312.142442 249.590324,312.69186 249.789568,313.623256 C249.991432,314.525872 250.174946,315.77907 250.159216,317.231105 C250.143486,318.405814 249.991432,319.706105 249.590324,321.050872 L249.393703,321.678779 C249.055514,322.563081 248.628189,323.481395 248.059297,324.368314 L247.663432,349.476744 L247.417,365.629651 L250.235243,401.786628"/>
    <path fill="#54ACA4" d="M250.159216,317.231105 C250.159216,317.173547 250.159216,317.118605 250.159216,317.061047 C250.159216,315.682267 249.983568,314.489244 249.789568,313.623256 C249.792189,313.623256 249.792189,313.623256 249.794811,313.623256 C249.991432,314.525872 250.182811,315.784302 250.159216,317.231105"/>
    <path fill="#BEBEB9" d="M235.588243,321.529651 C217.339135,321.529651 196.242946,319.643314 186.653054,318.68314 L186.868027,315.93343 L186.870649,315.902035 L187.908811,315.902035 L187.924541,315.93343 C187.924541,315.93343 190.276135,315.964826 194.237405,315.964826 C197.383351,315.964826 201.546486,315.946512 206.346676,315.87064 C210.785081,315.826163 215.627216,315.734593 219.777243,315.535756 C221.232243,315.472965 222.716081,315.412791 224.202541,315.35 C225.825324,315.289826 227.479568,315.213953 229.131189,315.135465 L237.386676,314.800581 L238.566405,314.756105 L243.390189,314.264244 C241.688757,316.446221 239.633405,319.167151 238.068297,321.51657 C237.24773,321.524419 236.421919,321.529651 235.588243,321.529651"/>
    <path fill="#FFFFFE" d="M253.066595,313.259593 C251.981243,313.377326 250.89327,313.500291 249.789568,313.623256 C248.795973,313.714826 247.786649,313.822093 246.758973,313.913663 L243.390189,314.264244 L238.566405,314.756105 L237.386676,314.800581 L229.131189,315.135465 C227.479568,315.213953 225.825324,315.289826 224.202541,315.35 C222.716081,315.412791 221.232243,315.472965 219.777243,315.535756 C215.627216,315.734593 210.785081,315.826163 206.346676,315.87064 C195.503649,316.038081 187.924541,315.93343 187.924541,315.93343 L187.908811,315.902035 L183.910838,315.902035 C183.910838,315.902035 184.353892,298.647674 186.988622,263.743895 C189.623351,228.821802 192.656568,228.562791 192.656568,228.562791 C196.990108,225.920349 203.452405,221.378488 209.361541,220.614535 L216.07027,220.159302 L217.708784,220.036337 L220.112811,219.622965 C228.150703,220.708721 235.197622,223.215116 240.296676,225.520058 C241.306,225.980523 242.226189,226.422674 243.083459,226.836047 C246.806162,228.714535 248.963757,230.184884 248.963757,230.184884 C250.770054,240.867151 250.662568,245.511047 250.098919,250.492442 C250.235243,256.66686 246.606919,270.925581 248.413216,276.275872 C250.295541,281.853779 251.629946,294.689244 252.37973,303.673547 C252.835892,309.193895 253.066595,313.259593 253.066595,313.259593"/>
    <path fill="#ED9D8C" d="M224.053108,221.255523 L218.969784,229.967733 C216.036189,235.412209 211.810135,239.00436 211.810135,239.00436 L208.396784,223.678198 L208.326,223.356395 L208.150351,222.545349 L208.737595,220.857849 L210.916162,214.64157 L210.845378,209.207558 L210.811297,206.29564 L219.250297,206.211919 L222.815703,206.180523 L222.841919,206.596512 L222.852405,206.834593 L223.371486,215.65407 L223.395081,215.871221 C223.431784,216.161628 223.513054,216.601163 223.631027,217.100872 C223.948243,218.610465 224.477811,220.682558 224.053108,221.255523"/>
    <path fill="#E67868" d="M208.396784,223.678198 L208.396784,223.678198 L208.326,223.356395 L208.150351,222.545349 L208.737595,220.857849 L210.916162,214.64157 L210.845378,209.207558 L210.811297,206.29564 L219.250297,206.211919 L222.815703,206.180523 L222.841919,206.596512 L222.852405,206.834593 L223.371486,215.65407 L223.395081,215.871221 C219.543919,218.649709 214.410784,221.731686 208.396784,223.678198"/>
    <path fill="#8D4940" d="M244.451946,159.011628 C243.421649,156.845349 241.673027,154.231686 238.812838,152.515407 C233.163243,149.124709 207.130541,146.351453 201.439,140.650581 C201.439,140.650581 192.300027,154.140116 199.944676,163.011919 L205.374054,158.540698 C202.579405,163.668605 200.628919,170.771802 200.628919,170.771802 L201.853216,175.682558 L241.332216,188.141279 L246.690811,185.935756 C250.764811,172.603198 249.558865,164.432558 244.451946,159.011628"/>
    <path fill="#ED9D8C" d="M200.06527,179.986337 C200.06527,179.986337 200.240919,175.410465 196.505108,174.884593 C192.769297,174.356105 191.046892,187.034593 198.463459,188.586047 L200.06527,179.986337"/>
    <path fill="#E67868" d="M198.188189,186.9875 C198.188189,186.9875 196.164297,184.884012 196.279649,184.30843 C196.397622,183.735465 197.509189,182.989826 197.509189,182.989826 C197.509189,182.989826 196.439568,182.822384 195.82873,181.807267 C195.217892,180.792151 194.73027,178.934593 196.208865,178.518605 C196.316351,178.489826 196.421216,178.476744 196.528703,178.476744 C197.878838,178.476744 199.071676,180.755523 199.071676,180.755523 L198.188189,186.9875"/>
    <path fill="#ED9D8C" d="M241.332216,188.141279 C241.332216,188.141279 243.982676,183.434593 248.900838,185.158721 C253.819,186.880233 247.972784,200.668023 237.89527,197.753488 L241.332216,188.141279"/>
    <path fill="#E67868" d="M239.240162,196.314535 L242.06627,189.517442 C242.06627,189.517442 243.890919,188.52064 245.474378,188.52064 C246.038027,188.52064 246.572838,188.648837 246.981811,188.99157 C248.536432,190.299709 246.772081,191.874709 245.385243,192.528779 C244.821595,192.793023 244.252703,192.871512 243.775568,192.871512 C243.078216,192.871512 242.577486,192.70407 242.577486,192.70407 C242.577486,192.70407 243.476703,194.119477 243.259108,194.768314 C243.041514,195.422384 239.240162,196.314535 239.240162,196.314535"/>
    <path fill="#ED9D8C" d="M201.203054,168.78343 C200.896324,169.714826 200.64727,170.703779 200.558135,171.695349 C200.107216,176.59564 193.149432,191.741279 196.127595,201.502616 C199.22373,211.685174 204.021297,220.517733 219.963378,216.070058 C234.164703,212.098547 239.900811,199.299709 241.576027,194.375872 C242.152784,192.659593 242.899946,189.431105 243.586811,185.969767 C244.913351,179.528488 246.132405,172.25 246.132405,172.25 C246.132405,172.25 228.955541,146.181395 204.537757,162.669186 C204.537757,162.669186 202.351324,165.374419 201.203054,168.78343"/>
    <path fill="#E78378" d="M216.282622,192.452907 C215.975892,193.598837 213.744892,194.001744 211.309405,193.347674 C208.868676,192.693605 207.143649,191.231105 207.453,190.082558 C207.762351,188.936628 209.99073,188.536337 212.426216,189.190407 C214.866946,189.844477 216.591973,191.30436 216.282622,192.452907"/>
    <path fill="#8D4940" d="M205.769919 171.44157C205.478919 171.326453 205.224622 171.111919 205.072568 170.811047 204.742243 170.159593 204.999162 169.364244 205.651946 169.034593 207.238027 168.228779 210.913541 167.684593 213.464378 171.384012 213.878595 171.98314 213.729162 172.807267 213.123568 173.22064 212.523216 173.631395 211.700027 173.484884 211.283189 172.880523 209.393 170.141279 206.957514 171.336919 206.852649 171.389244 206.503973 171.567151 206.108108 171.575 205.769919 171.44157M226.06127 178.497674C225.775514 178.369477 225.531703 178.139244 225.395378 177.83314 225.093892 177.168605 225.390135 176.383721 226.056027 176.085465 227.678811 175.355523 231.375297 174.981395 233.750486 178.793314 234.135865 179.413372 233.944486 180.229651 233.323162 180.614244 232.704459 180.998837 231.886514 180.810465 231.501135 180.187791 229.742027 177.364826 227.251486 178.445349 227.146622 178.495058 226.787459 178.654651 226.394216 178.644186 226.06127 178.497674"/>
    <path fill="#1D0F11" d="M208.443973 181.796802C208.137243 181.788953 207.880324 181.56657 207.85673 181.276163L207.835757 180.98314C207.804297 180.48343 207.772838 180.0125 207.647 179.567733 207.557865 179.261628 207.332405 178.696512 206.831676 178.400872 206.572135 178.246512 206.247054 178.178488 205.942946 178.2125 205.678162 178.241279 205.397649 178.343314 205.088297 178.521221 204.448622 178.884884 203.919054 179.426453 203.593973 180.049128 203.449784 180.323837 203.080135 180.436337 202.783892 180.305523 202.482405 180.169477 202.353946 179.837209 202.498135 179.5625 202.928081 178.740988 203.596595 178.05814 204.438135 177.57936 204.902162 177.315116 205.342595 177.160756 205.785649 177.10843 206.380757 177.037791 206.981108 177.168605 207.487081 177.469477 208.11627 177.840988 208.590784 178.487209 208.821486 179.293023 208.976162 179.842442 209.015486 180.39186 209.049568 180.920349L209.070541 181.210756C209.094135 181.51686 208.839838 181.778488 208.50427 181.796802L208.443973 181.796802M227.862324 188.792733C227.555595 188.761337 227.314405 188.523256 227.314405 188.232849L227.314405 187.937209C227.314405 187.4375 227.314405 186.963953 227.220027 186.511337 227.154486 186.2 226.968351 185.621802 226.491216 185.289535 226.242162 185.119477 225.922324 185.027907 225.615595 185.043605 225.348189 185.056686 225.065054 185.137791 224.739973 185.292151 224.079324 185.611337 223.513054 186.113663 223.143405 186.710174 222.980865 186.977035 222.603351 187.063372 222.317595 186.911628 222.026595 186.757267 221.92173 186.414535 222.08427 186.152907 222.571892 185.365407 223.287595 184.727035 224.157973 184.30843 224.642973 184.075581 225.093892 183.952616 225.534324 183.934302 226.132054 183.902907 226.727162 184.072965 227.206919 184.407849 227.809892 184.821221 228.237216 185.498837 228.412865 186.320349 228.528216 186.880233 228.528216 187.429651 228.528216 187.960756L228.528216 188.248547C228.530838 188.554651 228.260811 188.800581 227.925243 188.795349L227.862324 188.792733"/>
    <path fill="#8D4940" d="M200.615811,171.148547 C200.933027,169.973837 201.399676,168.283721 201.604162,167.760465 C201.924,166.931105 202.19927,165.855814 202.19927,165.855814 C202.19927,165.855814 197.357135,164.777907 196.505108,174.884593 C196.505108,174.884593 197.171,174.957849 197.67173,175.334593 C197.855243,175.564826 197.983703,175.847384 198.033514,176.135174 C198.138378,176.723837 198.002054,177.325581 197.863108,177.906395 C197.448892,179.65407 196.709595,181.448837 197.171,183.248837 L197.275865,183.452907 L197.700568,183.319477 C198.353351,182.573837 198.458216,180.988372 198.717757,180.05436 C199.082162,178.740988 199.441324,177.427616 199.80573,176.111628 C200.081,175.125291 200.351027,174.133721 200.476865,173.115988 C200.552892,172.469767 200.573865,171.805233 200.615811,171.148547"/>
    <path fill="#FFFFFE" d="M202.427351,192.222674 C202.427351,192.222674 209.484757,200.092442 221.562568,197.494477 C221.562568,197.494477 216.827919,206.735174 208.265703,203.632267 C199.700865,200.534593 202.427351,192.222674 202.427351,192.222674"/>
    <path fill="#8D4940" d="M234.442595,152.18314 C227.712892,149.645349 222.123595,149.331395 217.769081,149.90436 C215.524973,149.990698 209.534568,150.746802 204.440757,156.021221 L203.604459,156.110174 L203.444541,157.125291 C201.106054,159.898547 199.034973,163.731395 197.721541,169.034593 L200.681351,167.896512 L201.294811,166.44186 C202.180919,165.711919 203.059162,164.762209 203.903324,163.74186 C217.470216,169.413953 227.254108,167.61657 232.916811,165.251453 C232.447541,167.836337 231.758054,174.421512 235.748162,178.735756 C236.53727,179.586047 236.804676,180.797384 237.208405,181.885756 C238.306865,184.852616 237.968676,187.863953 237.481054,190.90407 C237.329,191.859012 237.292297,192.829651 237.258216,193.797674 C237.245108,194.158721 237.24773,194.564244 237.509892,194.815407 C237.677676,194.980233 237.92673,195.037791 238.165297,195.050872 C240.821,195.197384 242.105595,192.18343 242.719054,190.166279 C243.059865,189.043895 243.287946,187.890116 243.476703,186.733721 C243.61827,185.872965 243.445243,185.449128 244.147838,185.103779 C244.884514,184.742733 246.142892,184.80814 246.966081,184.682558 C247.14173,184.26657 247.283297,183.8375 247.424865,183.40843 C248.122216,181.281395 248.601973,179.081105 248.913946,176.867733 C249.076486,175.732267 249.37273,174.350872 249.291459,173.142151 C249.545757,169.2125 248.974243,157.661628 234.442595,152.18314"/>
    <path fill="#ED9D8C" d="M113.098216,213.618605 L106.344919,229.169767 C106.344919,229.169767 50.4991351,202.190698 45.7592432,193.496802 C42.9226486,188.324419 39.2890811,172.297093 36.809027,160.178488 C35.1338108,151.945058 33.9829189,145.511628 33.9829189,145.511628 L55.6978108,150.657849 C55.6978108,150.657849 56.4371081,153.467733 57.414973,157.465407 C59.257973,164.848547 61.9634865,176.315698 62.5585946,181.684302 C63.4945135,189.951744 113.098216,213.618605 113.098216,213.618605"/>
    <path fill="#E67868" d="M36.809027,160.178488 L36.809027,160.178488 C35.1338108,151.945058 33.9829189,145.511628 33.9829189,145.511628 L55.6978108,150.657849 C55.6978108,150.657849 56.4371081,153.467733 57.414973,157.465407 C52.8166486,158.200581 44.1181081,159.668314 36.809027,160.178488"/>
    <path fill="#00A999" d="M59.8714324,145.406977 C60.186027,145.318023 55.0109459,119.490116 50.9185946,110.424709 C46.8288649,101.361919 43.1428649,97.4061047 40.6497027,97.3511628 C35.3199459,97.2360465 28.6636486,103.49157 27.3187568,112.452326 C25.9843514,121.342442 30.0216486,157.203779 30.0216486,157.203779 L61.4627568,154.338953 L59.8714324,145.406977"/>
    <path fill="#ED9D8C" d="M134.296649,223.858721 C134.514243,222.152907 132.511324,220.036337 130.361595,218.28343 C131.441703,216.022965 129.493838,213.639535 129.493838,213.639535 L124.515378,211.300581 C124.515378,211.300581 122.124459,210.774709 120.546243,210.727616 C118.965405,210.680523 115.903351,211.156686 114.80227,211.538663 C113.701189,211.92064 111.307649,212.778779 111.307649,212.778779 L111.184432,212.831105 C110.652243,212.802326 110.135784,212.726453 109.697973,212.556395 C108.038486,211.92064 101.403162,210.392733 101.403162,210.392733 L95.7876486,220.198547 C95.7876486,220.198547 96.7261892,222.283721 101.539486,228.87936 C101.964189,229.481105 102.404622,230.085465 102.858162,230.70814 C104.740486,233.306105 107.716027,235.108721 110.46873,236.652326 C112.170162,237.607267 113.92927,238.428779 115.683135,239.273837 C117.051622,239.93314 118.005892,241.094767 119.702081,240.550581 C120.700919,240.226163 121.508378,239.360174 121.757432,238.345058 C123.56373,238.661628 125.508973,237.416279 125.978243,235.647674 C126.161757,234.938663 126.201081,234.080523 126.817162,233.685465 C127.084568,233.515407 127.41227,233.473547 127.721622,233.402907 C129.271,233.036628 130.542486,231.697093 130.825622,230.132558 C130.885919,229.810756 130.906892,229.478488 131.040595,229.182849 C131.216243,228.793023 131.564919,228.513081 131.89,228.235756 C132.401216,227.796221 132.899324,227.301744 133.289946,226.749709 C133.71727,226.150581 134.021378,225.480814 134.086919,224.748256 L134.081676,224.690698 C134.178676,224.434302 134.257324,224.164826 134.296649,223.858721"/>
    <path fill="#DAD9D3" d="M131.478405,209.35407 L129.640649,212.561628 L127.299541,216.627326 C126.977081,216.444186 126.641514,216.245349 126.271865,216.030814 C125.980865,215.847674 125.676757,215.664535 125.367405,215.468314 L127.865811,211.125291 L129.517432,208.236919 L130.377324,208.726163 L131.478405,209.35407"/>
    <path fill="#A9ACA8" d="M127.299541,216.627326 C127.071459,216.499128 126.840757,216.363081 126.594324,216.219186 C126.489459,216.156395 126.381973,216.093605 126.274486,216.028198 L128.660162,211.784593 C128.974757,212.043605 129.307703,212.310465 129.640649,212.561628 L127.299541,216.627326"/>
    <polyline fill="#54ACA4" points="131.478 209.354 130.377 208.726 129.517 208.237 131.478 209.354"/>
    <path fill="#A9ACA8" d="M128.660162,211.784593 C128.38227,211.556977 128.114865,211.331977 127.865811,211.125291 L129.517432,208.236919 L130.377324,208.726163 L131.478405,209.35407 L130.377324,208.726163 L128.660162,211.784593"/>
    <path fill="#848A88" d="M129.640649,212.561628 C129.307703,212.310465 128.974757,212.043605 128.660162,211.784593 L130.377324,208.726163 L131.478405,209.35407 L129.640649,212.561628"/>
    <path fill="#DA2A6C" d="M151.342432,205.992151 C147.069189,213.448547 137.557946,216.030814 130.099432,211.768895 C122.627811,207.50436 120.04027,198.015116 124.310892,190.556105 C127.283811,185.375872 132.794459,182.563372 138.383757,182.746512 C139.015568,182.762209 139.657865,182.838081 140.284432,182.945349 C140.958189,183.036919 141.616216,183.191279 142.274243,183.390116 C143.058108,183.617733 143.83673,183.90814 144.589135,184.274419 C144.922081,184.426163 145.244541,184.611919 145.569622,184.795058 C145.902568,184.993895 146.227649,185.190116 146.547486,185.420349 C147.771784,186.215698 148.846649,187.178488 149.764216,188.264244 L149.777324,188.279942 C153.838216,193.138372 154.679757,200.199709 151.342432,205.992151"/>
    <path fill="#FFFFFE" d="M150.592649,199.312791 C150.422243,201.588953 149.932,203.867733 148.859757,205.897965 C147.803243,207.917733 146.104432,209.675872 143.988784,210.560174 C143.026649,210.942151 142.014703,211.172384 140.973919,211.279651 C138.063919,211.630233 135.046432,211.219477 132.398595,209.97936 C129.748135,208.74186 127.467324,206.646221 126.148649,204.048256 C124.326622,200.443023 124.418378,195.995349 126.132919,192.34564 C127.850081,188.690698 131.095649,185.849419 134.849811,184.303198 C136.564351,183.602035 138.415216,183.128488 140.284432,182.945349 C140.958189,183.036919 141.616216,183.191279 142.274243,183.390116 C143.058108,183.617733 143.83673,183.90814 144.589135,184.274419 L143.988784,184.44186 C141.692243,184.687791 139.395703,184.886628 137.175189,185.467442 C132.888838,186.553198 128.969514,189.410174 127.344108,193.611919 C126.088351,196.86657 126.240405,200.67064 127.802892,203.79186 C128.615595,205.427035 129.811054,206.907849 131.402378,207.826163 C132.123324,208.236919 132.901946,208.543023 133.667459,208.788953 C137.896135,210.225291 142.688459,210.102326 145.858,206.586047 C147.91073,204.294186 148.982973,200.97936 148.830919,197.936628 C148.739162,196.225581 148.385243,194.498837 147.572541,192.97093 C146.762459,191.458721 145.446405,190.174128 143.807892,189.624709 C142.719919,189.255814 141.537568,189.224419 140.407649,189.315988 C137.377054,189.53314 134.126243,190.67907 132.686973,193.520349 C132.015838,194.82064 131.876892,196.317151 131.908351,197.769186 C131.952919,199.571802 132.382865,201.573256 133.898162,202.551744 C135.030703,203.315698 136.564351,203.284302 137.772919,202.643314 C138.984108,202.033721 139.857108,200.869477 140.329,199.5875 C140.819243,198.271512 140.803514,196.59186 139.733892,195.676163 C138.845162,194.943605 137.358703,195.01686 136.564351,195.856686 C135.764757,196.699128 135.796216,198.182558 136.577459,199.022384 C136.823892,199.265698 137.162081,199.543023 137.067703,199.890988 C136.273351,200.029651 135.444919,199.511628 135.046432,198.794767 C134.647946,198.090988 134.603378,197.219767 134.695135,196.408721 C134.818351,195.322965 135.277135,194.14564 136.286459,193.611919 C136.991676,193.24564 137.880405,193.292733 138.661649,193.413081 C139.272486,193.504651 139.870216,193.674709 140.407649,193.965116 C143.485432,195.72064 143.026649,201.222674 140.467946,203.177035 L139.870216,203.577326 C138.019351,204.663081 135.292865,205.319767 133.376459,204.139826 C132.519189,203.6375 131.876892,202.82907 131.402378,201.97093 C129.517432,198.517442 130.206919,193.949419 132.794459,190.998256 C135.400351,188.049709 139.642135,186.765116 143.498541,187.468895 C144.371541,187.62064 145.244541,187.882267 146.041514,188.29564 C147.926459,189.255814 149.258243,191.074128 149.960838,193.0625 C150.650324,195.063953 150.757811,197.20407 150.592649,199.312791"/>
    <path fill="#E67868" d="M128.838432,217.65814 C124.116892,217.65814 122.648784,213.542733 122.648784,213.542733 C123.56373,214.332849 124.913865,215.211919 126.146027,215.952326 C126.187973,215.978488 126.229919,216.004651 126.271865,216.030814 C126.381973,216.096221 126.489459,216.159012 126.594324,216.219186 C128.004757,217.051163 129.160892,217.652907 129.160892,217.652907 C129.050784,217.655523 128.945919,217.65814 128.838432,217.65814"/>
    <path fill="#C7A198" d="M126.271865,216.030814 L126.271865,216.030814 C126.229919,216.004651 126.187973,215.978488 126.146027,215.952326 C126.187973,215.978488 126.232541,216.004651 126.274486,216.028198 L126.271865,216.030814"/>
    <path fill="#9B817A" d="M126.594324,216.219186 C126.489459,216.159012 126.381973,216.096221 126.271865,216.030814 L126.274486,216.028198 C126.381973,216.093605 126.489459,216.156395 126.594324,216.219186"/>
    <path fill="#DAD9D3" d="M114.603027,238.755814 L113.897811,239.99593 L110.958973,245.113372 L110.164622,244.655523 L108.998,243.998837 L112.091514,238.617151 L112.584378,237.761628 C112.964514,237.960465 113.34727,238.146221 113.730027,238.32936 C114.021027,238.481105 114.312027,238.617151 114.603027,238.755814"/>
    <polyline fill="#A9ACA8" points="110.959 245.113 110.165 244.656 113.124 239.405 113.898 239.996 110.959 245.113"/>
    <path fill="#006F5B" d="M114.603027,238.755814 C114.364459,238.643314 114.125892,238.530814 113.889946,238.410465 C114.125892,238.528198 114.364459,238.643314 114.603027,238.755814"/>
    <path fill="#C37E6E" d="M113.407568,238.172384 C113.132297,238.038953 112.857027,237.905523 112.584378,237.761628 C112.857027,237.900291 113.132297,238.036337 113.407568,238.172384"/>
    <path fill="#A9ACA8" d="M113.124432,239.404651 L112.091514,238.617151 L112.584378,237.761628 C112.857027,237.905523 113.132297,238.038953 113.407568,238.172384 C113.515054,238.227326 113.619919,238.279651 113.727405,238.331977 L113.124432,239.404651"/>
    <path fill="#848A88" d="M113.897811,239.99593 L113.124432,239.404651 L113.727405,238.331977 C113.782459,238.35814 113.834892,238.384302 113.889946,238.410465 C114.125892,238.530814 114.364459,238.643314 114.603027,238.755814 L113.897811,239.99593"/>
    <path fill="#BEBEB9" d="M247.663432,349.476744 C243.573703,348.545349 239.486595,345.413663 239.486595,341.818895 C239.486595,337.237791 242.026946,324.750291 242.026946,324.750291 C242.026946,324.750291 238.393378,327.225291 236.613297,327.225291 C236.036541,327.225291 235.656405,326.966279 235.656405,326.278198 C235.656405,325.43314 236.663108,323.625291 238.068297,321.51657 C242.144919,321.474709 246.04327,321.330814 249.590324,321.050872 L249.393703,321.678779 C249.055514,322.563081 248.628189,323.481395 248.059297,324.368314 L247.663432,349.476744"/>
    <path fill="#949996" d="M238.068297,321.51657 C239.633405,319.167151 241.688757,316.446221 243.390189,314.264244 L246.758973,313.913663 C247.786649,313.822093 248.795973,313.714826 249.789568,313.623256 C249.983568,314.489244 250.159216,315.682267 250.159216,317.061047 C250.159216,317.118605 250.159216,317.173547 250.159216,317.231105 C250.143486,318.405814 249.991432,319.706105 249.590324,321.050872 C246.04327,321.330814 242.144919,321.474709 238.068297,321.51657"/>
    <path fill="#BEBEB9" d="M243.390189,314.264244 C243.972189,313.531686 244.509622,312.843605 244.968405,312.265407 C245.962,311.025291 246.620027,310.229942 246.620027,310.229942 L243.557973,269.735174 L239.727784,269.735174 C239.727784,269.735174 236.421919,255.476453 235.137324,244.27093 C233.863216,233.054942 241.140838,227.17093 241.140838,227.17093 C241.140838,227.17093 241.890622,227.047965 243.083459,226.836047 C246.806162,228.714535 248.963757,230.184884 248.963757,230.184884 C250.077946,236.777907 250.465946,241.071221 250.463324,244.561337 C250.463324,246.727616 250.313892,248.585174 250.098919,250.492442 C250.101541,250.612791 250.101541,250.738372 250.101541,250.863953 C250.096297,255.92907 247.902,265.724419 247.907243,272.15 C247.909865,273.790407 248.054054,275.20843 248.413216,276.275872 C250.295541,281.853779 251.629946,294.689244 252.37973,303.673547 C252.835892,309.193895 253.066595,313.259593 253.066595,313.259593 C251.981243,313.377326 250.89327,313.500291 249.789568,313.623256 C248.795973,313.714826 247.786649,313.822093 246.758973,313.913663 L243.390189,314.264244"/>
    <path fill="#ED9D8C" d="M244.585649,342.742442 C244.585649,342.742442 242.753135,342.907267 242.100351,341.476163 C241.447568,340.045058 244.113757,330.576744 244.113757,330.576744 C244.997243,327.497384 246.027541,323.962791 246.027541,323.962791 C246.027541,323.962791 244.163568,325.420058 242.134432,326.668023 C241.059568,327.327326 239.937514,327.09186 239.119568,326.720349 C238.466784,326.424709 238.309486,325.569186 238.807595,325.053779 C239.890324,323.94186 241.70973,322.000581 242.905189,320.402035 C244.701,318.005523 247.899378,314.842442 247.899378,314.842442 L257.064568,307.365116 C257.064568,307.365116 258.503838,310.904942 260.939324,317.000872 C262.931757,321.990116 260.194784,333.797384 259.13827,337.912791 C259.009811,338.415116 257.816973,341.209302 257.476162,342.038663 C256.314784,344.872093 253.986784,344.061047 253.986784,344.061047 C253.986784,344.061047 253.192432,345.361337 251.480514,345.455523 C249.768595,345.552326 249.024054,344.095058 249.024054,344.095058 L247.922973,344.785756 C245.980351,345.63343 244.585649,342.742442 244.585649,342.742442"/>
    <path fill="#ED9D8C" d="M245.094243,260.949709 L248.795973,282.34564 L250.709757,322.971221 L261.429568,322.971221 L263.065459,281.526744 C263.081189,281.139535 263.054973,280.754942 262.989432,280.372965 L259.261486,258.786047 L245.094243,260.949709"/>
    <path fill="#FFFFFE" d="M242.441162,265.562209 C242.252405,264.790407 242.063649,263.927035 241.87227,262.927616 L241.188027,260.222384 C240.925865,260.238081 236.18073,244.17936 236.864973,237.910756 C237.546595,231.636919 239.179865,227.552907 241.132973,227.178779 C243.088703,226.809884 250.101541,229.297965 253.514892,234.35 C256.90727,239.365407 262.153135,259.215116 262.153135,259.215116 C262.153135,259.215116 262.415297,260.329651 262.748243,262.087791 C258.047676,262.90407 248.992595,264.447674 242.441162,265.562209"/>
  </g>
</svg>
