<svg xmlns="http://www.w3.org/2000/svg" width="192" height="48" viewBox="0 0 192 48">
  <defs>
    <linearGradient id="logo-light-a" x1="49.98%" x2="49.98%" y1=".006%" y2="100.009%">
      <stop offset="0%" stop-color="#55ADC9"/>
      <stop offset="100%" stop-color="#83C058"/>
    </linearGradient>
    <linearGradient id="logo-light-b" x1=".07%" x2="100.021%" y1="50.005%" y2="50.005%">
      <stop offset="0%" stop-color="#55ADC9"/>
      <stop offset="100%" stop-color="#83C058"/>
    </linearGradient>
  </defs>
  <g fill="none" transform="translate(.28)">
    <path fill="#FFF" d="M118.24693,32.8799973 C117.719584,32.8799973 117.329939,32.6749212 117.077985,32.2647629 C116.826031,31.8546046 116.700055,31.3507034 116.700055,30.7530441 L116.700055,30.5596848 C116.700055,29.9503067 116.811382,29.4698428 117.03404,29.1182785 C117.303572,28.6964014 117.707865,28.485466 118.24693,28.485466 L119.477399,28.485466 C120.192246,28.485466 120.67271,28.4122245 120.918805,28.2657394 C121.1649,28.1192543 121.287946,27.9288266 121.287946,27.6944504 C121.287946,25.0577184 121.522319,23.1768779 121.991071,22.0518723 C122.49498,20.8096785 123.256691,19.8692583 124.276227,19.2305832 C125.295764,18.5919081 126.52622,18.2725754 127.967634,18.2725754 C130.123894,18.2725754 131.761573,18.9258892 132.880719,20.2325363 C133.999866,21.5391835 134.553571,23.4229537 134.541852,25.8839035 C134.541852,28.2276652 133.991077,30.020616 132.889509,31.2628098 C131.78794,32.5050035 130.176628,33.126091 128.055524,33.126091 C126.121921,33.1143722 124.557483,32.6339082 123.362165,31.6846848 C122.518411,32.4815637 121.23522,32.8799973 119.512555,32.8799973 L118.24693,32.8799973 Z M128.020368,22.6319504 C127.61021,22.6319504 127.26158,22.6846842 126.974469,22.7901535 C126.687359,22.8956228 126.444197,23.065543 126.244977,23.2999191 C126.045758,23.5342953 125.893415,23.8448391 125.787946,24.2315598 C125.682477,24.6182804 125.629743,25.0870257 125.629743,25.6378098 C125.606305,26.786253 125.787944,27.6065573 126.174665,28.0987473 C126.561385,28.5909372 127.188332,28.8370285 128.055524,28.8370285 C128.805528,28.8487473 129.362163,28.611445 129.725446,28.1251144 C130.088729,27.6387839 130.270368,26.8096906 130.270368,25.6378098 C130.270368,24.5479606 130.088729,23.7745308 129.725446,23.3174973 C129.362163,22.8604637 128.793809,22.6319504 128.020368,22.6319504 Z M118.422712,32.8799973 L117.086774,32.8799973 C115.012545,32.8799973 113.436389,32.2589097 112.358259,31.016716 C111.280128,29.7745223 110.741071,27.9932901 110.741071,25.672966 L110.741071,9.44835663 L114.942243,9.44835663 L114.942243,25.6905441 C114.942243,26.3819538 115.024273,26.9327296 115.188337,27.3428879 C115.3524,27.7530462 115.589702,28.046012 115.900251,28.2217941 C116.210799,28.3975763 116.623881,28.485466 117.139509,28.485466 L118.422712,28.485466 C118.668807,28.485466 118.868023,28.5440592 119.020368,28.6612473 C119.160994,28.7901541 119.260602,28.971793 119.319196,29.2061691 C119.37779,29.4405453 119.412946,29.6397621 119.424665,29.8038254 C119.436384,29.9561699 119.442243,30.1671053 119.442243,30.4366379 L119.442243,30.7530441 C119.442243,31.3272657 119.401228,31.7608552 119.319196,32.0538254 C119.166851,32.6046094 118.868026,32.8799973 118.422712,32.8799973 Z M101.758649,27.6241379 C103.528189,27.6241379 104.899269,28.0020638 105.87193,28.7579269 C106.844591,29.5137901 107.330915,30.6299899 107.330915,32.1065598 L107.330915,32.6163254 C107.330915,35.3116514 106.42565,37.3448341 104.615094,38.7159348 C102.804539,40.0870354 100.176635,40.7725754 96.7313054,40.7725754 L95.2547429,40.7725754 C91.6687874,40.7725754 88.9442053,39.8995372 87.0809148,38.1534348 C85.2176242,36.4073323 84.2859929,33.8350924 84.2859929,30.4366379 L84.2859929,22.5967941 L88.5926335,22.5967941 L88.5926335,30.4190598 C88.5926335,32.4464136 89.1316906,33.943469 90.209821,34.9102707 C91.2879514,35.8770724 92.9812938,36.360466 95.2898991,36.360466 L96.8895085,36.360466 C99.0574881,36.360466 100.630715,36.0704298 101.609235,35.4903488 C102.587756,34.9102678 103.077009,34.0577373 103.077009,32.9327316 L103.077009,32.7217941 C103.077009,32.4405427 102.989119,32.2354666 102.813337,32.1065598 C102.637554,31.9776529 102.280136,31.9132004 101.741071,31.9132004 L98.9109929,31.9132004 C97.7625496,31.9132004 96.8719335,31.6085159 96.2391179,30.9991379 C95.6063022,30.3897598 95.2898991,29.522581 95.2898991,28.3975754 L95.2898991,27.2549973 C95.2898991,26.2940549 95.3602109,25.4122278 95.5008366,24.6094894 C95.6414623,23.8067511 95.8611867,23.0714068 96.1600163,22.4034348 C96.4588459,21.7354627 96.8367718,21.1436717 97.2938054,20.6280441 C98.6414684,19.1163178 100.645355,18.360466 103.305524,18.360466 L107.330915,18.360466 L107.330915,18.9757004 L107.348493,22.2276535 L107.348493,22.8428879 L102.567243,22.8428879 C101.594582,22.8428879 100.862167,23.1768689 100.369977,23.844841 C99.8777873,24.5128131 99.6199774,25.6143646 99.5965398,27.1495285 L99.5789616,27.6241379 L101.758649,27.6241379 Z M60.3632813,32.8799973 C59.8359349,32.8799973 59.4462903,32.6749212 59.1943359,32.2647629 C58.9423816,31.8546046 58.8164063,31.3507034 58.8164063,30.7530441 L58.8164063,30.5596848 C58.8164063,29.9503067 58.9277333,29.4698428 59.1503906,29.1182785 C59.4199232,28.6964014 59.8242161,28.485466 60.3632813,28.485466 L61.59375,28.485466 C62.3085973,28.485466 62.7890613,28.4122245 63.0351563,28.2657394 C63.2812512,28.1192543 63.4042969,27.9288266 63.4042969,27.6944504 C63.4042969,25.0577184 63.6386695,23.1768779 64.1074219,22.0518723 C64.6113306,20.8096785 65.3730418,19.8692583 66.3925781,19.2305832 C67.4121145,18.5919081 68.6425709,18.2725754 70.0839844,18.2725754 C72.2402452,18.2725754 73.8779241,18.9258892 74.9970703,20.2325363 C76.1162165,21.5391835 76.6699219,23.4229537 76.6582031,25.8839035 C76.6582031,28.2276652 76.1074274,30.020616 75.0058594,31.2628098 C73.9042914,32.5050035 72.2929794,33.126091 70.171875,33.126091 C68.2382716,33.1143722 66.6738341,32.6339082 65.4785156,31.6846848 C64.6347614,32.4815637 63.3515711,32.8799973 61.6289063,32.8799973 L60.3632813,32.8799973 Z M70.1367188,22.6319504 C69.7265604,22.6319504 69.3779311,22.6846842 69.0908203,22.7901535 C68.8037095,22.8956228 68.5605479,23.065543 68.3613281,23.2999191 C68.1621084,23.5342953 68.0097662,23.8448391 67.9042969,24.2315598 C67.7988276,24.6182804 67.7460938,25.0870257 67.7460938,25.6378098 C67.7226561,26.786253 67.9042949,27.6065573 68.2910156,28.0987473 C68.6777363,28.5909372 69.3046832,28.8370285 70.171875,28.8370285 C70.9218788,28.8487473 71.4785138,28.611445 71.8417969,28.1251144 C72.2050799,27.6387839 72.3867188,26.8096906 72.3867188,25.6378098 C72.3867188,24.5479606 72.2050799,23.7745308 71.8417969,23.3174973 C71.4785138,22.8604637 70.9101601,22.6319504 70.1367188,22.6319504 Z M60.5214844,32.8799973 L60.2402344,32.8799973 C58.1308488,32.8799973 56.2734455,32.0245371 54.6679688,30.313591 C53.5429631,32.0245371 51.2402518,32.8799973 47.7597656,32.8799973 L40.4824219,32.8799973 L40.4824219,28.485466 L47.8388672,28.485466 C47.9384771,28.485466 48.0351558,28.4796067 48.1289063,28.4678879 C48.7734407,28.4444503 49.3242165,28.3887868 49.78125,28.3008957 C50.2382835,28.2130046 50.5839832,28.0958183 50.8183594,27.9493332 C51.0527355,27.8028481 51.2197261,27.6475762 51.3193359,27.4835129 C51.4189458,27.3194496 51.46875,27.1319514 51.46875,26.9210129 C51.4570312,26.5928862 51.3222669,26.1944527 51.0644531,25.7257004 C50.9238274,25.4796054 50.7480479,25.2100768 50.5371094,24.9171066 C50.3261708,24.6241364 50.0800795,24.3135926 49.7988281,23.985466 L45,18.4307785 L44.6484375,18.0264816 L45.0175781,17.6221848 L47.1796875,15.2491379 L47.6542969,14.7217941 L48.09375,15.266716 L57.515625,26.6221848 C58.5468802,27.8643785 59.4960894,28.485466 60.3632813,28.485466 L60.5214844,28.485466 C60.7675794,28.485466 60.9667961,28.5469888 61.1191406,28.6700363 C61.2714851,28.7930838 61.3740232,28.971793 61.4267578,29.2061691 C61.4794925,29.4405453 61.5117187,29.6368324 61.5234375,29.7950363 C61.5351563,29.9532402 61.5410156,30.1671053 61.5410156,30.4366379 L61.5410156,30.7530441 C61.5410156,31.3155469 61.5000004,31.7491364 61.4179688,32.0538254 C61.3828123,32.1827323 61.3388675,32.2969889 61.2861328,32.3965988 C61.2333982,32.4962087 61.1396491,32.6016764 61.0048828,32.7130051 C60.8701165,32.8243337 60.7089853,32.8799973 60.5214844,32.8799973 Z M32.6953125,38.0303879 L34.2949219,36.4132004 C34.8222683,35.8975728 35.3144508,35.8682762 35.7714844,36.3253098 L37.4765625,38.0303879 C37.9687525,38.5225778 37.9570338,39.0323384 37.4414063,39.5596848 L35.8242188,41.1592941 C35.3320288,41.6514841 34.8398462,41.6514841 34.3476563,41.1592941 L32.625,39.454216 C32.1796853,39.0089013 32.2031225,38.5342966 32.6953125,38.0303879 Z M26.4199219,38.0303879 L28.0371094,36.4132004 C28.552737,35.885854 29.0390602,35.8565574 29.4960938,36.3253098 L31.2011719,38.0303879 C31.6933618,38.5225778 31.6816432,39.0323384 31.1660156,39.5596848 L29.5488281,41.1592941 C29.0566382,41.6514841 28.5644556,41.6514841 28.0722656,41.1592941 L26.3671875,39.454216 C25.910154,38.9971825 25.9277319,38.5225778 26.4199219,38.0303879 Z M26.5957031,32.8799973 C26.0683567,32.8799973 25.6787122,32.6749212 25.4267578,32.2647629 C25.1748034,31.8546046 25.0488281,31.3507034 25.0488281,30.7530441 L25.0488281,30.5596848 C25.0488281,29.9737443 25.1748034,29.4815617 25.4267578,29.0831223 C25.6787122,28.6846828 26.0683567,28.485466 26.5957031,28.485466 L30.6914063,28.485466 C31.7343802,28.485466 32.4843727,28.2686713 32.9414063,27.8350754 C33.3984398,27.4014795 33.6269531,26.6925022 33.6269531,25.7081223 L33.6269531,19.9249191 L37.9160156,19.9249191 L37.9160156,25.7257004 C37.9160156,28.0460245 37.3007874,29.8184677 36.0703125,31.0430832 C34.8398376,32.2676987 33.0527461,32.8799973 30.7089844,32.8799973 L26.5957031,32.8799973 Z M22.7285156,25.9717941 C24.1699291,27.6241461 25.3769483,28.4620284 26.3496094,28.485466 L26.7890625,28.485466 C26.9765634,28.4971848 27.1376946,28.5499187 27.2724609,28.6436691 C27.4072272,28.7374196 27.5097653,28.8428873 27.5800781,28.9600754 C27.650391,29.0772635 27.7001952,29.2413243 27.7294922,29.4522629 C27.7587892,29.6632014 27.7763672,29.830192 27.7822266,29.9532394 C27.788086,30.0762869 27.7910156,30.2432774 27.7910156,30.454216 L27.7910156,31.3243332 C27.7910156,31.4239431 27.7822267,31.5645667 27.7646484,31.7462082 C27.7470702,31.9278497 27.714844,32.0743326 27.6679688,32.1856613 C27.6210935,32.29699 27.5625004,32.4141763 27.4921875,32.5372238 C27.4218746,32.6602713 27.3251959,32.7481611 27.2021484,32.8008957 C27.0791009,32.8536303 26.9355477,32.8799973 26.7714844,32.8799973 L26.5078125,32.8799973 C24.1992072,32.8799973 22.1836024,31.8721948 20.4609375,29.8565598 C19.3242131,31.8721948 16.916034,32.8799973 13.2363281,32.8799973 L7.50585938,32.8799973 C6.97851299,32.8799973 6.58886845,32.6749212 6.33691406,32.2647629 C6.08495968,31.8546046 5.95898438,31.3507034 5.95898438,30.7530441 L5.95898438,30.5596848 C5.95898438,29.9503067 6.07031139,29.4698428 6.29296875,29.1182785 C6.57422016,28.6964014 6.97851299,28.485466 7.50585938,28.485466 L13.2714844,28.485466 C14.642585,28.485466 15.6123018,28.3331238 16.1806641,28.0284348 C16.7490263,27.7237457 17.0390624,27.2960156 17.0507813,26.7452316 C17.0507813,26.6632 17.0156254,26.543084 16.9453125,26.3848801 C16.8749996,26.2266761 16.7724616,26.0303891 16.6376953,25.7960129 C16.502929,25.5616367 16.3125012,25.2833192 16.0664063,24.9610519 C15.8203113,24.6387847 15.5449234,24.2960147 15.2402344,23.9327316 L9.59765625,17.516716 C8.94140297,16.7667123 8.61914057,15.8292216 8.63085938,14.704216 C8.63085938,14.2940577 8.68652288,13.9132021 8.79785156,13.5616379 C8.90918024,13.2100736 9.07031145,12.8936705 9.28125,12.6124191 C9.49218855,12.3311677 9.74999848,12.0850764 10.0546875,11.8741379 C10.3593765,11.6631993 10.7050762,11.4932791 11.0917969,11.3643723 L22.078125,7.7432785 L22.8867188,7.47960663 L22.8867188,11.9444504 L22.4472656,12.0850754 L13.3066406,15.0733566 L22.7285156,25.9717941 Z M7.68164063,32.8799973 L6.34570313,32.8799973 C4.271474,32.8799973 2.69531789,32.2589097 1.6171875,31.016716 C0.539057109,29.7745223 1.13686838e-13,27.9932901 1.13686838e-13,25.672966 L1.13686838e-13,9.44835663 L4.20117188,9.44835663 L4.20117188,25.6905441 C4.20117188,26.3819538 4.2832023,26.9327296 4.44726563,27.3428879 C4.61132895,27.7530462 4.84863126,28.046012 5.15917969,28.2217941 C5.46972812,28.3975763 5.88280992,28.485466 6.3984375,28.485466 L7.68164063,28.485466 C7.92773561,28.485466 8.12695236,28.5440592 8.27929688,28.6612473 C8.41992258,28.7901541 8.51953096,28.971793 8.578125,29.2061691 C8.63671904,29.4405453 8.67187494,29.6397621 8.68359375,29.8038254 C8.69531256,29.9561699 8.70117188,30.1671053 8.70117188,30.4366379 L8.70117188,30.7530441 C8.70117188,31.3272657 8.66015666,31.7608552 8.578125,32.0538254 C8.42578049,32.6046094 8.12695535,32.8799973 7.68164063,32.8799973 Z"/>
    <g transform="translate(143.72)">
      <path fill="url(#logo-light-a)" d="M22.8887029,0.0614509246 C25.7138075,-0.0614509246 28.5589958,0.293598862 31.2635983,1.16073969 C36.2376569,2.7311522 40.6828452,6.00170697 43.6887029,10.344239 C46.3732218,14.1883357 47.8995816,18.8654339 47.9531381,23.5903272 C48.0267782,26.8881935 47.3841004,30.1997155 46.1121339,33.2312945 C44.083682,38.0995733 40.4217573,42.2099573 35.8962343,44.7908962 C33.3456067,46.2657183 30.5205021,47.2421053 27.6217573,47.6790896 C24.3146444,48.1775249 20.907113,47.9863442 17.6803347,47.1055477 C14.0117155,46.1018492 10.5774059,44.1968706 7.76569038,41.5886202 C3.92970711,38.058606 1.26527197,33.2108108 0.394979079,28.0147937 C-0.10041841,25.0719772 -0.0535564854,22.0403983 0.555648536,19.1180654 C1.11799163,16.3869132 2.16903766,13.7581792 3.63514644,11.4025605 C6.4,6.92347084 10.6443515,3.42759602 15.5046025,1.59772404 C17.8543933,0.689615932 20.3648536,0.184352774 22.8887029,0.0614509246 Z M22.2192469,1.09246088 C18.1556485,1.39288762 14.1790795,2.80625889 10.81841,5.16187767 C8.58912134,6.71180654 6.64100418,8.67140825 5.08117155,10.9177809 C3.46778243,13.2460882 2.28284519,15.888478 1.62008368,18.6605974 C1.0376569,21.0708393 0.883682008,23.5766714 1.08451883,26.0483642 C1.52635983,31.2921764 3.86276151,36.344808 7.52468619,40.0455192 C10.4970711,43.1248933 14.339749,45.2961593 18.4502092,46.3135135 C22.0920502,47.2079659 25.9481172,47.201138 29.5899582,46.2998578 C32.4485356,45.5829303 35.1799163,44.3129445 37.5698745,42.5581792 C39.451046,41.1857752 41.1179916,39.5129445 42.5171548,37.6352774 C44.1037657,35.484495 45.3154812,33.0469417 46.0719665,30.4728307 C47.0962343,26.9837838 47.2569038,23.2421053 46.5874477,19.6711238 C46.1723849,17.4725462 45.4225941,15.3490754 44.3916318,13.3758179 C42.3230126,9.40881935 39.0828452,6.10412518 35.2200837,3.94651494 C32.6627615,2.51266003 29.8376569,1.58406828 26.9389121,1.21536273 C25.3790795,1.0173542 23.7924686,0.983214794 22.2192469,1.09246088 Z"/>
      <path fill="#55ADC9" d="M17.4794979,4.85462304 C17.8343096,4.65661451 18.2493724,4.69075391 18.6443515,4.69075391 C21.9715481,4.69075391 25.2987448,4.69075391 28.6259414,4.69075391 C29.2753138,4.68392603 29.8979079,5.12091038 30.125523,5.73541963 C30.2794979,6.11095306 30.2393305,6.52745377 30.2460251,6.92347084 C30.2460251,9.15618777 30.2460251,11.3820768 30.2460251,13.6147937 C30.2460251,14.3522048 30.2861925,15.1032717 30.0518828,15.8133713 C29.7439331,16.8853485 28.9874477,17.7934566 28.0368201,18.3396871 C23.7322176,20.8864865 20.0970711,24.6076814 17.6200837,29.0184922 C16.990795,30.172404 15.7322176,30.916643 14.4401674,30.9302987 C11.58159,30.9302987 8.72301255,30.9302987 5.86443515,30.9302987 C5.241841,30.9302987 4.63263598,30.5342817 4.37824268,29.9539118 C4.19748954,29.5852063 4.2376569,29.1687055 4.2376569,28.7726885 C4.2376569,25.6113798 4.2376569,22.4432432 4.2376569,19.2819346 C4.2376569,18.8859175 4.2041841,18.4694168 4.37824268,18.1007112 C4.63263598,17.5135135 5.241841,17.1174964 5.86443515,17.1174964 C9.1916318,17.1174964 12.5188285,17.1174964 15.8460251,17.1174964 C16.0870293,17.1174964 16.3280335,17.1379801 16.5623431,17.0901849 C16.5690377,13.5192034 16.5623431,9.94822191 16.5623431,6.37041252 C16.5422594,5.74907539 16.9104603,5.12091038 17.4794979,4.85462304 Z"/>
      <path fill="url(#logo-light-b)" d="M37.4627615,17.3018492 C39.5514644,17.144808 41.6468619,17.2130868 43.7422594,17.199431 C42.7313808,19.0770982 41.2117155,20.6201991 39.5246862,21.8765292 C36.6527197,23.9590327 33.2987448,25.3382646 29.8242678,25.9118065 C29.4627615,25.9937411 29.0811715,25.9527738 28.739749,26.0961593 C29.4292887,26.1371266 30.1121339,26.0210526 30.7882845,25.9459459 C33.3322176,25.5772404 35.8158996,24.7715505 38.0786611,23.542532 C40.5087866,22.2179232 42.7246862,20.3539118 44.1573222,17.9300142 C44.1974895,17.8753912 44.2376569,17.8207681 44.2778243,17.772973 C44.2376569,20.1012802 43.6217573,22.4432432 42.423431,24.4301565 C41.6267782,25.7547653 40.5623431,26.915505 39.3305439,27.830441 C37.6301255,29.1209104 35.6351464,29.9470839 33.5799163,30.4318634 C31.2769874,30.9917496 28.8937238,30.9849218 26.5372385,31.1487909 C24.8167364,31.2648649 23.0694561,31.3877667 21.409205,31.886202 C20.6393305,32.1320057 19.8694561,32.4733997 19.2736402,33.0537696 C18.7112971,33.5863442 18.3364017,34.3169275 18.1824268,35.0816501 C18.0820084,35.5664296 18.0753138,36.0716927 18.0619247,36.5633001 C18.0485356,38.0244666 18.0753138,39.4788051 18.0619247,40.9399716 C18.0619247,41.0970128 18.0552301,41.2813656 18.1824268,41.3974395 C18.2828452,41.5066856 18.4368201,41.4930299 18.5707113,41.4998578 C21.6970711,41.4998578 24.823431,41.4998578 27.9497908,41.4998578 C28.1573222,41.5203414 28.3983264,41.370128 28.3916318,41.1379801 C28.3916318,39.2261735 28.3916318,37.314367 28.3916318,35.4025605 C28.3782427,34.8358464 28.4050209,34.2418208 28.632636,33.716074 C28.9138075,33.0742532 29.5230126,32.56899 30.2125523,32.4733997 C30.2594142,33.5385491 30.2192469,34.6036984 30.232636,35.6688478 C30.232636,37.4645804 30.232636,39.2671408 30.232636,41.0628734 C30.2393305,41.7388336 29.9246862,42.4147937 29.3891213,42.8244666 C28.9941423,43.1317212 28.4987448,43.3024182 28.0033473,43.3024182 C24.7899582,43.3024182 21.576569,43.3024182 18.3564854,43.3024182 C17.2585774,43.3024182 16.2343096,42.3465149 16.2209205,41.2130868 C16.2142259,39.8201991 16.2209205,38.4341394 16.2142259,37.0412518 C16.2209205,36.3584637 16.1874477,35.6688478 16.274477,34.9860597 C16.4887029,33.6273115 17.0376569,32.3504979 17.6736402,31.1487909 C18.8050209,29.0594595 20.2242678,27.1476529 21.7774059,25.3655761 C23.0158996,23.9863442 24.3213389,22.6617354 25.7807531,21.5283073 C27.7690377,19.9578947 30.0585774,18.797155 32.4887029,18.1348506 C34.1221757,17.6842105 35.7891213,17.4315789 37.4627615,17.3018492 Z"/>
    </g>
  </g>
</svg>
