<svg xmlns="http://www.w3.org/2000/svg" width="50" height="50"><defs><linearGradient id="a" x1="49.98%" x2="49.98%" y1=".006%" y2="100.009%"><stop offset="0%" stop-color="#55ADC9"/><stop offset="100%" stop-color="#83C058"/></linearGradient><linearGradient id="b" x1=".07%" x2="100.021%" y1="50.005%" y2="50.005%"><stop offset="0%" stop-color="#55ADC9"/><stop offset="100%" stop-color="#83C058"/></linearGradient></defs><g fill="none"><path fill="url(#a)" d="M23.842.064c2.943-.128 5.907.242 8.724 1.145 5.182 1.636 9.812 5.043 12.943 9.566 2.796 4.005 4.386 8.876 4.442 13.798a24.655 24.655 0 0 1-1.918 10.043 25.067 25.067 0 0 1-10.641 12.041 24.579 24.579 0 0 1-8.62 3.009c-3.444.519-6.994.32-10.355-.598a24.932 24.932 0 0 1-10.328-5.747C4.093 39.644 1.318 34.595.411 29.182a25.1 25.1 0 0 1 .168-9.267 24.678 24.678 0 0 1 3.208-8.037c2.88-4.666 7.3-8.308 12.364-10.214 2.447-.946 5.062-1.472 7.691-1.6zm-.697 1.074a23.852 23.852 0 0 0-11.876 4.239 23.933 23.933 0 0 0-9.581 14.061c-.607 2.51-.767 5.121-.558 7.696.46 5.462 2.894 10.725 6.708 14.58 3.096 3.208 7.1 5.47 11.381 6.53 3.794.931 7.81.924 11.604-.015a23.91 23.91 0 0 0 8.312-3.898 24.362 24.362 0 0 0 5.154-5.128 24.008 24.008 0 0 0 3.703-7.46c1.067-3.635 1.234-7.532.537-11.252a23.666 23.666 0 0 0-2.288-6.558 24.08 24.08 0 0 0-9.553-9.822 23.823 23.823 0 0 0-8.627-2.845 25.23 25.23 0 0 0-4.916-.128z"/><path fill="#55ADC9" d="M18.208 5.057c.37-.206.802-.17 1.213-.17H29.82c.676-.008 1.325.447 1.562 1.087.16.392.118.825.125 1.238v6.97c0 .768.042 1.55-.202 2.29-.32 1.117-1.109 2.063-2.099 2.632-4.484 2.653-8.27 6.529-10.85 11.124a3.882 3.882 0 0 1-3.313 1.991H6.109a1.732 1.732 0 0 1-1.548-1.017c-.189-.384-.147-.818-.147-1.23v-9.887c0-.412-.035-.846.147-1.23.265-.612.9-1.024 1.548-1.024h10.397c.251 0 .502.021.746-.029.007-3.72 0-7.44 0-11.166-.02-.647.363-1.302.956-1.58z"/><path fill="url(#b)" d="M39.024 18.023c2.175-.164 4.358-.093 6.54-.107-1.052 1.956-2.635 3.563-4.392 4.872a23.908 23.908 0 0 1-10.105 4.203c-.377.086-.774.043-1.13.192.719.043 1.43-.078 2.134-.156a22.783 22.783 0 0 0 7.594-2.504c2.532-1.38 4.84-3.321 6.332-5.846.042-.057.084-.114.126-.163-.042 2.425-.684 4.864-1.932 6.934a12.393 12.393 0 0 1-3.222 3.542c-1.771 1.344-3.85 2.205-5.99 2.71-2.399.583-4.881.576-7.336.747-1.792.12-3.612.249-5.342.768-.802.256-1.604.611-2.224 1.216-.586.555-.977 1.316-1.137 2.112-.105.505-.112 1.032-.125 1.544-.014 1.522.013 3.037 0 4.559 0 .163-.007.355.125.476.105.114.265.1.404.107h9.77c.217.021.468-.135.46-.377v-5.974c-.013-.59.015-1.21.252-1.757.293-.669.927-1.195 1.645-1.295.05 1.11.007 2.22.021 3.329v5.619a2.31 2.31 0 0 1-.878 1.835c-.412.32-.928.498-1.444.498H19.121c-1.143 0-2.21-.996-2.224-2.177-.007-1.45 0-2.894-.007-4.345.007-.712-.028-1.43.063-2.141.223-1.416.795-2.746 1.457-3.997 1.179-2.177 2.657-4.168 4.275-6.025 1.29-1.436 2.65-2.816 4.17-3.997a19.63 19.63 0 0 1 6.987-3.535c1.702-.469 3.438-.732 5.182-.867z"/></g></svg>