<svg xmlns="http://www.w3.org/2000/svg" width="44" height="42"><g fill="none" fill-rule="evenodd"><path fill="#7D848C" fill-rule="nonzero" d="M37.469 35.036a2.846 2.846 0 0 0-1.452-2.112l-7.612-4.218a3.037 3.037 0 0 0-3.584.485l-2.673 2.633a1.591 1.591 0 0 1-2.039.157 48.526 48.526 0 0 1-5.364-4.581 48.23 48.23 0 0 1-4.65-5.286 1.534 1.534 0 0 1 .16-2.01l2.672-2.633a2.927 2.927 0 0 0 .492-3.532l-4.28-7.5a2.889 2.889 0 0 0-2.144-1.43 3.094 3.094 0 0 0-2.602.876l-2.82 2.777c-1.99 1.963-2.095 5.476-.294 9.893C3.002 22.78 6.28 27.403 10.51 31.57c4.231 4.169 8.922 7.4 13.21 9.097 2.124.841 4.041 1.26 5.683 1.26 1.824 0 3.309-.517 4.357-1.55L36.58 37.6a2.995 2.995 0 0 0 .889-2.564zm-1.897 1.571l-.493.485-6.488-3.487a.718.718 0 0 0-.967.28.697.697 0 0 0 .284.953l6.12 3.29-1.275 1.257c-1.54 1.517-4.638 1.51-8.5-.02-4.114-1.629-8.636-4.75-12.734-8.787-4.097-4.038-7.264-8.494-8.918-12.547-1.552-3.806-1.559-6.859-.02-8.375l1.276-1.258.683 1.233a.714.714 0 0 0 .966.28.697.697 0 0 0 .285-.953l-.883-1.595.493-.485A1.678 1.678 0 0 1 6.8 6.4c.468.064.867.33 1.095.728l4.281 7.5a1.533 1.533 0 0 1-.258 1.85l-1.272 1.253-3.337-6.029a.718.718 0 0 0-.967-.28.697.697 0 0 0-.285.953l3.539 6.391-.35.346a2.931 2.931 0 0 0-.295 3.84 49.656 49.656 0 0 0 4.785 5.44 49.943 49.943 0 0 0 5.522 4.716c1.178.863 2.853.738 3.897-.29l.35-.346 1.62.87a.717.717 0 0 0 .966-.28.697.697 0 0 0-.284-.953l-1.25-.672 1.27-1.253a1.591 1.591 0 0 1 1.878-.254l7.612 4.218c.405.225.674.618.739 1.08a1.615 1.615 0 0 1-.485 1.379z"/><path fill="#55ADC9" d="M22.25 16.61c.273 1.79.375 3.596.307 5.419-.005.207-.063.322-.175.346-.418.092-.748.157-.991.195 0-3.454-.593-6.417-1.779-8.89l1.094-1.4c.121-.149.223-.127.306.065.068.16.223.566.466 1.22.292.78.85 1.162 1.677 1.147.947-.02 1.506-.734 1.676-2.143l.037-.274 1.115.144-.015.202c-.102 2.704-1.018 4.072-2.748 4.106a3.323 3.323 0 0 1-.97-.137zm6.424-3.045c.263.683.59 1.169.984 1.457a.967.967 0 0 1-.05-.346c.004-.183.038-.426.101-.729a2.26 2.26 0 0 1 .59-1.09c.4-.423.922-.634 1.568-.634.787 0 1.431.303 1.932.909l-.357.815c-.433-.168-.822-.252-1.167-.252-.476 0-.867.16-1.173.483a1.296 1.296 0 0 0-.357.91c0 .177.119.326.357.447.252.13.602.194 1.05.194.65 0 1.217-.108 1.698-.324l.138 1.342a4.057 4.057 0 0 1-2.274.685c-.87 0-1.613-.197-2.23-.591.247 1.602.337 3.331.27 5.188-.006.207-.064.322-.176.346-.418.092-.748.157-.991.195 0-3.454-.593-6.417-1.779-8.89l1.094-1.4c.13-.163.233-.142.306.065l.466 1.22z"/><path fill="#7D848C" fill-rule="nonzero" d="M40.107 29.3l-1.389.274C42.091 26.346 44 21.93 44 17.254 44 7.78 36.177.072 26.562.072c-5.667 0-11 2.729-14.268 7.3a.696.696 0 0 0 .173.979.72.72 0 0 0 .993-.17c3-4.198 7.898-6.705 13.102-6.705 8.83 0 16.013 7.078 16.013 15.778 0 4.358-1.806 8.466-4.988 11.441l.317-1.565a.703.703 0 0 0-.559-.826.712.712 0 0 0-.838.55l-.76 3.746a.696.696 0 0 0 .194.635.718.718 0 0 0 .644.192l3.801-.75a.703.703 0 0 0 .56-.826.713.713 0 0 0-.84-.55z"/><path fill="#B3B7BC" fill-rule="nonzero" d="M26.562 3.068a.708.708 0 0 0-.713.702V5.27c0 .387.32.702.713.702a.708.708 0 0 0 .713-.702V3.77a.708.708 0 0 0-.713-.702zm13.684 13.484h-1.52a.708.708 0 0 0-.713.702c0 .388.32.703.713.703h1.52a.708.708 0 0 0 .713-.703.708.708 0 0 0-.713-.702zm-23.862-5.899l-1.317-.749a.718.718 0 0 0-.973.257.697.697 0 0 0 .26.96l1.317.748a.718.718 0 0 0 .974-.257.697.697 0 0 0-.261-.959zm22.385 12.735l-1.316-.75a.718.718 0 0 0-.974.258.697.697 0 0 0 .26.96l1.317.748a.718.718 0 0 0 .974-.257.696.696 0 0 0-.26-.96zM33.76 4.968a.718.718 0 0 0-.973.258l-.76 1.297a.697.697 0 0 0 .26.96.717.717 0 0 0 .974-.258l.76-1.297a.697.697 0 0 0-.26-.96zM20.836 27.027a.719.719 0 0 0-.973.257l-.76 1.297a.697.697 0 0 0 .26.96.718.718 0 0 0 .974-.258l.76-1.297a.697.697 0 0 0-.26-.96zM39.03 10.16a.718.718 0 0 0-.973-.257l-1.317.75a.697.697 0 0 0-.261.959.714.714 0 0 0 .974.257l1.316-.75a.697.697 0 0 0 .261-.959zM16.645 22.896a.718.718 0 0 0-.974-.257l-1.317.749a.697.697 0 0 0-.26.96.714.714 0 0 0 .973.256l1.317-.749a.697.697 0 0 0 .26-.96zm4.452-16.373l-.76-1.297a.718.718 0 0 0-.974-.257.697.697 0 0 0-.26.96l.76 1.297a.715.715 0 0 0 .973.257.697.697 0 0 0 .261-.96zM34.021 28.58l-.76-1.297a.718.718 0 0 0-.974-.257.697.697 0 0 0-.26.96l.76 1.297a.714.714 0 0 0 .973.257.697.697 0 0 0 .261-.96z"/></g></svg>