<svg width="158" height="47" xmlns="http://www.w3.org/2000/svg"><g fill="none"><path d="M5.84 46.667C2.57 46.667 0 44.1 0 40.833v-35C0 2.567 2.57 0 5.84 0h145.995c3.27 0 5.84 2.567 5.84 5.833v35c0 3.15-2.57 5.834-5.84 5.834H5.84z" fill="#7D848C"/><path d="M40.6 21.526v-4.642c0-.51.176-.946.53-1.302a1.752 1.752 0 0 1 1.292-.533c.487 0 .904.173 1.258.516a1.8 1.8 0 0 1 .563 1.252v8.512c0 .266.06.46.182.583.123.123.315.183.58.183h2.848c.553.023 1.004.21 1.358.566.355.356.52.803.497 1.335 0 .467-.166.876-.497 1.22a1.6 1.6 0 0 1-1.192.515 59.364 59.364 0 0 1-4.008 0c-.838-.023-1.583-.343-2.235-.969-.653-.622-1.034-1.358-1.143-2.204 0-.11-.006-.217-.016-.317s-.017-.206-.017-.316v-4.399zm-1.855 3.706v2.638c0 1.069-.354 1.961-1.06 2.67-.705.71-1.58 1.07-2.616 1.07h-3.676a1.85 1.85 0 0 1-1.11-.433 1.77 1.77 0 0 1-.613-1.036 2.042 2.042 0 0 1 .166-1.202c.175-.376.464-.646.861-.803a1.45 1.45 0 0 1 .414-.133 2.61 2.61 0 0 1 .414-.033c.464-.024.927-.034 1.391-.034h1.391c.308 0 .523-.056.646-.166.123-.11.182-.323.182-.633v-4.675c0-.443.126-.836.381-1.169a1.84 1.84 0 0 1 1.01-.67c.573-.133 1.087-.023 1.54.334.454.356.68.826.68 1.402v2.873zm-5.465-5.577v2.32s-.01.763-.033 2.288c0 .693-.291 1.21-.877 1.552-.587.343-1.176.36-1.772.05a1.782 1.782 0 0 1-.68-.633 1.929 1.929 0 0 1-.28-.902v-9.214c0-.423.115-.803.347-1.136.232-.333.546-.556.944-.67a1.706 1.706 0 0 1 1.59.267c.487.357.738.836.761 1.435v4.642zm5.465-2.771c0 .49-.175.92-.53 1.285-.354.367-.771.55-1.258.55-.507 0-.938-.177-1.292-.533a1.779 1.779 0 0 1-.53-1.302c0-.49.176-.92.53-1.285.354-.367.772-.55 1.259-.55.506 0 .937.177 1.291.533.355.356.53.792.53 1.302zM42.39 31.61c0 .51-.176.945-.53 1.302a1.71 1.71 0 0 1-1.259.532c-.507 0-.937-.176-1.292-.532a1.779 1.779 0 0 1-.53-1.302c0-.49.176-.913.53-1.27a1.752 1.752 0 0 1 1.292-.532c.507 0 .934.173 1.275.516.341.343.514.773.514 1.286zM27.783 18.619c-.024-.556-.265-1.01-.73-1.352-.463-.343-.96-.45-1.49-.316-.42.11-.755.326-1.01.652-.255.327-.38.72-.38 1.186a54.187 54.187 0 0 0-.017 2.354c.01.793.016 1.585.016 2.388 0 .243-.06.426-.182.55-.122.122-.314.182-.58.182h-2.914c-.066 0-.126.007-.182.017a.883.883 0 0 1-.15.017c-.44.066-.804.266-1.092.6-.288.332-.43.725-.43 1.168a1.77 1.77 0 0 0 .927 1.605h.016s.017.01.05.033c.023 0 .043.007.066.017l.1.05a1.913 1.913 0 0 0 .728.133c.222.024.454.033.696.033h.695c.44-.023.885-.026 1.325-.016.44.01.884-.007 1.325-.05.861-.067 1.606-.433 2.235-1.102.63-.67.954-1.436.978-2.305V18.62z" fill="#FFF"/><path d="M97.621 25.726a3.81 3.81 0 0 1-.587-.054 6.676 6.676 0 0 1-.673-.143 5.481 5.481 0 0 1-.617-.203 1.755 1.755 0 0 1-.427-.226l.369-.825a4.578 4.578 0 0 0 .984.396c.19.052.383.094.582.127.198.032.393.048.584.048.272 0 .53-.036.775-.11.244-.074.446-.206.604-.397a.715.715 0 0 0 .157-.558 2.05 2.05 0 0 0-.22-.693 4.617 4.617 0 0 0-.478-.745 8.039 8.039 0 0 0-1.257-1.294 3.672 3.672 0 0 0-.546-.378c.067-.144.127-.277.182-.399l.177-.388c.202.108.407.24.615.399a7.564 7.564 0 0 1 1.177 1.133c.18.215.343.437.49.663.147.227.275.453.384.68.108.226.188.446.24.658.025.119.044.243.055.372.01.13.008.257-.009.383a1.63 1.63 0 0 1-.093.37 1.09 1.09 0 0 1-.202.331c-.327.385-.78.639-1.362.761a2.8 2.8 0 0 1-.421.07 5.145 5.145 0 0 1-.483.022zm-3.799-3.258a37.028 37.028 0 0 1 .386 1.397 13.09 13.09 0 0 1 .188.838c.025.132.046.251.06.36 0 .042.003.086.009.131.005.045.008.098.008.16 0 .298-.045.59-.135.873-.09.284-.214.557-.372.818-.158.26-.347.51-.565.75a7.28 7.28 0 0 1-.714.676c-.258.212-.53.41-.82.591a9.892 9.892 0 0 1-.879.494l-.38-.756a9.273 9.273 0 0 0 1.12-.666c.36-.25.68-.521.959-.814.279-.293.503-.605.672-.936.17-.331.254-.675.254-1.03a1.06 1.06 0 0 0-.006-.108 5.077 5.077 0 0 0-.08-.548 10.909 10.909 0 0 0-.107-.48c-.04-.164-.083-.324-.127-.48a27.74 27.74 0 0 0-.237-.79 7.826 7.826 0 0 1-.072-.227l.838-.253zm-4.67 5.232l-.805.788-.816-.793.805-.793.816.798zm-1.486-2.81c.189-.001.395-.006.618-.014.248-.009.488-.036.72-.08a2.34 2.34 0 0 0 .625-.211.832.832 0 0 0 .394-.397v.006c.06-.119.089-.277.089-.475 0-.169-.026-.36-.078-.572a9.996 9.996 0 0 0-.198-.696 4.526 4.526 0 0 0-.108-.29l-.124-.306c-.04-.099-.08-.19-.118-.272a9.704 9.704 0 0 1-.091-.2l.783-.383.088.195a8.75 8.75 0 0 1 .256.614c.046.123.091.25.136.383.095.292.167.563.215.815.047.252.071.485.071.701 0 .317-.051.592-.154.826a2.019 2.019 0 0 1-1.323 1.084c-.096.029-.22.05-.37.065-.15.014-.306.025-.466.032a14.074 14.074 0 0 1-.79.016h-.85a.423.423 0 0 1-.336-.156 1.701 1.701 0 0 1-.623-.383 1.245 1.245 0 0 1-.262-.362 1.823 1.823 0 0 1-.133-.383 1.987 1.987 0 0 1-.046-.361 9.485 9.485 0 0 1-.006-.297v-.097a46.46 46.46 0 0 0 .011-2.373 39.92 39.92 0 0 0-.044-1.85 31.061 31.061 0 0 0-.052-.858 7.368 7.368 0 0 0-.075-.658l.86-.151c.033.19.06.415.083.674.022.259.04.537.052.836a46.05 46.05 0 0 1 .042 1.877 73.67 73.67 0 0 1 .008 1.899 20.39 20.39 0 0 1-.008.475v.237c-.004.173.003.324.022.456a.558.558 0 0 0 .176.337c.092.09.223.16.392.213.167.051.372.08.614.083zm3.444 2.82l-.8.788-.816-.798.805-.788.81.799zm-10.766-2.822a14.51 14.51 0 0 0 1.059-.05 5.749 5.749 0 0 0 1.025-.172c.293-.081.54-.188.745-.321.204-.133.376-.297.515-.491h-.849a3.24 3.24 0 0 1-.548-.046 2.759 2.759 0 0 1-.505-.135 2.244 2.244 0 0 1-.433-.216 1.518 1.518 0 0 1-.333-.288.599.599 0 0 1-.166-.24 1.868 1.868 0 0 1-.104-.354 2.195 2.195 0 0 1-.042-.399 2.212 2.212 0 0 1 .025-.377 3.28 3.28 0 0 1 .218-.729c.097-.223.214-.42.35-.593a1.63 1.63 0 0 1 .515-.448c.19-.1.387-.15.593-.15.452 0 .866.199 1.24.598.144.155.273.33.387.529.114.198.21.409.29.634a4.354 4.354 0 0 1 .245 1.443c0 .356-.056.67-.166.94-.11.272-.264.507-.46.705a2.477 2.477 0 0 1-.706.49c-.274.13-.575.233-.904.31-.33.078-.681.132-1.056.163a12.47 12.47 0 0 1-.816.04h-.43a.42.42 0 0 1-.201-.048c-.63-.103-1.112-.367-1.448-.793l-.005-.006c-.14-.162-.267-.4-.38-.717-1.034 1.053-2.58 1.58-4.638 1.58-1.099-.007-2.007-.133-2.723-.377-.717-.245-1.235-.631-1.555-1.16a2.206 2.206 0 0 1-.273-.647 2.846 2.846 0 0 1-.052-1.066c.018-.131.042-.254.071-.37a5.104 5.104 0 0 1 .364-1.03c.14.076.268.147.386.214.118.066.245.135.38.207a3.689 3.689 0 0 1-.099.216 2.87 2.87 0 0 0-.127.31c-.04.117-.076.243-.107.378a1.822 1.822 0 0 0-.047.412c0 .148.018.299.055.453.037.155.096.3.177.437.117.187.284.353.499.497.215.144.473.265.774.364.302.099.644.174 1.026.226.382.052.8.079 1.251.079.82 0 1.523-.072 2.11-.216.586-.144 1.072-.37 1.458-.68l-.006.006c.166-.13.31-.27.433-.421.123-.151.229-.308.317-.47.088-.161.164-.324.226-.488a7.14 7.14 0 0 0 .165-.482c.155.04.296.077.425.113.129.036.267.074.414.113a28.08 28.08 0 0 0-.105.432 2.54 2.54 0 0 0-.06.566c.007.162.032.333.076.512.044.18.129.344.254.491l-.006-.005c.27.33.697.506 1.282.527zm2.065-4.157a.555.555 0 0 0-.237.072 1.14 1.14 0 0 0-.29.222 1.64 1.64 0 0 0-.438.892v-.005a1.39 1.39 0 0 0-.022.18.929.929 0 0 0 .053.367c.02.056.05.106.09.149h-.005c.04.05.098.097.174.14.075.043.16.082.256.116a2.278 2.278 0 0 0 .629.127c.095.007.187.01.275.01h.254c.077 0 .166 0 .267-.002a4.71 4.71 0 0 0 .334-.019 3.938 3.938 0 0 0-.245-1.103 2.927 2.927 0 0 0-.224-.461 2.108 2.108 0 0 0-.275-.367v.005a1.352 1.352 0 0 0-.257-.215.711.711 0 0 0-.162-.079.55.55 0 0 0-.177-.03zm.64-2.822l-.81.793-.817-.798.81-.793.817.798zm-9.44 2.622l-.804.788-.816-.793.804-.793.817.798zm1.958.01l-.8.788-.816-.798.805-.788.81.799zM63.8 25.732a55.242 55.242 0 0 0 .105-3.16 43.937 43.937 0 0 0-.122-3.337 32.856 32.856 0 0 0-.165-1.654l.866-.13a.755.755 0 0 1 .017.121 3.5 3.5 0 0 0 .018.163c.01.067.02.152.03.256.026.205.048.427.067.664.018.237.037.493.055.766.018.266.033.526.044.78.011.253.02.49.028.709l.019.793a54.895 54.895 0 0 1-.014 2.398c-.015.53-.042 1.09-.083 1.68l-.865-.049zm-2.332-3.263a37.028 37.028 0 0 1 .386 1.397 13.09 13.09 0 0 1 .187.838 5.5 5.5 0 0 1 .06.36c0 .042.003.086.009.131.005.045.008.098.008.16 0 .298-.045.59-.135.873-.09.284-.214.557-.372.818-.158.26-.347.51-.565.75a7.168 7.168 0 0 1-.714.676c-.258.212-.53.41-.819.591a9.892 9.892 0 0 1-.88.494l-.38-.756a9.273 9.273 0 0 0 1.12-.666c.36-.25.68-.521.959-.814.28-.293.503-.605.672-.936.17-.331.254-.675.254-1.03a1.06 1.06 0 0 0-.005-.108 5.077 5.077 0 0 0-.08-.548 10.909 10.909 0 0 0-.108-.48c-.04-.164-.083-.324-.127-.48a27.74 27.74 0 0 0-.237-.79 7.826 7.826 0 0 1-.071-.227l.838-.253zm.352-2.325l-.81.793-.816-.799.81-.793.816.799z" fill="#F1F1F1"/><path d="M128.375 15.865a43.208 43.208 0 0 1 1.356 3.292c.881.088 1.455.162 1.465.162.57.052 1.144.126 1.701.198.748.097 1.523.197 2.288.24 1.202.067 1.93-.166 2.35-.755a.721.721 0 0 0-.034-.075c-.4-.819-2.084-2.557-9.126-3.062zm-4.473-7.054c-2.104 0-4.163 3.221-5.39 6.196.465-.045.953-.087 1.466-.12 1.116-2.266 2.49-4.182 3.924-4.182 1.427 0 2.827 1.906 3.985 4.16.526.032 1.028.07 1.506.113-1.277-2.962-3.391-6.167-5.491-6.167zm-13.265 10.188c-.013.029-.017.055-.027.084.427.534 1.137.738 2.285.673.761-.042 1.533-.142 2.278-.24.556-.07 1.133-.145 1.7-.197.014-.003.533-.068 1.34-.149a41.38 41.38 0 0 1 1.293-3.282c-6.936.54-8.517 2.288-8.869 3.11zm16.471-4.173c-1.028-1.959-2.168-3.477-3.206-3.477-1.042 0-2.155 1.528-3.15 3.49a65.764 65.764 0 0 1 3.334-.081h.038c1.072 0 2.062.026 2.984.068zm-2.984.9h-.035a60.96 60.96 0 0 0-3.81.11 43.64 43.64 0 0 0-1.316 3.263c1.421-.133 3.35-.275 5.079-.275 1.673 0 3.534.133 4.938.262a44.73 44.73 0 0 0-1.376-3.27 62.773 62.773 0 0 0-3.48-.09zm-14.433 2.913c.578-1.346 2.524-2.89 8.06-3.551.762-1.916 3.046-6.921 6.15-6.921 3.098 0 5.465 4.982 6.257 6.889 5.597.628 7.623 2.143 8.268 3.463.27.554.242.975.222 1.114-.02.301-.263 3.286-1.455 7.226-1.09 3.619-2.903 7.656-4.132 9.19-.963 1.198-2.78 2.422-8.972 2.422-6.188 0-8.005-1.224-8.968-2.422-1.226-1.528-3.042-5.565-4.139-9.187-1.185-3.937-1.427-6.918-1.451-7.229-.02-.13-.044-.498.16-.994z" fill="#FFF"/></g></svg>