<svg xmlns="http://www.w3.org/2000/svg" width="26" height="20"><path d="M10.059 0a.654.654 0 0 1 .468.195c.13.13.196.29.196.479a.65.65 0 0 1-.196.478L1.621 10.06l8.79 8.789a.64.64 0 0 1 .194.468.64.64 0 0 1-.195.47.65.65 0 0 1-.478.194.65.65 0 0 1-.479-.195L.195 10.527A.64.64 0 0 1 0 10.06a.64.64 0 0 1 .195-.47L9.59.196A.68.68 0 0 1 10.059 0zm5.605 0a.654.654 0 0 0-.468.195.65.65 0 0 0-.196.479.65.65 0 0 0 .196.478l8.906 8.907-8.79 8.789a.64.64 0 0 0-.194.468.64.64 0 0 0 .195.47c.13.13.29.194.478.194a.65.65 0 0 0 .479-.195l9.258-9.258a.64.64 0 0 0 .195-.468.64.64 0 0 0-.195-.47L16.133.196A.68.68 0 0 0 15.664 0z" fill-rule="evenodd"/></svg>