<svg xmlns="http://www.w3.org/2000/svg" width="42" height="42"><g fill="none"><path fill="#6D797B" d="M16.915 23.056a.7.7 0 1 0-1.387.188c.74 5.46-1.23 10.974-5.268 14.752a.7.7 0 0 0 .957 1.022c4.369-4.088 6.5-10.054 5.698-15.962zm-10.143.818a.74.74 0 0 0-.028-.096 14.79 14.79 0 0 1-.258-2.197.7.7 0 1 0-1.399.057c.035.839.138 1.684.304 2.515a.636.636 0 0 0 .027.094 6.93 6.93 0 0 1-2.335 6.56.7.7 0 0 0 .905 1.068 8.331 8.331 0 0 0 2.784-8.001zm3.934 5.575a.7.7 0 0 0-.906.399 12.07 12.07 0 0 1-3.596 4.96.7.7 0 1 0 .888 1.082 13.487 13.487 0 0 0 4.013-5.535.7.7 0 0 0-.399-.906zM4.2 9.609a.697.697 0 0 0 .978-.153 19.534 19.534 0 0 1 11.947-7.649 19.394 19.394 0 0 1 12.488 1.61.699.699 0 1 0 .616-1.256C26.051.109 21.423-.487 16.85.434A20.928 20.928 0 0 0 4.046 8.631a.7.7 0 0 0 .153.978zM1.808 24.877c-.004-.017-.015-.03-.02-.046-.871-4.374-.261-8.778 1.767-12.74a.7.7 0 1 0-1.246-.639c-2.182 4.261-2.834 9-1.886 13.702.006.026.02.047.028.072.057.276.117.55.184.821a.7.7 0 0 0 1.36-.335c-.068-.275-.131-.554-.187-.835z"/><path fill="#55ADC9" d="M17.85 5.402C11.363 6.71 6.44 11.766 5.306 18.283a.701.701 0 0 0 1.38.24C7.72 12.58 12.21 7.968 18.127 6.774c7.848-1.58 15.518 3.516 17.1 11.363a.61.61 0 0 0 .016.064c.126.635.236 1.264.325 1.87a.7.7 0 0 0 1.385-.204 39.112 39.112 0 0 0-.35-2.006.74.74 0 0 0-.018-.067C34.821 9.227 26.43 3.673 17.85 5.402z"/><path fill="#55ADC9" d="M26.664 19.863a5.744 5.744 0 0 0-2.468-3.674 5.75 5.75 0 0 0-4.343-.852 5.778 5.778 0 0 0-4.52 4.489.7.7 0 1 0 1.37.286 4.379 4.379 0 0 1 3.427-3.403 4.36 4.36 0 0 1 3.291.646 4.353 4.353 0 0 1 1.853 2.703.87.87 0 0 0 .012.084c.355 1.756.537 3.55.542 5.328a.7.7 0 0 0 .7.698h.001a.7.7 0 0 0 .699-.7 28.755 28.755 0 0 0-.552-5.515.792.792 0 0 0-.012-.09z"/><path fill="#6D797B" d="M21.687 20.867a.7.7 0 0 0-1.373.276c1.377 6.834-.475 13.759-5.081 19.002a.702.702 0 0 0 .525 1.162c.195 0 .388-.08.527-.238 4.897-5.574 6.866-12.937 5.402-20.202zm19.89-4.01c-.003-.022-.017-.038-.024-.059a20.891 20.891 0 0 0-8.5-12.968.699.699 0 1 0-.804 1.146 19.502 19.502 0 0 1 7.946 12.159c.003.019.014.034.02.052a19.72 19.72 0 0 1 .377 4.214.7.7 0 0 0 .687.714h.014a.7.7 0 0 0 .7-.687 21.196 21.196 0 0 0-.415-4.572z"/><path fill="#55ADC9" d="M31.632 18.862A10.776 10.776 0 0 0 27 11.968a10.782 10.782 0 0 0-8.15-1.598c-5.864 1.182-9.674 6.916-8.49 12.78.008.042.02.081.034.12.225 1.169.275 2.355.148 3.526a.7.7 0 0 0 .622.772.707.707 0 0 0 .77-.622 13.355 13.355 0 0 0-.19-4.075.696.696 0 0 0-.036-.116c-.955-5.067 2.351-9.99 7.42-11.013a9.387 9.387 0 0 1 7.097 1.393 9.39 9.39 0 0 1 4.026 5.96l.007.045c.778 3.856.851 7.765.217 11.616a.7.7 0 0 0 1.382.227 33.546 33.546 0 0 0-.217-12.075c-.002-.015-.004-.03-.008-.046z"/><path fill="#6D797B" d="M36.554 22.465a.7.7 0 0 0-.655.743 37.111 37.111 0 0 1-1.18 11.908.7.7 0 1 0 1.353.36 38.493 38.493 0 0 0 1.225-12.357.694.694 0 0 0-.743-.654zm-5.89 10.886a.697.697 0 0 0-.856.495 32.361 32.361 0 0 1-2.164 5.79.7.7 0 0 0 1.259.614 33.712 33.712 0 0 0 2.257-6.042.698.698 0 0 0-.495-.857zM26.43 27.99a.701.701 0 0 0-.775.616 27.328 27.328 0 0 1-4.589 12.282.7.7 0 1 0 1.155.79 28.719 28.719 0 0 0 4.825-12.913.7.7 0 0 0-.616-.775z"/></g></svg>