<svg xmlns="http://www.w3.org/2000/svg" width="39" height="42"><g fill="none"><path fill="#B3B7BC" d="M23.701 14.684c0 .386.31.7.695.7h6.948a.697.697 0 0 0 .694-.7c0-.386-.31-.7-.694-.7h-6.948a.697.697 0 0 0-.695.7zm4.169 4.2c0 .386.31.7.695.7h4.168a.697.697 0 0 0 .695-.7c0-.386-.31-.7-.695-.7h-4.168a.697.697 0 0 0-.695.7zm-.695-7.7a.697.697 0 0 0 .695-.7c0-.386-.31-.7-.695-.7h-1.39a.697.697 0 0 0-.694.7c0 .386.31.7.694.7h1.39zm-8.337 7a.697.697 0 0 0-.695.7c0 .386.31.7.695.7h6.947a.697.697 0 0 0 .695-.7c0-.387-.31-.7-.695-.7h-6.947z"/><path fill="#7D848C" d="M22.312 37.784H9.11a2.095 2.095 0 0 1-2.085-2.1v-32.2c0-.386-.31-.7-.694-.7-1.916 0-3.474 1.57-3.474 3.5 0 .386.31.7.694.7a.697.697 0 0 0 .695-.7c0-.913.581-1.691 1.39-1.98v31.38c0 1.93 1.558 3.5 3.474 3.5h13.2a.697.697 0 0 0 .695-.7c0-.386-.31-.7-.694-.7z"/><path fill="#B3B7BC" d="M11.89 15.384h9.727a.697.697 0 0 0 .695-.7c0-.386-.311-.7-.695-.7H11.89a.697.697 0 0 0-.695.7c0 .386.31.7.695.7zm0-4.2h2.779a.697.697 0 0 0 .695-.7c0-.386-.31-.7-.695-.7h-2.78a.697.697 0 0 0-.694.7c0 .386.31.7.695.7zm11.116-1.4h-5.558a.697.697 0 0 0-.695.7c0 .386.31.7.695.7h5.558a.697.697 0 0 0 .695-.7c0-.387-.31-.7-.695-.7z"/><path fill="#7D848C" d="M32.733 0H6.332C2.892 0 .092 2.813.078 6.275v.033a6.334 6.334 0 0 0 3.126 5.432c.332.194.757.08.95-.254a.702.702 0 0 0-.254-.957 4.93 4.93 0 0 1-2.432-4.237C1.473 3.594 3.652 1.4 6.332 1.4h26.401c2.681 0 4.864 2.198 4.864 4.9v29.4c0 .355-.099.711-.285 1.029a.704.704 0 0 0 .247.958.693.693 0 0 0 .951-.248 3.453 3.453 0 0 0 .476-1.739V6.3c0-3.474-2.805-6.3-6.253-6.3z"/><path fill="#55ADC9" d="M34.818 32.184c0-2.316-1.87-4.2-4.17-4.2-2.298 0-4.168 1.884-4.168 4.2 0 2.316 1.87 4.2 4.169 4.2 2.299 0 4.169-1.884 4.169-4.2zm-4.17 2.8c-1.532 0-2.778-1.256-2.778-2.8 0-1.544 1.246-2.8 2.779-2.8s2.779 1.256 2.779 2.8c0 1.544-1.246 2.8-2.78 2.8zm-1.253 2.1a.693.693 0 0 0-.95.257l-1.495 2.611-.238-.36a.69.69 0 0 0-.538-.314l-.429-.025 1.521-2.653a.703.703 0 0 0-.254-.957.692.692 0 0 0-.95.257l-2.082 3.633a.706.706 0 0 0-.01.682c.114.213.33.353.57.367l1.204.073.665 1.014a.692.692 0 0 0 .58.314h.021c.24-.008.46-.14.581-.35l2.059-3.592a.703.703 0 0 0-.255-.956zm5.859-1.152a.692.692 0 0 0-.95-.256.703.703 0 0 0-.254.956l1.503 2.62-.43.026a.697.697 0 0 0-.538.313l-.236.361-1.489-2.598a.694.694 0 0 0-.95-.256.703.703 0 0 0-.254.956l2.051 3.58c.121.21.341.341.581.35h.022c.232 0 .45-.118.58-.315l.664-1.014 1.203-.073a.693.693 0 0 0 .57-.367.708.708 0 0 0-.009-.682l-2.064-3.6z"/><path fill="#B3B7BC" d="M11.89 19.584h4.168a.697.697 0 0 0 .695-.7c0-.386-.31-.7-.695-.7H11.89a.697.697 0 0 0-.695.7c0 .386.31.7.695.7zm0 4.2h8.337a.697.697 0 0 0 .695-.7c0-.386-.31-.7-.695-.7H11.89a.697.697 0 0 0-.695.7c0 .386.31.7.695.7z"/><path fill="#55ADC9" d="M11.963 32.497c.171.346.589.486.932.313a.702.702 0 0 0 .31-.94c-.687-1.385-.841-2.628-.413-3.326.227-.372.625-.56 1.182-.56.331 0 .455.115.533.227.518.751.026 3.041-.49 4.427a.703.703 0 0 0 .276.835.693.693 0 0 0 .867-.094c.297-.298.618-.596.898-.837v.342c0 .283.17.538.43.646a.69.69 0 0 0 .756-.151c.318-.32.686-.632.996-.858a.707.707 0 0 0 .007.73c.127.207.35.333.59.333h2.78a.697.697 0 0 0 .694-.7c0-.386-.31-.7-.694-.7h-1.809c.056-.333.043-.672-.125-.945a.965.965 0 0 0-.845-.455c-.43 0-.935.263-1.396.59a.808.808 0 0 0-.487-.67c-.186-.078-.425-.178-1.005.172.229-1.206.295-2.596-.3-3.463-.261-.378-.763-.83-1.676-.83-1.04 0-1.88.436-2.365 1.225-.693 1.13-.564 2.839.354 4.689z"/><path fill="#B3B7BC" d="M30.649 23.084c0-.386-.31-.7-.695-.7h-6.948a.697.697 0 0 0-.694.7c0 .386.31.7.694.7h6.948a.697.697 0 0 0 .695-.7z"/></g></svg>