<svg xmlns="http://www.w3.org/2000/svg" width="39" height="42"><g fill="none"><path fill="#B3B7BC" d="M10.449 18.165H9.056a.697.697 0 0 0-.696.698c0 .386.311.699.696.699h1.393a.697.697 0 0 0 .696-.699.697.697 0 0 0-.696-.698zm0 12.575H9.056a.697.697 0 0 0-.696.699c0 .385.311.698.696.698h1.393a.697.697 0 0 0 .696-.698.697.697 0 0 0-.696-.699z"/><path fill="#55ADC9" d="M10.449 22.356H9.056a.697.697 0 0 0-.696.699c0 .386.311.699.696.699h1.393a.697.697 0 0 0 .696-.699.697.697 0 0 0-.696-.699z"/><path fill="#7D848C" d="M7.664 5.59H3.487a.697.697 0 0 0-.697.698v30.041a2.793 2.793 0 0 0 2.785 2.795H21.59a.697.697 0 0 0 .696-.7.697.697 0 0 0-.696-.698H5.575a1.396 1.396 0 0 1-1.392-1.397V6.986h3.481a.697.697 0 0 0 .696-.698.697.697 0 0 0-.696-.699z"/><path fill="#B3B7BC" d="M10.449 26.548H9.056a.697.697 0 0 0-.696.699c0 .385.311.698.696.698h1.393a.697.697 0 0 0 .696-.698.697.697 0 0 0-.696-.699z"/><path fill="#7D848C" d="M28.551 6.986h3.481v17.466a.697.697 0 1 0 1.393 0V6.288a.697.697 0 0 0-.697-.699h-4.177a.697.697 0 0 0-.696.699c0 .385.311.698.696.698z"/><path fill="#55ADC9" d="M13.93 23.055c0 .386.311.699.696.699H27.16a.697.697 0 0 0 .696-.699.697.697 0 0 0-.696-.699H14.626a.697.697 0 0 0-.696.699z"/><path fill="#B3B7BC" d="M20.196 32.137a.697.697 0 0 0 .696-.698.697.697 0 0 0-.696-.699h-5.57a.697.697 0 0 0-.696.699c0 .385.311.698.696.698h5.57z"/><path fill="#7D848C" d="M28.551 4.192h4.177c1.016 0 2.09 1.077 2.09 2.096v18.164a.697.697 0 1 0 1.392 0V6.288c0-1.796-1.692-3.493-3.482-3.493h-4.177a.697.697 0 0 0-.696.698c0 .386.311.699.696.699z"/><path fill="#55ADC9" d="M33.629 32.342l-2.99 3-1.596-1.603a.694.694 0 0 0-.984 0 .7.7 0 0 0 0 .988l2.088 2.096a.693.693 0 0 0 .985 0l3.481-3.493a.7.7 0 0 0 0-.988.694.694 0 0 0-.984 0z"/><path fill="#B3B7BC" d="M23.677 27.247a.697.697 0 0 0-.696-.699h-8.355a.697.697 0 0 0-.696.699c0 .385.311.698.696.698h8.355a.697.697 0 0 0 .696-.698z"/><path fill="#7D848C" d="M22.981 40.52H3.487c-1.016 0-2.09-1.076-2.09-2.095V6.288c0-1.019 1.074-2.096 2.09-2.096h4.177a.697.697 0 0 0 .696-.699.697.697 0 0 0-.696-.698H3.487c-1.79 0-3.482 1.697-3.482 3.493v32.137c0 1.796 1.692 3.493 3.482 3.493H22.98a.697.697 0 0 0 .696-.698.697.697 0 0 0-.696-.7z"/><path fill="#7D848C" d="M10.449 8.384h15.317a.697.697 0 0 0 .696-.699V3.493a.697.697 0 0 0-.696-.698h-3.72A4.193 4.193 0 0 0 18.108 0a4.193 4.193 0 0 0-3.94 2.795h-3.72a.697.697 0 0 0-.695.698v4.192c0 .386.311.699.696.699zm.696-4.192h3.552c.33 0 .616-.234.681-.56a2.795 2.795 0 0 1 2.73-2.235c1.319 0 2.466.94 2.729 2.235.065.326.35.56.681.56h3.552v2.794H11.145V4.192z"/><path fill="#B3B7BC" d="M31.336 26.548c-4.223 0-7.659 3.448-7.659 7.685s3.436 7.685 7.659 7.685 7.659-3.448 7.659-7.685-3.436-7.685-7.659-7.685zm0 13.973c-3.455 0-6.266-2.821-6.266-6.288 0-3.466 2.81-6.288 6.266-6.288 3.455 0 6.266 2.822 6.266 6.288 0 3.467-2.81 6.288-6.266 6.288z"/><path fill="#55ADC9" d="M9.056 15.37h1.393a.697.697 0 0 0 .696-.699.697.697 0 0 0-.696-.698H9.056a.697.697 0 0 0-.696.698c0 .386.311.699.696.699z"/><path fill="#B3B7BC" d="M18.108 2.795a1.396 1.396 0 1 0 0 2.795c.767 0 1.392-.628 1.392-1.398 0-.77-.624-1.397-1.392-1.397zm-3.482 16.767h9.748a.697.697 0 0 0 .696-.699.697.697 0 0 0-.696-.698h-9.748a.697.697 0 0 0-.696.698c0 .386.311.699.696.699z"/><path fill="#55ADC9" d="M14.626 15.37h11.14a.697.697 0 0 0 .696-.699.697.697 0 0 0-.696-.698h-11.14a.697.697 0 0 0-.696.698c0 .386.311.699.696.699z"/></g></svg>