<svg xmlns="http://www.w3.org/2000/svg" width="42" height="42"><g fill="none"><path fill="#B3B7BC" d="M23.83 19.88a.7.7 0 0 0 .94.305c.04-.021 4.153-2.11 6.181-2.751a.699.699 0 0 0-.422-1.333c-2.136.676-6.22 2.75-6.394 2.839a.699.699 0 0 0-.306.94zm.623-8.003a.697.697 0 0 0 .317-.076c.04-.02 4.153-2.11 6.181-2.75a.699.699 0 0 0-.422-1.333c-2.136.675-6.22 2.75-6.394 2.838a.7.7 0 0 0 .318 1.321z"/><path fill="#7D848C" d="M41.22 10.48a.698.698 0 0 0-.699.698v27.247c0 1.156-.94 2.096-2.096 2.096H21.658v-1.607c1.019-.357 3.672-1.187 6.288-1.187 6.085 0 10.218 1.347 10.26 1.361a.698.698 0 0 0 .919-.663l-.001-30.74a.698.698 0 0 0-.547-.682s-.548-.122-1.484-.294a.7.7 0 0 0-.253 1.374c.357.066.656.124.886.17v29.244c-1.583-.415-5.098-1.168-9.78-1.168-3.044 0-6.035 1-6.96 1.339-.822-.363-3.308-1.339-6.315-1.339-4.812 0-8.776.794-10.48 1.197v-29.3c1.396-.343 5.517-1.24 10.48-1.24 2.548 0 4.732.794 5.59 1.152v27.493a.699.699 0 0 0 1.058.598c.07-.04 6.991-4.175 13.135-6.223a.699.699 0 0 0 .478-.663V.699a.698.698 0 0 0-.945-.655c-5.59 2.097-11.246 5.617-11.302 5.652a.699.699 0 0 0 .74 1.185c.052-.033 4.973-3.095 10.11-5.16v27.122c-4.77 1.657-9.749 4.363-11.877 5.574V7.685a.7.7 0 0 0-.387-.625c-.12-.06-2.983-1.47-6.6-1.47-6.312 0-11.166 1.365-11.37 1.424a.698.698 0 0 0-.506.671v30.74a.702.702 0 0 0 .698.699c.065 0 .129-.01.192-.027.048-.014 4.879-1.37 10.986-1.37 2.555 0 4.737.795 5.59 1.152v1.642H3.493a2.098 2.098 0 0 1-2.096-2.096V11.18a.699.699 0 0 0-1.397 0v27.246a3.497 3.497 0 0 0 3.493 3.494h34.932a3.497 3.497 0 0 0 3.493-3.494V11.18a.699.699 0 0 0-.698-.7z"/><path fill="#55ADC9" d="M23.83 15.687a.7.7 0 0 0 .94.306c.04-.021 4.153-2.11 6.181-2.75a.699.699 0 0 0-.422-1.334c-2.136.676-6.22 2.75-6.394 2.839a.699.699 0 0 0-.306.94z"/><path fill="#B3B7BC" d="M23.83 24.071a.7.7 0 0 0 .94.305c.04-.02 4.153-2.11 6.181-2.75a.699.699 0 0 0-.422-1.333c-2.136.675-6.22 2.75-6.394 2.838a.699.699 0 0 0-.306.94zm-6.903-11.105c-4.314-1.013-9.217.277-9.423.332a.699.699 0 0 0 .362 1.35c.047-.013 4.767-1.255 8.742-.322a.698.698 0 1 0 .318-1.36zm0 4.191c-4.314-1.011-9.217.278-9.423.333a.699.699 0 0 0 .362 1.35c.047-.014 4.767-1.255 8.742-.322a.698.698 0 1 0 .318-1.36zm6.902 11.106a.7.7 0 0 0 .94.305c.042-.02 4.154-2.11 6.182-2.75a.699.699 0 0 0-.422-1.333c-2.136.675-6.22 2.75-6.394 2.838a.699.699 0 0 0-.306.94z"/><path fill="#55ADC9" d="M16.927 21.35c-4.314-1.012-9.217.276-9.423.332a.699.699 0 0 0 .362 1.35c.047-.014 4.767-1.255 8.742-.323a.698.698 0 1 0 .318-1.36z"/><path fill="#B3B7BC" d="M16.927 29.733c-4.314-1.012-9.217.277-9.423.332a.699.699 0 0 0 .362 1.35c.047-.013 4.767-1.255 8.742-.322a.698.698 0 1 0 .318-1.36zm0-4.192c-4.314-1.012-9.217.277-9.423.333a.699.699 0 0 0 .362 1.35c.047-.014 4.767-1.255 8.742-.323a.698.698 0 1 0 .318-1.36z"/></g></svg>