<svg xmlns="http://www.w3.org/2000/svg" width="44" height="42" viewBox="0 0 44 42">
  <g fill="none" fill-rule="evenodd">
    <path fill="#7D848C" fill-rule="nonzero" d="M37.4690078,35.0362137 C37.3433672,34.1359234 36.8140781,33.3660363 36.0166641,32.9241048 L28.4053516,28.7055605 C27.2402969,28.0598105 25.7663828,28.2593105 24.8210703,29.1906774 L22.1483281,31.8242298 C21.6008203,32.3637097 20.7242578,32.4309435 20.1091172,31.980629 C18.2624922,30.6286694 16.4577187,29.0874556 14.7448125,27.3996653 C13.0319922,25.7119597 11.4678438,23.9335645 10.0956797,22.1140161 C9.63866406,21.5079798 9.70689844,20.6441855 10.2544063,20.1047056 L12.9271484,17.4711532 C13.8724609,16.5397016 14.0749297,15.0873992 13.4194844,13.9394274 L9.13825,6.43971774 C8.68974219,5.65399597 7.90848438,5.13246774 6.99471094,5.00875403 C6.03728125,4.87919758 5.08896094,5.19834677 4.39269531,5.88465726 L1.5736875,8.66233065 C-0.417828125,10.6246452 -0.5225,14.1377419 1.27883594,18.5546008 C3.00196875,22.7798347 6.28091406,27.4025444 10.5114453,31.5710444 C14.7420625,35.7397137 19.4334766,38.970496 23.7215859,40.6682782 C25.8449297,41.5090403 27.7621953,41.9283629 29.4041172,41.9283629 C31.2283984,41.9283629 32.7127969,41.4105605 33.7609766,40.37775 L36.5799844,37.6000766 C37.2764219,36.9139355 37.6004062,35.9794355 37.4690078,35.0362137 Z M35.5720234,36.6069798 L35.0793437,37.0922661 L28.5905469,33.6048266 C28.2449062,33.418875 27.8120391,33.5445363 27.6235781,33.8851089 C27.4350312,34.2255968 27.5623906,34.6522016 27.9080312,34.8378992 L34.0287578,38.1275323 L32.7529297,39.3846532 C31.2133594,40.9015645 28.1152266,40.8943669 24.2529375,39.3651774 C20.1391953,37.7362379 15.6169922,34.615621 11.5192344,30.5779476 C7.42173438,26.5402742 4.25450781,22.0842944 2.60141406,18.030871 C1.04938281,14.2250444 1.04216406,11.1724234 2.58164844,9.6555121 L3.85721875,8.39839113 L4.5395625,9.63095565 C4.66898438,9.86466532 4.91347656,9.99710081 5.165875,9.99710081 C5.28111719,9.99710081 5.39816406,9.96949597 5.50644531,9.9112379 C5.852,9.72545565 5.97944531,9.29885081 5.79089844,8.9583629 L4.9080625,7.36320968 L5.40057031,6.87792339 C5.72438281,6.55902823 6.14478906,6.38552419 6.57989063,6.38552419 C6.65319531,6.38552419 6.72701563,6.39052016 6.80075,6.40042742 C7.26867969,6.46376613 7.66794531,6.72906048 7.89585156,7.12848387 L12.1770859,14.6281935 C12.5203203,15.2295726 12.4143594,15.9902298 11.9191875,16.4780565 L10.6473984,17.7312823 L7.30984375,11.7020806 C7.12138281,11.3615927 6.68842969,11.2360161 6.342875,11.4217984 C5.99732031,11.607496 5.869875,12.0341008 6.05842188,12.3745887 L9.5968125,18.766379 L9.24653125,19.1115242 C8.20290625,20.1398468 8.07614844,21.7908024 8.95159375,22.9517298 C10.3650937,24.8260645 11.9750469,26.6567903 13.7368516,28.3928468 C15.4987422,30.1289032 17.3567109,31.7153347 19.2589375,33.1079395 C20.4370547,33.9706331 22.1124922,33.8456492 23.1562891,32.8173266 L23.5065703,32.4721815 L25.1251172,33.3420726 C25.2335703,33.4004153 25.3504453,33.4279355 25.4656875,33.4279355 C25.7180859,33.4279355 25.9625781,33.2955 26.092,33.0617903 C26.2805469,32.7213024 26.1531875,32.2946976 25.8075469,32.109 L24.5570703,31.4368306 L25.8288594,30.1836895 C26.3239453,29.6958629 27.0960078,29.591371 27.7064219,29.9295726 L35.3177344,34.1480323 C35.7230156,34.3726815 35.9923438,34.7660081 36.056625,35.2270766 C36.1269219,35.7313306 35.9503203,36.2342298 35.5720234,36.6069798 Z"/>
    <path fill="#55ADC9" d="M22.2509068 16.609809C22.5230436 18.3993145 22.6250933 20.2056296 22.5570592 22.0288086 22.5521996 22.23566 22.4938854 22.3511103 22.382115 22.3751628 21.9641906 22.4665622 21.6337438 22.531503 21.3907645 22.569987 21.3907645 19.116049 20.797904 16.1528263 19.6121652 13.68023L20.7055664 12.2803819C20.827056 12.1312565 20.9291058 12.1529034 21.0117188 12.3453234 21.0797529 12.5040698 21.2352573 12.9105508 21.4782366 13.5647786 21.7698117 14.3440794 22.3286557 14.7265083 23.1547852 14.7120768 24.1024043 14.6928348 24.6612482 13.9784865 24.8313337 12.5690104L24.8677804 12.2948134 25.9830497 12.4391276 25.968471 12.6411675C25.8664197 15.3446677 24.9504016 16.7132341 23.2203892 16.7469076 22.9093758 16.7517181 22.5862182 16.706019 22.2509068 16.609809zM28.6743513 13.5647786C28.9367689 14.2478694 29.264786 14.7337225 29.6584124 15.0223524 29.6243953 14.9357635 29.607387 14.8203132 29.607387 14.6759983 29.6122466 14.4931993 29.6462632 14.2502728 29.7094378 13.9472114 29.7920507 13.5527505 29.988861 13.1895633 30.2998744 12.8576389 30.6983604 12.434315 31.220758 12.2226563 31.8670829 12.2226563 32.6543357 12.2226563 33.2982211 12.5257131 33.7987584 13.1318359L33.4415806 13.9472114C33.0090775 13.7788439 32.6203166 13.6946615 32.275286 13.6946615 31.7990466 13.6946615 31.4078559 13.8558107 31.101702 14.1781141 30.8684419 14.4234496 30.7493839 14.7265064 30.7445243 15.0872938 30.7445243 15.2652823 30.8635823 15.4144055 31.101702 15.534668 31.3544004 15.6645514 31.7042853 15.7294922 32.1513672 15.7294922 32.8025516 15.7294922 33.3686848 15.6212576 33.8497838 15.4047852L33.9882812 16.7469076C33.2933606 17.2039049 32.5352766 17.4324002 31.7140067 17.4324002 30.8441409 17.4324002 30.1006355 17.2351727 29.4834682 16.8407118 29.731307 18.4426078 29.821208 20.1719561 29.7531738 22.0288086 29.7483142 22.23566 29.6900001 22.3511103 29.5782296 22.3751628 29.1603053 22.4665622 28.8298585 22.531503 28.5868792 22.569987 28.5868792 19.116049 27.9940187 16.1528263 26.8082799 13.68023L27.9016811 12.2803819C28.0328899 12.116825 28.1349396 12.1384719 28.2078334 12.3453234L28.6743513 13.5647786z"/>
    <path fill="#7D848C" fill-rule="nonzero" d="M40.1065156,29.30025 L38.7184531,29.5737581 C42.0915,26.3458548 44,21.9310282 44,17.254125 C44,7.7797379 36.1772812,0.0716370968 26.5618203,0.0716370968 C20.8949297,0.0716370968 15.5613047,2.80079032 12.2944766,7.37218548 C12.0678594,7.68930242 12.1450312,8.12742339 12.4668672,8.35080242 C12.7886172,8.57409677 13.2332578,8.49805645 13.4599609,8.18093952 C16.4602969,3.98263306 21.3581328,1.47618145 26.5619062,1.47618145 C35.3912969,1.47618145 42.5746406,8.5541129 42.5746406,17.254125 C42.5746406,21.6115403 40.7692656,25.7204274 37.5865703,28.6954839 L37.9043672,27.1301371 C37.9815391,26.7497661 37.7312031,26.3798105 37.3451719,26.3037702 C36.9592266,26.2276452 36.5836797,26.4743952 36.5065078,26.8547661 L35.7463047,30.6003024 C35.6995547,30.8305403 35.7726875,31.0685685 35.9412109,31.234621 C36.0761328,31.3675645 36.2580625,31.4403024 36.4451484,31.4403024 C36.4916406,31.4403024 36.5383906,31.4358145 36.5849687,31.4266694 L40.3862422,30.6775282 C40.7722734,30.6014032 41.0226094,30.2314476 40.9454375,29.8511613 C40.8679219,29.470875 40.492375,29.224379 40.1065156,29.30025 Z"/>
    <path fill="#B3B7BC" fill-rule="nonzero" d="M26.5618203 3.06803226C26.1682266 3.06803226 25.8490547 3.38243952 25.8490547 3.77034677L25.8490547 5.26854435C25.8490547 5.65636694 26.1681406 5.97085887 26.5618203 5.97085887 26.9554141 5.97085887 27.2745859 5.65645161 27.2745859 5.26854435L27.2745859 3.77034677C27.2745 3.38252419 26.9555 3.06803226 26.5618203 3.06803226zM40.24625 16.5518952L38.7257578 16.5518952C38.3321641 16.5518952 38.0129922 16.8663024 38.0129922 17.2542097 38.0129922 17.6420323 38.3320781 17.9565242 38.7257578 17.9565242L40.24625 17.9565242C40.6398437 17.9565242 40.9590156 17.6421169 40.9590156 17.2542097 40.9590156 16.8663024 40.6398437 16.5518952 40.24625 16.5518952zM16.3838984 10.6531815L15.0671641 9.904125C14.7261641 9.71012903 14.290375 9.82529032 14.0935781 10.161121 13.8967813 10.4970363 14.0135703 10.9265202 14.3543984 11.1204315L15.6711328 11.8694879C15.7833672 11.9333347 15.9059141 11.9636492 16.0268281 11.9636492 16.273125 11.9636492 16.5127187 11.8376492 16.6447187 11.6124073 16.8415156 11.2765766 16.7247266 10.8470927 16.3838984 10.6531815zM38.7692422 23.3879032L37.4525078 22.6387621C37.1115937 22.4447661 36.6757187 22.5599274 36.4789219 22.8957581 36.282125 23.2315887 36.3988281 23.6611573 36.7397422 23.8550685L38.0564766 24.604125C38.1687109 24.6679718 38.2912578 24.6982863 38.4121719 24.6982863 38.6584687 24.6982863 38.8980625 24.5722863 39.0300625 24.3470444 39.2269453 24.0112984 39.1101563 23.5818145 38.7692422 23.3879032zM33.7604609 4.96870161C33.4195469 4.77470565 32.9836719 4.88986694 32.786875 5.22569758L32.0266719 6.523125C31.829875 6.85904032 31.9466641 7.28852419 32.2874922 7.48243548 32.3997266 7.54628226 32.5221875 7.57659677 32.6431875 7.57659677 32.8894844 7.57659677 33.1290781 7.45059677 33.2610781 7.22535484L34.0213672 5.92792742C34.2181641 5.59218145 34.101375 5.1626129 33.7604609 4.96870161zM20.8361484 27.0258145C20.4952344 26.8318185 20.0594453 26.9469798 19.8625625 27.2828105L19.1023594 28.5802379C18.9055625 28.9161532 19.0223516 29.3456371 19.3631797 29.5395484 19.4754141 29.6033952 19.5979609 29.6337097 19.718875 29.6337097 19.9651719 29.6337097 20.2047656 29.5077097 20.3367656 29.2824677L21.0970547 27.9850403C21.2938516 27.6492097 21.1770625 27.2197258 20.8361484 27.0258145zM39.0301484 10.161121C38.8333516 9.82520565 38.3973047 9.71012903 38.0565625 9.904125L36.7398281 10.6532661C36.3989141 10.8471774 36.282125 11.2766613 36.4790078 11.6125766 36.6110078 11.8379032 36.8506016 11.9638185 37.0968984 11.9638185 37.2178125 11.9638185 37.3403594 11.933504 37.4525937 11.8696573L38.7693281 11.1206008C39.1101562 10.9265202 39.2269453 10.4969516 39.0301484 10.161121zM16.6447188 22.8958427C16.4479219 22.5599274 16.0119609 22.4447661 15.6711328 22.6388468L14.3543984 23.3879879C14.0134844 23.5818992 13.8966953 24.0113831 14.0935781 24.3472984 14.2255781 24.572625 14.4651719 24.6985403 14.7114688 24.6985403 14.8323828 24.6985403 14.9549297 24.6682258 15.0671641 24.604379L16.3838984 23.8553226C16.7247266 23.6612419 16.8415156 23.2316734 16.6447188 22.8958427zM21.0970547 6.52320968L20.3368516 5.22578226C20.1400547 4.88978226 19.7040938 4.77470565 19.3632656 4.96878629 19.0223516 5.16269758 18.9055625 5.59226613 19.1024453 5.92809677L19.8627344 7.22552419C19.9948203 7.45085081 20.2344141 7.57676613 20.480625 7.57676613 20.6015391 7.57676613 20.7240859 7.54645161 20.8363203 7.48260484 21.1770625 7.28860887 21.2938516 6.85904032 21.0970547 6.52320968zM34.0212812 28.5802379L33.2610781 27.2828105C33.0642812 26.9468952 32.6283203 26.8318185 32.2874922 27.0258145 31.9465781 27.2197258 31.8297891 27.6492097 32.0266719 27.985125L32.786875 29.2825524C32.918875 29.507879 33.1584687 29.6337944 33.4047656 29.6337944 33.5256797 29.6337944 33.6482266 29.6034798 33.7604609 29.5396331 34.1012891 29.3456371 34.2180781 28.9161532 34.0212812 28.5802379z"/>
  </g>
</svg>
