<svg xmlns="http://www.w3.org/2000/svg" width="18" height="20"><g fill="none"><path fill="#CED4DA" d="M14 10h2v2h-2zM3 12h2v2H3z"/><path fill="#868E96" d="M17.972 3.28a4.035 4.035 0 0 0-.933-1.95c0-.002-.002-.003-.003-.004-.246-.286-.655-.68-1.201-.929l-.013-.005A3.771 3.771 0 0 0 14.142 0a3.79 3.79 0 0 0-2.382.835l-.004.004c-.59.474-.98 1.151-1.029 1.237a4.096 4.096 0 0 0-.459 2.343c.013.13.088.243.2.304.071.038.145.07.221.095a3.64 3.64 0 0 0 1.809 2.146 3.53 3.53 0 0 0-.966.747.395.395 0 0 0 .016.547.37.37 0 0 0 .533-.016 2.81 2.81 0 0 1 .441-.392c.229.664.817 1.151 1.486 1.151h.056c.67 0 1.258-.521 1.472-1.227a2.88 2.88 0 0 1 1.306 2.404v4.024l-3.429 2.286a.394.394 0 0 0-.111.536.374.374 0 0 0 .521.114l3.6-2.4a.39.39 0 0 0 .173-.326v-4.234c0-1.372-.746-2.602-1.923-3.216a3.69 3.69 0 0 0 1.98-3.071c.107-.1.2-.216.274-.347a.396.396 0 0 0 .045-.264zm-3.908 4.946h-.056c-.451 0-.833-.449-.833-.98v-.02a3.49 3.49 0 0 0 1.692.031c-.03.524-.392.97-.803.97zm.022-1.655A2.818 2.818 0 0 1 11.5 4.832a1.438 1.438 0 0 0 1.009-1.17c.225.03.452.044.681.044.767 0 1.506-.165 2.167-.481a1.416 1.416 0 0 0 1.49 1.035c-.265 1.317-1.406 2.311-2.76 2.311zm2.623-3.078a.664.664 0 0 1-.654-.672v-.216a.39.39 0 0 0-.194-.339.368.368 0 0 0-.383.011 4.204 4.204 0 0 1-2.288.655c-.326 0-.65-.036-.962-.105a.37.37 0 0 0-.317.077.392.392 0 0 0-.14.301v.235a.664.664 0 0 1-.769.661 3.303 3.303 0 0 1 .38-1.644c.004-.005.345-.612.837-1.007l.003-.002a3.056 3.056 0 0 1 1.92-.673 3.04 3.04 0 0 1 1.387.33c.42.192.741.501.938.73a3.25 3.25 0 0 1 .731 1.43.648.648 0 0 1-.49.228zm-5.833 9.912a2.988 2.988 0 0 0 1.429-2.562 3.019 3.019 0 0 0-.348-1.41c-.49-.928-1.445-1.56-2.542-1.56-1.097 0-2.053.632-2.543 1.56a3.018 3.018 0 0 0-.347 1.41c0 1.09.574 2.045 1.428 2.561a3.283 3.283 0 0 0-1.726 2.91v1.413a.39.39 0 0 0 .174.327l2.812 1.84a.37.37 0 0 0 .403 0l2.818-1.83a.39.39 0 0 0 .176-.329l-.007-1.422a3.295 3.295 0 0 0-1.727-2.908zM9.415 8.648a2.11 2.11 0 0 1 1.636.786 5.826 5.826 0 0 1-1.636.227 5.826 5.826 0 0 1-1.636-.227 2.11 2.11 0 0 1 1.636-.786zm-2.136 2.195c0-.252.041-.494.118-.719a6.5 6.5 0 0 0 2.018.312 6.5 6.5 0 0 0 2.018-.312c.076.225.118.467.118.72 0 1.21-.958 2.194-2.136 2.194-1.178 0-2.136-.985-2.136-2.195zm2.805 2.89c-.047.366-.36.614-.643.614h-.046c-.3 0-.632-.26-.676-.62a2.813 2.813 0 0 0 1.365.006zm-.668 5.375L6.98 17.515v-1.2c0-.852.419-1.63 1.096-2.089.236.553.791.896 1.318.896h.046c.569 0 1.072-.38 1.29-.91a2.528 2.528 0 0 1 1.118 2.104l.006 1.208-2.44 1.584zM6.708 8.709a.394.394 0 0 0-.121-.534 3.483 3.483 0 0 0-.356-.198 3.584 3.584 0 0 0 1.205-1.034c.135.048.28.074.43.074.724 0 1.313-.606 1.313-1.35v-.963A4.75 4.75 0 0 0 7.9 1.44 4.495 4.495 0 0 0 4.491 0C3.312.031 2.2.521 1.36 1.383A4.723 4.723 0 0 0 .025 4.704v.963c0 .744.589 1.35 1.313 1.35.15 0 .295-.026.43-.074.36.483.824.86 1.349 1.105a3.607 3.607 0 0 0-1.883 3.193v3.171a.39.39 0 0 0 .172.325l3.42 2.28a.374.374 0 0 0 .521-.114.394.394 0 0 0-.11-.535l-3.249-2.166v-2.96c0-.897.406-1.72 1.087-2.251.233.695.832 1.218 1.495 1.218h.056c.72 0 1.294-.669 1.496-1.417.022.014.045.027.067.042.177.113.41.057.519-.125zM2.271 3.296a2.836 2.836 0 0 0-.373 1.408v.963a.58.58 0 0 1-.247.477.546.546 0 0 1-.313.098.568.568 0 0 1-.56-.575v-.963c0-2.15 1.64-3.876 3.732-3.928.078-.002.158-.001.245.002 2.058.084 3.67 1.808 3.67 3.926v.963a.568.568 0 0 1-.56.575.546.546 0 0 1-.345-.122.58.58 0 0 1-.214-.453v-.963c0-1.367-.992-2.55-2.306-2.749a.37.37 0 0 0-.29.08.39.39 0 0 0-.14.273c-.022.271-.07.538-.143.797H2.596a.375.375 0 0 0-.325.191zm2.355 6.139H4.57c-.427 0-.845-.532-.845-1.074a.397.397 0 0 0-.012-.098 3.513 3.513 0 0 0 1.732.012c-.025.563-.44 1.16-.82 1.16zm-.024-1.833c-.879 0-1.69-.41-2.222-1.113.17-.228.272-.513.272-.822v-.963c0-.285.06-.566.172-.824H4.7a.377.377 0 0 0 .353-.253c.095-.262.166-.532.213-.808a2.016 2.016 0 0 1 1.287 1.885v.963c0 .309.101.594.272.822a2.777 2.777 0 0 1-2.222 1.113z"/></g></svg>