<svg xmlns="http://www.w3.org/2000/svg" width="42" height="42" viewBox="0 0 42 42">
  <g fill="none">
    <path fill="#6D797B" d="M16.9153359 23.0563594C16.8642305 22.6727813 16.508625 22.4025703 16.1278359 22.4571211 15.7449141 22.5082266 15.4768359 22.861043 15.5285977 23.2446211 16.2685195 28.7032266 14.2987031 34.2178594 10.2603867 37.9957266 9.97828125 38.2596211 9.96359766 38.7027539 10.2281484 38.9855156 10.3653867 39.1325156 10.5515156 39.2066719 10.7391211 39.2066719 10.9106484 39.2066719 11.0820937 39.1444102 11.2171992 39.0176719 15.5860195 34.9304648 17.716125 28.9636758 16.9153359 23.0563594zM6.77167969 23.8739648C6.76470703 23.8410703 6.75560156 23.8095703 6.74436328 23.7780703 6.60294141 23.0514375 6.51689063 22.3129922 6.48604688 21.5807813 6.470625 21.1944141 6.14028516 20.8968867 5.75801953 20.9101758 5.37165234 20.9255977 5.07133594 21.2517539 5.08741406 21.6382031 5.12244141 22.4768086 5.22465234 23.3223867 5.39117578 24.152625 5.39749219 24.1848633 5.40659766 24.2163633 5.41775391 24.247125 5.87417578 26.6894414 4.98512109 29.1954141 3.08257031 30.8068359 2.78783203 31.0574414 2.75075391 31.4990977 3.00070313 31.7938359 3.13999219 31.9576523 3.33670313 32.0416523 3.53546484 32.0416523 3.69575391 32.0416523 3.85604297 31.9870195 3.98770313 31.8750469 6.30401953 29.9128594 7.37083594 26.8468594 6.77167969 23.8739648zM10.7063906 29.4488086C10.3458633 29.3087812 9.93989063 29.4872812 9.79986328 29.8478086 9.04944141 31.7805469 7.80560156 33.4954922 6.20394141 34.8073359 5.90501953 35.051625 5.86096875 35.4933633 6.10591406 35.7922031 6.24454688 35.9609414 6.44544141 36.0483867 6.64773047 36.0483867 6.80383594 36.0483867 6.96133594 35.996625 7.09151953 35.8901484 8.87865234 34.4257266 10.2667031 32.5119375 11.1053086 30.3545156 11.2453359 29.9948086 11.0661797 29.5887539 10.7063906 29.4488086zM4.19983594 9.60864844C4.32444141 9.69962109 4.46865234 9.74375391 4.612125 9.74375391 4.82770313 9.74375391 5.04049219 9.64433203 5.17773047 9.45607031 8.07015234 5.49338672 12.3128086 2.77733203 17.1245977 1.80714844 21.3939141.945410156 25.7128594 1.50264844 29.612625 3.41717578 29.9605195 3.58870312 30.3798633 3.44375391 30.5492578 3.09725391 30.7200469 2.75009766 30.5765742 2.33075391 30.2293359 2.16062109 26.0510742.1089375 21.4233633-.487429687 16.8481523.4344375 11.6919141 1.4739375 7.14615234 4.38457031 4.04725781 8.63075391 3.81904688 8.94296484 3.887625 9.38117578 4.19983594 9.60864844zM1.80796875 24.877043C1.80444141 24.8602266 1.79328516 24.8476758 1.78836328 24.8308594.916863281 20.4572813 1.52660156 16.0528594 3.55515234 12.0901758 3.73151953 11.7464648 3.59575781 11.3244141 3.25139062 11.1479648 2.90702344 10.9708594 2.48562891 11.1080977 2.30917969 11.4524648.127230469 15.713332-.525164063 20.4517031.423363281 25.1543086.428941406 25.1802305.443625 25.2012305.451335937 25.2256758.508019531 25.5022031.568230469 25.7758594.634757812 26.0474648.713835937 26.3666484.99946875 26.5794375 1.31446875 26.5794375 1.36975781 26.5794375 1.42578516 26.5731211 1.48246875 26.559832 1.85767969 26.4667266 2.08728516 26.087332 1.99483594 25.7121211 1.92691406 25.4370703 1.86391406 25.1584922 1.80796875 24.877043z"/>
    <path fill="#55ADC9" d="M17.8491797,5.40233203 C11.363707,6.70991016 6.44060156,11.7660703 5.30725781,18.283043 C5.24146875,18.663832 5.49625781,19.0264102 5.87704688,19.0929375 C6.26275781,19.1587266 6.62041406,18.9031992 6.68694141,18.5231484 C7.720125,12.5787539 12.2106797,7.96785938 18.1263633,6.77430469 C25.9747852,5.19438281 33.6453633,10.2896719 35.2266797,18.1366992 C35.2308633,18.1590938 35.2364414,18.1800938 35.2427578,18.2010938 C35.3694961,18.8360156 35.4786797,19.4646211 35.5675195,20.070832 C35.618625,20.4187266 35.9175469,20.6685938 36.259125,20.6685938 C36.2934141,20.6685938 36.3277031,20.6664609 36.3619922,20.6608828 C36.7441758,20.6048555 37.0088086,20.24925 36.9527813,19.8670664 C36.857543,19.2168047 36.7392539,18.5419336 36.6027539,17.8608281 C36.597832,17.8384336 36.5922539,17.8153008 36.5852813,17.7936445 C34.8213633,9.22720313 26.4304687,3.67270313 17.8491797,5.40233203 Z"/>
    <path fill="#55ADC9" d="M26.6642578,19.8629648 C26.3590195,18.348832 25.4826797,17.044043 24.1960195,16.1893594 C22.9094414,15.3339375 21.3665977,15.0329648 19.8532031,15.3367266 C17.5802813,15.7951992 15.8065195,17.5571484 15.3332813,19.8258047 C15.2542031,20.204543 15.4970977,20.5754883 15.8750977,20.6545664 C16.2552305,20.7329883 16.6247813,20.49075 16.7038594,20.1120938 C17.0622539,18.3922266 18.4069922,17.0565938 20.1296484,16.7093555 C21.2776758,16.4790938 22.4459648,16.7072227 23.4210703,17.3547773 C24.373043,17.9875664 25.0283086,18.9451992 25.2739922,20.0581992 C25.2767813,20.0861719 25.2803086,20.1142266 25.2858867,20.1421992 C25.6407539,21.8984883 25.8227813,23.6911992 25.8277031,25.4698828 C25.8290977,25.85625 26.1419648,26.1684609 26.5276758,26.1684609 L26.5290703,26.1684609 C26.9161758,26.1677227 27.229043,25.8534609 27.2276484,25.4670938 C27.2227266,23.6260664 27.0372539,21.7710938 26.6760703,19.9531992 C26.6740195,19.9231758 26.6698359,19.8930703 26.6642578,19.8629648 Z"/>
    <path fill="#6D797B" d="M21.6865195 20.8674375C21.6102305 20.4886992 21.2413359 20.2451484 20.8619414 20.3193047 20.4832031 20.3955938 20.2375195 20.7652266 20.3138086 21.1438828 21.6914414 27.9765938 19.8391758 34.9016719 15.2325469 40.1446992 14.9777578 40.4351719 15.0064688 40.8775664 15.2962031 41.1330938 15.4291758 41.249332 15.5943867 41.3066719 15.7582031 41.3066719 15.9527813 41.3066719 16.1459648 41.2268555 16.2845977 41.0693555 21.1818633 35.4946758 23.1509414 28.132043 21.6865195 20.8674375zM41.5777852 16.8564375C41.5736016 16.8354375 41.5595742 16.8193594 41.5532578 16.7983594 40.4752852 11.5266211 37.4589961 6.92204297 33.0531797 3.83012109 32.7367852 3.60683203 32.2993125 3.68451562 32.0780742 4.00091016 31.8561797 4.31730469 31.9324687 4.75412109 32.2488633 4.97601562 36.3761016 7.87262109 39.1977305 12.1909102 40.1945742 17.1350156 40.1981016 17.1538828 40.2092578 17.1686484 40.2141797 17.1867773 40.4913633 18.57975 40.6187578 19.99725 40.5921797 21.4014609 40.585207 21.7878281 40.8924961 22.1070937 41.2788633 22.1147227L41.2928906 22.1147227C41.6730234 22.1147227 41.9851523 21.8094844 41.992207 21.4280391 42.0208359 19.9035703 41.8815469 18.3663867 41.5777852 16.8564375z"/>
    <path fill="#55ADC9" d="M31.6321523,18.8619375 C31.0595742,16.0199648 29.4145195,13.5720703 27.0002578,11.9683594 C24.5859961,10.3639922 21.6921797,9.79764844 18.8508633,10.3695703 C12.9862852,11.5518867 9.17617969,17.2862812 10.3591523,23.1508594 C10.3675195,23.1921211 10.3794141,23.231332 10.3941797,23.2691484 C10.6188633,24.438832 10.6685742,25.6246758 10.541918,26.7964102 C10.5006563,27.1807266 10.7784961,27.525832 11.1635508,27.567832 C11.539418,27.6056484 11.8929727,27.3312539 11.9342344,26.9461992 C12.0798398,25.5909609 12.0154453,24.2203828 11.7431016,22.8714609 C11.7347344,22.8308555 11.7228398,22.7916445 11.7080742,22.7545664 C10.7532305,17.6879883 14.0593359,12.7641445 19.1273906,11.7421992 C21.6018633,11.2431211 24.1232578,11.7372773 26.2253906,13.1345156 C28.3156289,14.5233047 29.7436289,16.6387266 30.2510742,19.0949883 C30.253207,19.1096719 30.2552578,19.1250938 30.2580469,19.1397773 C31.0364414,22.9960664 31.1092852,26.9048555 30.4750195,30.7555664 C30.4126758,31.13775 30.6709922,31.4975391 31.0525195,31.5605391 C31.0909922,31.5661172 31.1288086,31.5696445 31.166625,31.5696445 C31.5032812,31.5696445 31.8001523,31.3260117 31.8568359,30.9830391 C32.5155469,26.9790117 32.4427031,22.9169063 31.6398633,18.9080391 C31.6377305,18.8927812 31.6356797,18.8773594 31.6321523,18.8619375 Z"/>
    <path fill="#6D797B" d="M36.5538633 22.464832C36.1681523 22.4893594 35.8748906 22.821832 35.8993359 23.207543 36.1520742 27.2206758 35.755125 31.2274102 34.7191523 35.1159375 34.6197305 35.4890156 34.841625 35.8726758 35.2154414 35.9720156 35.2756523 35.9880938 35.3365195 35.996543 35.3960742 35.996543 35.7054961 35.996543 35.9882578 35.789332 36.0722578 35.4757266 37.1474414 31.4409375 37.5590742 27.2835938 37.2965742 23.1193594 37.2727852 22.7336484 36.9486797 22.4403867 36.5538633 22.464832zM30.6647578 33.3512813C30.2888906 33.2498086 29.9073633 33.4723594 29.8079414 33.8461758 29.2745742 35.8362539 28.5472031 37.784332 27.6442031 39.6365977 27.4748086 39.9844922 27.6196758 40.4030977 27.9669141 40.5724922 28.0663359 40.6208086 28.1699414 40.6432031 28.2735469 40.6432031 28.5325195 40.6432031 28.7817305 40.4989922 28.9028086 40.2497813 29.8450195 38.317043 30.6038086 36.2843086 31.1595703 34.2080977 31.2604687 33.8349375 31.0385742 33.4507031 30.6647578 33.3512813zM26.4297305 27.9899648C26.0482031 27.9465703 25.6982578 28.2217031 25.6548633 28.6059375 25.1550469 32.983043 23.5688906 37.2306211 21.0663633 40.8881484 20.8479961 41.2066758 20.929207 41.6420156 21.2483906 41.8604648 21.3694687 41.9437266 21.506707 41.9829375 21.643207 41.9829375 21.8664961 41.9829375 22.0863398 41.876543 22.2214453 41.6784375 24.8527617 37.8333047 26.5208672 33.3680156 27.0458672 28.764832 27.0891797 28.3805977 26.8133086 28.0333594 26.4297305 27.9899648z"/>
  </g>
</svg>
