<svg xmlns="http://www.w3.org/2000/svg" width="21" height="20"><g fill="none"><path fill="#DEE2E6" d="M9.4 7.5h10v3.3h-10z"/><path fill="#868E96" d="M5.81 12.11a.399.399 0 0 0 .029-.38l-.985-2.196a.397.397 0 0 0-.362-.234H2.956a.397.397 0 0 0-.362.235l-.985 2.196a.399.399 0 0 0 .362.561h.55a1.307 1.307 0 0 0-.105.515v.217c0 .183.037.357.105.515H.397a.398.398 0 0 0-.397.398v5.66c0 .22.178.398.397.398H5.44c.22 0 .397-.178.397-.398v-5.66a.398.398 0 0 0-.397-.398h-.512c.068-.158.105-.332.105-.515v-.217c0-.183-.037-.357-.105-.515h.55c.135 0 .26-.068.333-.182zm-2.597-2.014h1.022l.628 1.4H2.585l.628-1.4zm1.025 2.711v.217a.515.515 0 0 1-1.028 0v-.217a.515.515 0 0 1 1.028 0zm.804 1.528v1.147h-1.58a.398.398 0 0 0 0 .796h1.58v.978h-1.58a.398.398 0 0 0 0 .796h1.58v1.147H.794v-4.864h4.248zm5.519-4.317c0 .22-.178.398-.397.398h-.099a.398.398 0 0 1 0-.796h.099c.22 0 .397.178.397.398zm6.911-1.745c0 .22-.177.398-.397.398h-.098a.398.398 0 0 1 0-.796h.098c.22 0 .397.179.397.398zm1.383 1.745c0 .22-.178.398-.397.398h-.099a.398.398 0 0 1 0-.796h.099c.219 0 .397.178.397.398zm.731-3.796h-1.989a.398.398 0 0 0-.372-.54h-2.52a.398.398 0 0 0-.372.54h-6.22A1.661 1.661 0 0 0 6.7 3.696H3.267c-.316 0-.612.089-.863.243V1.22c0-.664-.54-1.204-1.202-1.204C.539.016 0 .556 0 1.22v10.79a.398.398 0 1 0 .794 0V1.22a.409.409 0 0 1 .816 0v6.858a.398.398 0 1 0 .794 0v-1.06h5.158v3.42c0 .9.73 1.632 1.628 1.632h10.976v1.73H6.991a.398.398 0 0 0 0 .796h11.566v.865c0 .22.178.398.397.398h1.61c.219 0 .397-.178.397-.398V7.6c0-.76-.617-1.377-1.375-1.377zm-12.887 0H3.267a.865.865 0 0 1 0-1.73H6.7a.865.865 0 0 1 0 1.73zm13.467 8.841h-.815v-.467h.815v.467zm0-3.79H9.19a.835.835 0 0 1-.833-.834V7.018h11.23c.32 0 .58.26.58.58v3.676zm-4.076-1.255c0 .22-.178.398-.397.398h-.098a.398.398 0 0 1 0-.796h.098c.22 0 .397.178.397.398zm-4.147-1.745c0 .22-.178.398-.397.398h-.098a.398.398 0 0 1 0-.796h.098c.22 0 .397.179.397.398zm2.765 0c0 .22-.178.398-.397.398h-.099a.398.398 0 0 1 0-.796h.099c.22 0 .397.179.397.398zm-1.382 1.745c0 .22-.178.398-.398.398h-.098a.398.398 0 0 1 0-.796h.098c.22 0 .398.178.398.398z"/></g></svg>