<svg xmlns="http://www.w3.org/2000/svg" width="20" height="20"><g fill="none"><path fill="#CED4DA" d="M14.3 8.5h4.3v6.75h-4.3z"/><path fill="#868E96" d="M18.944 19.902a.326.326 0 0 1-.233-.097.336.336 0 0 1 0-.472l.146-.147H3.833l.146.147a.336.336 0 0 1 0 .472.326.326 0 0 1-.465 0l-.7-.709a.335.335 0 0 1-.096-.24v-.004c0-.114.058-.215.144-.275l.668-.677a.326.326 0 0 1 .465 0 .336.336 0 0 1 0 .471l-.145.148h15.023l-.145-.148a.336.336 0 0 1 0-.471.326.326 0 0 1 .465 0l.699.708a.334.334 0 0 1 .096.24v.004a.334.334 0 0 1-.144.276l-.668.677a.325.325 0 0 1-.232.097zM1.036 17.586a.327.327 0 0 1-.272-.146l-.668-.677a.336.336 0 0 1 0-.471.326.326 0 0 1 .466 0l.145.147V1.215l-.145.148a.326.326 0 0 1-.466 0 .336.336 0 0 1 0-.471l.7-.709a.335.335 0 0 1 .513.049l.667.676a.336.336 0 0 1 0 .472.326.326 0 0 1-.465 0l-.146-.148v15.224l.146-.148a.326.326 0 0 1 .465 0 .336.336 0 0 1 0 .472l-.699.708a.324.324 0 0 1-.237.098h-.004zm18.623-.943H3.763a.331.331 0 0 1-.33-.334V.42c0-.184.148-.333.33-.333h9.499c.182 0 .329.149.329.333v6.47h6.068c.182 0 .329.149.329.333v9.087a.331.331 0 0 1-.329.334zm-6.082-.667h5.753v-8.42h-5.753v8.42zm-6.302 0h5.644v-4.465H7.275v4.465zm-3.183 0h2.525v-4.465H4.092v4.465zm2.854-5.132h5.973V7.222c0-.034.005-.066.014-.097v-3.48H4.092v7.2h2.854zm1.888-7.866h4.1V.752h-4.1v2.226zm-4.742 0h4.084V.752H4.092v2.226z"/></g></svg>