<svg xmlns="http://www.w3.org/2000/svg" width="24" height="24"><g fill="#1C9FE0"><path d="M0 22.196C0 23.192.805 24 1.804 24h20.392c.996 0 1.804-.805 1.804-1.804V1.804C24 .808 23.195 0 22.196 0H1.804C.808 0 0 .805 0 1.804v20.392zm19.344-16.52L16.772 18.85c-.06.311-.403.452-.644.265l-3.51-2.715a.553.553 0 0 0-.708.021l-1.947 1.69c-.225.197-.566.087-.652-.209l-1.352-4.63-3.491-1.387c-.355-.142-.358-.675-.004-.82l14.329-5.888c.304-.126.617.158.551.498z"/><path d="M16.639 7.913l-7.05 4.374a.718.718 0 0 0-.31.805l.761 2.698c.055.191.33.172.356-.026l.199-1.48c.037-.278.169-.535.373-.727l5.819-5.448c.109-.102-.022-.274-.148-.196z"/></g></svg>