<svg xmlns="http://www.w3.org/2000/svg" width="21" height="18"><g fill="none" fill-rule="evenodd"><path d="M-3-3h24v24H-3z"/><path fill="#55ACEE" fill-rule="nonzero" d="M21 2.048A9.075 9.075 0 0 1 18.841 4.3a12.496 12.496 0 0 1-.493 4.063 12.705 12.705 0 0 1-1.539 3.35 13.12 13.12 0 0 1-2.458 2.836c-.95.822-2.097 1.478-3.438 1.968-1.341.49-2.776.734-4.304.734-2.407 0-4.61-.651-6.609-1.954.31.036.657.054 1.04.054 1.998 0 3.78-.62 5.343-1.86a4.166 4.166 0 0 1-2.505-.87 4.257 4.257 0 0 1-1.52-2.149c.294.045.565.068.813.068.382 0 .76-.05 1.133-.149a4.226 4.226 0 0 1-2.472-1.502c-.653-.795-.98-1.718-.98-2.77v-.054a4.234 4.234 0 0 0 1.946.553A4.33 4.33 0 0 1 1.4 5.067a4.28 4.28 0 0 1-.52-2.075c0-.79.196-1.523.587-2.197A12.228 12.228 0 0 0 5.39 4.01a11.887 11.887 0 0 0 4.95 1.341 4.888 4.888 0 0 1-.106-.997c0-1.204.42-2.23 1.259-3.08C12.333.426 13.347 0 14.537 0c1.244 0 2.292.458 3.145 1.375A8.381 8.381 0 0 0 20.414.323a4.218 4.218 0 0 1-1.892 2.4A8.5 8.5 0 0 0 21 2.047z"/></g></svg>