<svg xmlns="http://www.w3.org/2000/svg" width="39" height="42" viewBox="0 0 39 42">
  <g fill="none">
    <path fill="#B3B7BC" d="M23.7010898 14.6839219C23.7010898 15.0702891 24.0116242 15.3838945 24.3958434 15.3838945L31.3436242 15.3838945C31.7278434 15.3838945 32.0383779 15.0702891 32.0383779 14.6839219 32.0383779 14.2975547 31.7278434 13.9839492 31.3436242 13.9839492L24.3958434 13.9839492C24.0116242 13.9838672 23.7010898 14.2974727 23.7010898 14.6839219zM27.8697745 18.8839219C27.8697745 19.2702891 28.180309 19.5838945 28.5645282 19.5838945L32.7332129 19.5838945C33.1174322 19.5838945 33.4279666 19.2702891 33.4279666 18.8839219 33.4279666 18.4975547 33.1174322 18.1839492 32.7332129 18.1839492L28.5645282 18.1839492C28.180309 18.1838672 27.8697745 18.4974727 27.8697745 18.8839219zM27.1749395 11.1838945C27.5591587 11.1838945 27.8696931 10.8702891 27.8696931 10.4839219 27.8696931 10.0975547 27.5591587 9.78394922 27.1749395 9.78394922L25.7853507 9.78394922C25.4011315 9.78394922 25.0905971 10.0975547 25.0905971 10.4839219 25.0905971 10.8702891 25.4011315 11.1838945 25.7853507 11.1838945L27.1749395 11.1838945zM18.8375699 18.1838672C18.4533507 18.1838672 18.1428163 18.4974727 18.1428163 18.8838398 18.1428163 19.270207 18.4533507 19.5838125 18.8375699 19.5838125L25.7853507 19.5838125C26.1695699 19.5838125 26.4801044 19.270207 26.4801044 18.8838398 26.4801044 18.4974727 26.1695699 18.1838672 25.7853507 18.1838672L18.8375699 18.1838672z"/>
    <path fill="#7D848C" d="M22.311501,37.7839219 L9.11069311,37.7839219 C7.96153653,37.7839219 7.02635073,36.8417109 7.02635073,35.6839219 L7.02635073,3.48386719 C7.02635073,3.0975 6.71581628,2.78389453 6.33159708,2.78389453 C4.416119,2.78389453 2.85766597,4.35397266 2.85766597,6.28392188 C2.85766597,6.67028906 3.16820042,6.98389453 3.55241962,6.98389453 C3.93663883,6.98389453 4.24717328,6.67028906 4.24717328,6.28392188 C4.24717328,5.37107813 4.82802088,4.59268359 5.636762,4.30360547 L5.636762,35.6839219 C5.636762,37.6137891 7.19513361,39.1839492 9.11069311,39.1839492 L22.311501,39.1839492 C22.6957203,39.1839492 23.0062547,38.8703438 23.0062547,38.4839766 C23.0062547,38.0976094 22.6957203,37.7839219 22.311501,37.7839219 Z"/>
    <path fill="#B3B7BC" d="M11.8897891 15.3838945L21.6167474 15.3838945C22.0009666 15.3838945 22.311501 15.0702891 22.311501 14.6839219 22.311501 14.2975547 22.0009666 13.9839492 21.6167474 13.9839492L11.8897891 13.9839492C11.5055699 13.9839492 11.1950355 14.2975547 11.1950355 14.6839219 11.1950355 15.0702891 11.5055699 15.3838945 11.8897891 15.3838945zM11.8897891 11.1838945L14.6688852 11.1838945C15.0531044 11.1838945 15.3636388 10.8702891 15.3636388 10.4839219 15.3636388 10.0975547 15.0531044 9.78394922 14.6688852 9.78394922L11.8897891 9.78394922C11.5055699 9.78394922 11.1950355 10.0975547 11.1950355 10.4839219 11.1950355 10.8702891 11.5055699 11.1838945 11.8897891 11.1838945zM23.0062547 9.78386719L17.4479812 9.78386719C17.063762 9.78386719 16.7532276 10.0974727 16.7532276 10.4838398 16.7532276 10.870207 17.063762 11.1838125 17.4479812 11.1838125L23.0062547 11.1838125C23.3904739 11.1838125 23.7010084 10.870207 23.7010084 10.4838398 23.7010898 10.0974727 23.3904739 9.78386719 23.0062547 9.78386719z"/>
    <path fill="#7D848C" d="M32.7332129,0 L6.33151566,0 C2.89161795,0 0.0916784969,2.81326172 0.0784885177,6.27547266 L0.0784885177,6.28383984 L0.0784885177,6.29155078 L0.0784885177,6.3 L0.0784885177,6.30836719 C0.087526096,8.54068359 1.2832547,10.6203398 3.20426931,11.7403945 C3.53637996,11.9335781 3.96090188,11.8194727 4.15329645,11.4856055 C4.3464238,11.151 4.23178497,10.7226328 3.9004071,10.5293672 C2.40253027,9.65507813 1.47084551,8.0325 1.46807724,6.29163281 C1.47296242,3.59378906 3.65248434,1.40002734 6.33151566,1.40002734 L32.7332129,1.40002734 C35.4143612,1.40002734 37.5966514,3.59805469 37.5966514,6.3 L37.5966514,35.7 C37.5966514,36.0548672 37.4979708,36.4112109 37.3124969,36.729 C37.1186367,37.0622109 37.2283904,37.4913164 37.5591169,37.6872891 C37.6702547,37.7530781 37.7911628,37.7839219 37.9106868,37.7839219 C38.1490021,37.7839219 38.381048,37.6607109 38.510261,37.4388164 C38.8215282,36.9061055 38.9861587,36.3048164 38.9861587,35.7 L38.9861587,6.3 C38.9862401,2.82589453 36.1814154,0 32.7332129,0 Z"/>
    <path fill="#55ADC9" d="M34.8175553 32.1838945C34.8175553 29.8675781 32.9479165 27.9838945 30.6488706 27.9838945 28.3498246 27.9838945 26.4801858 29.8675781 26.4801858 32.1838945 26.4801858 34.5002109 28.3498246 36.3838945 30.6488706 36.3838945 32.9479165 36.3838945 34.8175553 34.5002109 34.8175553 32.1838945zM30.6488706 34.9838672C29.1161461 34.9838672 27.8697745 33.7280508 27.8697745 32.1838945 27.8697745 30.6397383 29.1162276 29.3839219 30.6488706 29.3839219 32.181595 29.3839219 33.4279666 30.6397383 33.4279666 32.1838945 33.4279666 33.7280508 32.181595 34.9838672 30.6488706 34.9838672zM29.3947641 37.0846055C29.0633862 36.8914219 28.6381315 37.0061836 28.4456555 37.3407891L26.9498142 39.9525 26.7122317 39.5913164C26.5920564 39.4072383 26.3926597 39.291 26.1744551 39.2784492L25.745048 39.2525273 27.2659666 36.5995547C27.4577098 36.2649492 27.3438038 35.836582 27.0116931 35.6433164 26.6795825 35.4493945 26.2544092 35.5642383 26.0619332 35.8995L23.9797077 39.5332383C23.8595324 39.7432383 23.8560313 40.0015547 23.9699374 40.215 24.0838434 40.4284453 24.2992797 40.5678164 24.5403633 40.5817617L25.7443967 40.6545234 26.4092693 41.6688398C26.5378309 41.8655508 26.7559541 41.9831016 26.9887328 41.9831016L27.010309 41.9831016C27.2500084 41.9753906 27.4702484 41.8430742 27.5911566 41.6330742L29.6497704 38.0406797C29.8415136 37.7062383 29.7276075 37.2777891 29.3947641 37.0846055zM35.2538831 35.9323945C35.0614071 35.5971328 34.635501 35.4822891 34.3047745 35.6762109 33.9720125 35.8693945 33.8580251 36.2978437 34.0497683 36.6323672L35.5526117 39.2524453 35.1232046 39.2783672C34.9050814 39.2916562 34.7056848 39.4078945 34.5847766 39.5912344L34.3485783 39.952418 32.8603904 37.3539961C32.667263 37.0193906 32.2420084 36.9046289 31.9106305 37.0978125 31.5785198 37.2909961 31.4646138 37.7194453 31.656357 38.0540508L33.7073173 41.6331562C33.8282255 41.8431562 34.0484656 41.9754727 34.2881649 41.9831836L34.3097411 41.9831836C34.5417871 41.9831836 34.760643 41.8655508 34.8898559 41.6689219L35.5540772 40.6553437 36.7574593 40.5818437C36.9985428 40.5678164 37.2138977 40.4285273 37.3278852 40.215082 37.4418727 40.0016367 37.4376388 39.7433203 37.3181962 39.5333203L35.2538831 35.9323945z"/>
    <path fill="#B3B7BC" d="M11.8897891 19.5838945L16.0584739 19.5838945C16.4426931 19.5838945 16.7532276 19.2702891 16.7532276 18.8839219 16.7532276 18.4975547 16.4426931 18.1839492 16.0584739 18.1839492L11.8897891 18.1839492C11.5055699 18.1839492 11.1950355 18.4975547 11.1950355 18.8839219 11.1950355 19.2702891 11.5055699 19.5838945 11.8897891 19.5838945zM11.8897891 23.7838945L20.2271587 23.7838945C20.6113779 23.7838945 20.9219123 23.4702891 20.9219123 23.0839219 20.9219123 22.6975547 20.6113779 22.3839492 20.2271587 22.3839492L11.8897891 22.3839492C11.5055699 22.3839492 11.1950355 22.6975547 11.1950355 23.0839219 11.1950355 23.4702891 11.5055699 23.7838945 11.8897891 23.7838945z"/>
    <path fill="#55ADC9" d="M11.9633925,32.4967617 C12.1342923,32.8425234 12.5518935,32.9825508 12.8950772,32.8103672 C13.238261,32.6374453 13.377977,32.2167891 13.2056117,31.8709453 C12.5177787,30.4849453 12.3635699,29.2417617 12.7915115,28.5438398 C13.019405,28.1721562 13.4168142,27.9838125 13.9740501,27.9838125 C14.305428,27.9838125 14.4291044,28.0985742 14.5069415,28.2106289 C15.0245261,28.9624453 14.5326701,31.2521016 14.0178539,32.6381016 C13.903215,32.9467852 14.0178539,33.2940234 14.2929708,33.4725234 C14.5667035,33.6496289 14.9286952,33.6111562 15.1600898,33.3787617 C15.4567829,33.0805781 15.7784718,32.7830508 16.0584739,32.5415508 L16.0584739,32.8838672 C16.0584739,33.1666289 16.2273382,33.4221563 16.4871482,33.5299453 C16.7469582,33.6391289 17.0450355,33.578918 17.2444322,33.3787617 C17.5619687,33.0595781 17.9301482,32.7466289 18.2400313,32.5212891 C18.2317265,32.5387617 18.2233403,32.5555781 18.2150355,32.5716562 C18.1087015,32.7886289 18.1205073,33.0462891 18.2470334,33.2520234 C18.3742109,33.4578398 18.5972192,33.5838398 18.8375699,33.5838398 L21.616666,33.5838398 C22.0008852,33.5838398 22.3114196,33.2702344 22.3114196,32.8838672 C22.3114196,32.4975 22.0008852,32.1838945 21.616666,32.1838945 L19.8081733,32.1838945 C19.8644342,31.8506836 19.8505929,31.5118945 19.6831127,31.2388945 C19.5059436,30.9498164 19.1974447,30.7838672 18.8375699,30.7838672 C18.4081628,30.7838672 17.9031169,31.0470234 17.4417933,31.3732617 C17.4063758,31.0680234 17.2270898,30.8167617 16.9547411,30.7033945 C16.7692672,30.6263672 16.5302192,30.5256328 15.9501044,30.8763164 C16.1786493,29.6702109 16.2454134,28.2800273 15.6492589,27.4134492 C15.3887161,27.0347109 14.8870898,26.5839492 13.9741315,26.5839492 C12.9333445,26.5839492 12.0933382,27.0186328 11.6091357,27.8082656 C10.9164175,28.938 11.0448977,30.6467109 11.9633925,32.4967617 Z"/>
    <path fill="#B3B7BC" d="M30.6488706,23.0839219 C30.6488706,22.6975547 30.3383361,22.3839492 29.9541169,22.3839492 L23.0063361,22.3839492 C22.6221169,22.3839492 22.3115825,22.6975547 22.3115825,23.0839219 C22.3115825,23.4702891 22.6221169,23.7838945 23.0063361,23.7838945 L29.9541169,23.7838945 C30.3383361,23.7838945 30.6488706,23.4702891 30.6488706,23.0839219 Z"/>
  </g>
</svg>
