<svg xmlns="http://www.w3.org/2000/svg" width="39" height="42" viewBox="0 0 39 42">
  <g fill="none">
    <path fill="#B3B7BC" d="M10.4489812 18.1645497L9.05648536 18.1645497C8.67146234 18.1645497 8.36027824 18.4775439 8.36027824 18.8631579 8.36027824 19.2487719 8.67146234 19.5617661 9.05648536 19.5617661L10.4489812 19.5617661C10.8340042 19.5617661 11.1451883 19.2487719 11.1451883 18.8631579 11.1451883 18.4775439 10.8340042 18.1645497 10.4489812 18.1645497zM10.4489812 30.7399883L9.05648536 30.7399883C8.67146234 30.7399883 8.36027824 31.0529825 8.36027824 31.4385965 8.36027824 31.8242105 8.67146234 32.1372047 9.05648536 32.1372047L10.4489812 32.1372047C10.8340042 32.1372047 11.1451883 31.8242105 11.1451883 31.4385965 11.1451883 31.0529825 10.8340042 30.7399883 10.4489812 30.7399883z"/>
    <path fill="#55ADC9" d="M10.4489812,22.3563626 L9.05648536,22.3563626 C8.67146234,22.3563626 8.36027824,22.6693567 8.36027824,23.0549708 C8.36027824,23.4405848 8.67146234,23.7535789 9.05648536,23.7535789 L10.4489812,23.7535789 C10.8340042,23.7535789 11.1451883,23.4405848 11.1451883,23.0549708 C11.1451883,22.6693567 10.8340042,22.3563626 10.4489812,22.3563626 Z"/>
    <path fill="#7D848C" d="M7.66398954,5.58911111 L3.48658368,5.58911111 C3.10156067,5.58911111 2.79037657,5.90210526 2.79037657,6.2877193 L2.79037657,36.3290175 C2.79037657,37.8702456 4.03943724,39.1235322 5.57528661,39.1235322 L21.5887029,39.1235322 C21.9737259,39.1235322 22.28491,38.810538 22.28491,38.424924 C22.28491,38.0393099 21.9737259,37.7263158 21.5887029,37.7263158 L5.57528661,37.7263158 C4.80736192,37.7263158 4.18279079,37.0996725 4.18279079,36.3290175 L4.18279079,6.98632749 L7.66398954,6.98632749 C8.04901255,6.98632749 8.36019665,6.67333333 8.36019665,6.2877193 C8.36019665,5.90210526 8.04901255,5.58911111 7.66398954,5.58911111 Z"/>
    <path fill="#B3B7BC" d="M10.4489812,26.5481754 L9.05648536,26.5481754 C8.67146234,26.5481754 8.36027824,26.8611696 8.36027824,27.2467836 C8.36027824,27.6323977 8.67146234,27.9453918 9.05648536,27.9453918 L10.4489812,27.9453918 C10.8340042,27.9453918 11.1451883,27.6323977 11.1451883,27.2467836 C11.1451883,26.8611696 10.8340042,26.5481754 10.4489812,26.5481754 Z"/>
    <path fill="#7D848C" d="M28.5510188,6.98632749 L32.0322176,6.98632749 L32.0322176,24.4521871 C32.0322176,24.8378012 32.3434017,25.1507953 32.7284247,25.1507953 C33.1134477,25.1507953 33.4246318,24.8378012 33.4246318,24.4521871 L33.4246318,6.2877193 C33.4246318,5.90210526 33.1134477,5.58911111 32.7284247,5.58911111 L28.5510188,5.58911111 C28.1659958,5.58911111 27.8548117,5.90210526 27.8548117,6.2877193 C27.8548117,6.67333333 28.1659958,6.98632749 28.5510188,6.98632749 Z"/>
    <path fill="#55ADC9" d="M13.9300983,23.0549708 C13.9300983,23.4405848 14.2412824,23.7535789 14.6263054,23.7535789 L27.158523,23.7535789 C27.543546,23.7535789 27.8547301,23.4405848 27.8547301,23.0549708 C27.8547301,22.6693567 27.543546,22.3563626 27.158523,22.3563626 L14.6263054,22.3563626 C14.241364,22.3563626 13.9300983,22.6693567 13.9300983,23.0549708 Z"/>
    <path fill="#B3B7BC" d="M20.1962071,32.1372047 C20.5812301,32.1372047 20.8924142,31.8242105 20.8924142,31.4385965 C20.8924142,31.0529825 20.5812301,30.7399883 20.1962071,30.7399883 L14.6263054,30.7399883 C14.2412824,30.7399883 13.9300983,31.0529825 13.9300983,31.4385965 C13.9300983,31.8242105 14.2412824,32.1372047 14.6263054,32.1372047 L20.1962071,32.1372047 Z"/>
    <path fill="#7D848C" d="M28.5510188,4.19181287 L32.7284247,4.19181287 C33.7435669,4.19181287 34.8171276,5.26907602 34.8171276,6.2877193 L34.8171276,24.452269 C34.8171276,24.837883 35.1283117,25.1508772 35.5133347,25.1508772 C35.8983577,25.1508772 36.2095418,24.837883 36.2095418,24.452269 L36.2095418,6.2877193 C36.2095418,4.49219883 34.5176925,2.79451462 32.7283431,2.79451462 L28.5509372,2.79451462 C28.1659142,2.79451462 27.8547301,3.10750877 27.8547301,3.49312281 C27.8548117,3.87881871 28.1659958,4.19181287 28.5510188,4.19181287 Z"/>
    <path fill="#55ADC9" d="M33.6286883,32.3419649 L30.6397218,35.3412398 L29.043251,33.7391813 C28.7709854,33.4659766 28.3309707,33.4659766 28.0587866,33.7391813 C27.7865209,34.012386 27.7865209,34.4539181 28.0587866,34.7270409 L30.1474895,36.8229474 C30.2832552,36.9591813 30.4615293,37.0276257 30.6397218,37.0276257 C30.8179958,37.0276257 30.9961883,36.9591813 31.131954,36.8229474 L34.6131527,33.3297427 C34.8853368,33.0566199 34.8853368,32.6150058 34.6131527,32.341883 C34.3409686,32.0687602 33.900954,32.0687602 33.6286883,32.3419649 Z"/>
    <path fill="#B3B7BC" d="M23.6774059,27.2467836 C23.6774059,26.8611696 23.3662218,26.5481754 22.9811987,26.5481754 L14.626387,26.5481754 C14.241364,26.5481754 13.9301799,26.8611696 13.9301799,27.2467836 C13.9301799,27.6323977 14.241364,27.9453918 14.626387,27.9453918 L22.9811987,27.9453918 C23.3662218,27.9453918 23.6774059,27.6323977 23.6774059,27.2467836 Z"/>
    <path fill="#7D848C" d="M22.9811987,40.5208304 L3.48658368,40.5208304 C2.47144142,40.5208304 1.39788075,39.4435673 1.39788075,38.424924 L1.39788075,6.2877193 C1.39788075,5.26907602 2.47144142,4.19181287 3.48658368,4.19181287 L7.66398954,4.19181287 C8.04901255,4.19181287 8.36019665,3.87881871 8.36019665,3.49320468 C8.36019665,3.10759064 8.04901255,2.79459649 7.66398954,2.79459649 L3.48658368,2.79459649 C1.69723431,2.79459649 0.00538493724,4.4922807 0.00538493724,6.28780117 L0.00538493724,38.4250058 C0.00538493724,40.2205263 1.69723431,41.9182105 3.48658368,41.9182105 L22.9811172,41.9182105 C23.3661402,41.9182105 23.6773243,41.6052164 23.6773243,41.2196023 C23.6773243,40.8339883 23.3662218,40.5208304 22.9811987,40.5208304 Z"/>
    <path fill="#7D848C" d="M10.4489812,8.38362573 L25.7661088,8.38362573 C26.1511318,8.38362573 26.4623159,8.07063158 26.4623159,7.68501754 L26.4623159,3.49320468 C26.4623159,3.10759064 26.1511318,2.79459649 25.7661088,2.79459649 L22.0460962,2.79459649 C21.4647678,1.14578947 19.8905711,0 18.1075042,0 C16.3244372,0 14.7502406,1.14578947 14.1689121,2.79451462 L10.4488996,2.79451462 C10.0638766,2.79451462 9.75269247,3.10750877 9.75269247,3.49312281 L9.75269247,7.68493567 C9.75269247,8.07063158 10.0639582,8.38362573 10.4489812,8.38362573 Z M11.1451883,4.19181287 L14.6967176,4.19181287 C15.0274017,4.19181287 15.3128849,3.95774269 15.3783201,3.63222222 C15.640795,2.33693567 16.7881946,1.39729825 18.1075858,1.39729825 C19.426977,1.39729825 20.5743766,2.33693567 20.8368515,3.63222222 C20.9022866,3.95782456 21.1877699,4.19181287 21.518454,4.19181287 L25.0699833,4.19181287 L25.0699833,6.98632749 L11.1451883,6.98632749 L11.1451883,4.19181287 Z"/>
    <path fill="#B3B7BC" d="M31.3360105,26.5481754 C27.1133222,26.5481754 23.6774059,29.9959415 23.6774059,34.233193 C23.6774059,38.4704444 27.1133222,41.9181287 31.3360105,41.9181287 C35.5586987,41.9181287 38.9946151,38.4703626 38.9946151,34.2331111 C38.9946151,29.9958596 35.5586172,26.5481754 31.3360105,26.5481754 Z M31.3360105,40.5208304 C27.8805941,40.5208304 25.0699017,37.6997076 25.0699017,34.2331111 C25.0699017,30.7665146 27.8805941,27.9453918 31.3360105,27.9453918 C34.7914268,27.9453918 37.6021192,30.7665146 37.6021192,34.2331111 C37.6021192,37.6997076 34.7914268,40.5208304 31.3360105,40.5208304 Z"/>
    <path fill="#55ADC9" d="M9.05648536,15.3699532 L10.4489812,15.3699532 C10.8340042,15.3699532 11.1451883,15.0569591 11.1451883,14.671345 C11.1451883,14.285731 10.8340042,13.9727368 10.4489812,13.9727368 L9.05648536,13.9727368 C8.67146234,13.9727368 8.36027824,14.285731 8.36027824,14.671345 C8.36027824,15.0569591 8.67146234,15.3699532 9.05648536,15.3699532 Z"/>
    <path fill="#B3B7BC" d="M18.1075042 2.79451462C17.3395795 2.79451462 16.7150084 3.42115789 16.7150084 4.19181287 16.7150084 4.96238596 17.3394979 5.58911111 18.1075042 5.58911111 18.8754289 5.58911111 19.5 4.96246784 19.5 4.19181287 19.5 3.42123977 18.8755105 2.79451462 18.1075042 2.79451462zM14.626387 19.5617661L24.3736946 19.5617661C24.7587176 19.5617661 25.0699017 19.2487719 25.0699017 18.8631579 25.0699017 18.4775439 24.7587176 18.1645497 24.3736946 18.1645497L14.626387 18.1645497C14.241364 18.1645497 13.9301799 18.4775439 13.9301799 18.8631579 13.9301799 19.2487719 14.241364 19.5617661 14.626387 19.5617661z"/>
    <path fill="#55ADC9" d="M14.626387,15.3699532 L25.7661088,15.3699532 C26.1511318,15.3699532 26.4623159,15.0569591 26.4623159,14.671345 C26.4623159,14.285731 26.1511318,13.9727368 25.7661088,13.9727368 L14.626387,13.9727368 C14.241364,13.9727368 13.9301799,14.285731 13.9301799,14.671345 C13.9301799,15.0569591 14.241364,15.3699532 14.626387,15.3699532 Z"/>
  </g>
</svg>
