<svg xmlns="http://www.w3.org/2000/svg" width="42" height="42" viewBox="0 0 42 42">
  <g fill="none">
    <path fill="#B3B7BC" d="M23.8292281 19.8792632C23.9528538 20.1210292 24.1987953 20.2607018 24.4530877 20.2607018 24.5592749 20.2607018 24.6682456 20.2362222 24.7696023 20.1845614 24.8107836 20.1636023 28.9230175 18.074655 30.9511345 17.4340117 31.318655 17.317345 31.5225965 16.9246901 31.4059298 16.5572515 31.2899181 16.189731 30.9001287 15.9850526 30.5291696 16.1010643 28.3927368 16.7766667 24.3085029 18.851614 24.1352632 18.9396257 23.7914854 19.1142573 23.6545965 19.5349123 23.8292281 19.8792632zM24.4530877 11.8771579C24.5592749 11.8771579 24.6682456 11.8526784 24.7696023 11.8010175 24.8107836 11.7800585 28.9230175 9.69111111 30.9511345 9.05046784 31.318655 8.93380117 31.5225965 8.5411462 31.4059298 8.1737076 31.2899181 7.80618713 30.9001287 7.60150877 30.5291696 7.71752047 28.3927368 8.39312281 24.3085029 10.4680702 24.1352632 10.5560819 23.7915673 10.7307135 23.6545965 11.1512865 23.8292281 11.4957193 23.9528538 11.7374035 24.1987953 11.8771579 24.4530877 11.8771579z"/>
    <path fill="#7D848C" d="M41.2196842,10.4798596 C40.8333333,10.4798596 40.521076,10.7928538 40.521076,11.1784678 L40.521076,38.4252515 C40.521076,39.5807836 39.5807018,40.5211579 38.4251696,40.5211579 L21.6579181,40.5211579 L21.6579181,38.913614 C22.6765614,38.5573099 25.3299298,37.7266433 27.9456374,37.7266433 C34.031462,37.7266433 38.1639181,39.0743275 38.2050994,39.0882456 C38.415345,39.1580819 38.650152,39.1232047 38.8338713,38.9918012 C39.0161988,38.8604795 39.1237778,38.6494971 39.1237778,38.4251696 L39.1237778,7.68534503 C39.1237778,7.35769591 38.8967485,7.0740117 38.5767135,7.0034386 C38.5767135,7.0034386 38.0289942,6.88120468 37.0927953,6.70927485 C36.7147953,6.6394386 36.3494854,6.89094737 36.2795673,7.26960234 C36.209731,7.64964912 36.4605029,8.01364912 36.8398947,8.08348538 C37.1969357,8.1491462 37.4959298,8.20711111 37.7264795,8.25328655 L37.7264795,37.4967485 C36.1433333,37.0817427 32.6278596,36.329345 27.9455556,36.329345 C24.9015789,36.329345 21.9114737,37.329076 20.9864094,37.6679415 C20.1640936,37.3046784 17.6783977,36.329345 14.6714269,36.329345 C9.85919298,36.329345 5.8951462,37.1230058 4.19189474,37.5261404 L4.19189474,8.22602339 C5.58706433,7.88298246 9.70764912,6.98665497 14.6714269,6.98665497 C17.2186901,6.98665497 19.4032632,7.77957895 20.260538,8.1380117 L20.260538,35.6307368 C20.260538,35.8822456 20.3960351,36.114924 20.6147135,36.2385497 C20.8333918,36.3629123 21.103076,36.3593918 21.3189708,36.229462 C21.388152,36.1882807 28.3102105,32.0536959 34.454,30.0060117 C34.739731,29.9103041 34.931883,29.6441404 34.931883,29.3430175 L34.931883,0.698935673 C34.931883,0.469777778 34.8193918,0.255274854 34.6307602,0.124690058 C34.4435205,-0.00597660819 34.2032281,-0.0360233918 33.9873333,0.044374269 C28.3975673,2.14093567 22.7414854,5.66066667 22.6848304,5.69562573 C22.3578363,5.90030409 22.2579532,6.33135673 22.4626316,6.65835088 C22.666655,6.98534503 23.0977076,7.08522807 23.4253567,6.88054971 C23.4770175,6.8477193 28.3975673,3.78630409 33.5345848,1.72044444 L33.5345848,28.8428655 C28.7656608,30.5000234 23.7864912,33.2058713 21.6577544,34.4172398 L21.6577544,7.68534503 C21.6577544,7.4205731 21.5082573,7.17880702 21.2714035,7.06009357 C21.1512164,7.00073684 18.2882573,5.5894386 14.6714269,5.5894386 C8.3585731,5.5894386 3.50515789,6.95529825 3.3011345,7.01391813 C3.00140351,7.0991462 2.79459649,7.37374269 2.79459649,7.68534503 L2.79459649,38.4253333 C2.79459649,38.6440117 2.898,38.8508187 3.07197661,38.9828772 C3.19494737,39.0758012 3.34305263,39.1240234 3.49328655,39.1240234 C3.55755556,39.1240234 3.62182456,39.1149357 3.68470175,39.0967602 C3.73292398,39.0834971 8.5639883,37.7267251 14.6714269,37.7267251 C17.2256491,37.7267251 19.4081754,38.5217778 20.260538,38.8787368 L20.260538,40.5212398 L3.49328655,40.5212398 C2.33775439,40.5212398 1.39738012,39.5808655 1.39738012,38.4253333 L1.39738012,11.1785497 C1.39738012,10.7929357 1.08438596,10.4799415 0.69877193,10.4799415 C0.313157895,10.4799415 0.00016374269,10.7929357 0.00016374269,11.1785497 L0.00016374269,38.4253333 C0.00016374269,40.3514386 1.56718129,41.918538 3.49336842,41.918538 L38.4251696,41.918538 C40.3512749,41.918538 41.9183743,40.3515205 41.9183743,38.4253333 L41.9183743,11.1785497 C41.9182924,10.7928538 41.6060351,10.4798596 41.2196842,10.4798596 Z"/>
    <path fill="#55ADC9" d="M23.8292281,15.6874503 C23.9528538,15.9292164 24.1987953,16.0688889 24.4530877,16.0688889 C24.5592749,16.0688889 24.6682456,16.0444094 24.7696023,15.9927485 C24.8107836,15.9717895 28.9230175,13.8828421 30.9511345,13.2421988 C31.318655,13.1255322 31.5225965,12.7328772 31.4059298,12.3654386 C31.2899181,11.9979181 30.9001287,11.7932398 30.5291696,11.9092515 C28.3927368,12.5848538 24.3085029,14.6598012 24.1352632,14.7478129 C23.7914854,14.9224444 23.6545965,15.3430994 23.8292281,15.6874503 Z"/>
    <path fill="#B3B7BC" d="M23.8292281 24.071076C23.9528538 24.3128421 24.1987953 24.4525146 24.4530877 24.4525146 24.5592749 24.4525146 24.6682456 24.4280351 24.7696023 24.3763743 24.8107836 24.3554152 28.9230175 22.2664678 30.9511345 21.6258246 31.318655 21.5091579 31.5225965 21.1165029 31.4059298 20.7490643 31.2899181 20.3815439 30.9001287 20.1768655 30.5291696 20.2928772 28.3927368 20.9684795 24.3085029 23.0434269 24.1352632 23.1314386 23.7914854 23.3060702 23.6545965 23.7267251 23.8292281 24.071076zM16.9267368 12.9656374C12.6126901 11.9532982 7.71031579 13.2430175 7.50424561 13.2981988 7.13189474 13.3980819 6.91043275 13.7809123 7.01031579 14.154 7.09415205 14.4662573 7.37636257 14.6716725 7.68452632 14.6716725 7.74461988 14.6716725 7.80536842 14.6639766 7.86619883 14.6479298 7.91302924 14.6346667 12.6329942 13.3931696 16.6082573 14.325848 16.982 14.4132047 17.36 14.1805263 17.4480117 13.804655 17.5359415 13.4295205 17.3026082 13.0536491 16.9267368 12.9656374zM16.9267368 17.1574503C12.6126901 16.145848 7.71031579 17.4348304 7.50424561 17.4900117 7.13189474 17.5898947 6.91043275 17.972807 7.01031579 18.3458129 7.09415205 18.6580702 7.37636257 18.8634854 7.68452632 18.8634854 7.74461988 18.8634854 7.80536842 18.8557895 7.86619883 18.8397427 7.91302924 18.8264795 12.6329942 17.5849825 16.6082573 18.5176608 16.982 18.6050175 17.36 18.3723392 17.4480117 17.9964678 17.5359415 17.6213333 17.3026082 17.245462 16.9267368 17.1574503zM23.8292281 28.2628889C23.9528538 28.504655 24.1987953 28.6443275 24.4530877 28.6443275 24.5592749 28.6443275 24.6682456 28.619848 24.7696023 28.5681871 24.8107836 28.5472281 28.9230175 26.4582807 30.9511345 25.8176374 31.318655 25.7009708 31.5225965 25.3083158 31.4059298 24.9408772 31.2899181 24.5734386 30.9001287 24.3686784 30.5291696 24.4846901 28.3927368 25.1602924 24.3085029 27.2352398 24.1352632 27.3232515 23.7914854 27.497883 23.6545965 27.918538 23.8292281 28.2628889z"/>
    <path fill="#55ADC9" d="M16.9267368,21.3492632 C12.6126901,20.3376608 7.71031579,21.6259064 7.50424561,21.6818246 C7.13189474,21.7817076 6.91043275,22.1646199 7.01031579,22.5376257 C7.09415205,22.849883 7.37636257,23.0560351 7.68452632,23.0560351 C7.74461988,23.0560351 7.80536842,23.0476842 7.86619883,23.0315556 C7.91302924,23.0182924 12.6329942,21.7767953 16.6082573,22.7094737 C16.982,22.7968304 17.36,22.564152 17.4480117,22.1882807 C17.5359415,21.8131462 17.3026082,21.4372749 16.9267368,21.3492632 Z"/>
    <path fill="#B3B7BC" d="M16.9267368 29.7328889C12.6126901 28.7205497 7.71031579 30.010269 7.50424561 30.0654503 7.13189474 30.1653333 6.91043275 30.5482456 7.01031579 30.9212515 7.09415205 31.2335088 7.37636257 31.4396608 7.68452632 31.4396608 7.74461988 31.4396608 7.80536842 31.4313099 7.86619883 31.4151813 7.91302924 31.4019181 12.6329942 30.1604211 16.6082573 31.0930994 16.982 31.1797193 17.36 30.9477778 17.4480117 30.5719064 17.5359415 30.1967719 17.3026082 29.8209006 16.9267368 29.7328889zM16.9267368 25.541076C12.6126901 24.5287368 7.71031579 25.8177193 7.50424561 25.8736374 7.13189474 25.9735205 6.91043275 26.3564327 7.01031579 26.7294386 7.09415205 27.0416959 7.37636257 27.247848 7.68452632 27.247848 7.74461988 27.247848 7.80536842 27.2394971 7.86619883 27.2233684 7.91302924 27.2101053 12.6329942 25.9686082 16.6082573 26.9012865 16.982 26.9886433 17.36 26.7559649 17.4480117 26.3800936 17.5359415 26.0049591 17.3026082 25.6290877 16.9267368 25.541076z"/>
  </g>
</svg>
