<svg width="14" height="24" xmlns="http://www.w3.org/2000/svg"><g fill="#585C60" fill-rule="nonzero"><path d="M7 19.6c-.712 0-1.291.597-1.291 1.331 0 .735.58 1.332 1.291 1.332.712 0 1.291-.597 1.291-1.332 0-.734-.579-1.331-1.29-1.331zm0 1.74a.404.404 0 0 1-.397-.409c0-.225.178-.409.397-.409.219 0 .397.184.397.41 0 .225-.178.409-.397.409zM9.118 1.896H6.827a.48.48 0 0 0-.472.487.48.48 0 0 0 .472.486h2.29a.48.48 0 0 0 .472-.486.48.48 0 0 0-.471-.487z"/><ellipse cx="5.378" cy="2.395" rx="1" ry="1"/><path d="M12.505 0H1.495C.674 0 .005.69.005 1.537v20.926c0 .848.669 1.537 1.49 1.537h11.01c.821 0 1.49-.69 1.49-1.537V1.537c0-.848-.669-1.537-1.49-1.537zM13 22.463a.505.505 0 0 1-.496.512H1.495A.505.505 0 0 1 1 22.463V1.537c0-.283.223-.512.496-.512h11.01c.273 0 .496.23.496.512v20.926z"/><path d="M7.837 9.619a.486.486 0 0 0-.702 0l-2.386 2.46a.524.524 0 0 0 0 .725.488.488 0 0 0 .702 0l2.386-2.46a.524.524 0 0 0 0-.725zM9.251 11.045a.486.486 0 0 0-.702 0l-.95.98a.524.524 0 0 0 0 .725.488.488 0 0 0 .702 0l.95-.98a.524.524 0 0 0 0-.725z"/><path d="M11.517 3.792H2.483a.454.454 0 0 0-.447.46v14.123c0 .255.2.461.447.461h9.034a.454.454 0 0 0 .447-.46V4.252c0-.255-.2-.461-.447-.461zm-.447 14.122H2.93v-13.2h8.14v13.2z"/></g></svg>