<svg xmlns="http://www.w3.org/2000/svg" xmlns:xlink="http://www.w3.org/1999/xlink" width="425" height="601"><defs><path id="a" d="M4.338 6.246h66.709V288H4.338z"/><path id="c" d="M25.623 2.724C16.321 10.63 13 38.198 13.24 64.823c0 0 .241 6.035-11.173.91 0 0 6.155-47.228 23.556-63.01"/><linearGradient id="d" x1="50.724%" x2="49.32%" y1="99.676%" y2=".779%"><stop offset="0%" stop-color="#165795"/><stop offset="100%" stop-color="#2272AC"/></linearGradient><path id="f" d="M14.74 78.358l-10.286-5.86c2.15-15.745 5.556-52.495 10.688-58.35 5.178-5.912 9.575-8.644 14.714-11.422-6.598 8.128-8 23.796-13.677 38.078-3.955 9.954-2.611 27.703-1.44 37.554"/><linearGradient id="g" x1="56.285%" x2="43.817%" y1="49.536%" y2="50.978%"><stop offset="0%" stop-color="#2272AC"/><stop offset="100%" stop-color="#165795"/></linearGradient><path id="i" d="M62.647 33.827C52.25 28.65 47.723 23.547 28.305 23.682c-19.412.14-26.08-4.609-26.08-4.609v-.006c.816-5.646 1.409-10.51 1.651-13.895l49.859 9.543L93.878 25.31c.625 15.157 2.926 58.88 3.143 66.968.325 12.235 3.525 36.577 3.525 36.577-5.584 3.563-12.24 5.435-19.443 6.12.013-.307.733-84.196.637-86.67-.095-2.486-8.702-9.286-19.093-14.478"/><linearGradient id="j" x1="51.401%" x2="48.404%" y1="100.825%" y2="-1.35%"><stop offset="0%" stop-color="#165795"/><stop offset="100%" stop-color="#2272AC"/></linearGradient><path id="l" d="M3.262 1.999h345.919V479H3.262z"/><path id="n" d="M28.838 73.124c-.102-.442-.21-.892-.313-1.347l-.474.481C22.08 50.955 9.523 7.116 6.08 4.402c-.102-.077-.211-.16-.333-.25.122.083.23.166.333.25 3.424 2.688 17.773 46.29 22.464 67.452.096.43.198.853.294 1.27z"/></defs><g fill="none" fill-rule="evenodd"><path fill="#16191A" d="M315.95 557.206c-1.352 6.927-27.438 16.527-31.916 21.059-4.484 4.532-1.038 10.636 5.305 11.71 6.342 1.07 25.406 2.441 32.28-2.497 6.88-4.945 8.398-6.767 13.799-5.71 5.406 1.049 11.896-4.366 8.763-23.912-3.132-19.54-28.232-.65-28.232-.65"/><path fill="#165794" d="M308.134 318c-.77 33.829 1.997 64.713 2.844 103.632.846 38.926-1.26 129.119-.974 135.691.28 6.58 30.646 7.276 34.145 6.343 3.487-.926 6.375-106.257 5.77-137.09-.597-30.833-.572-107.63-.572-107.63L308.134 318"/><path fill="#1B65A2" d="M338.361 564c-9.77 0-28.143-1.552-28.365-6.675a59.762 59.762 0 0 1-.026-2.223c0-12.782 1.198-69.778 1.192-110.001 0-8.853-.057-16.889-.197-23.468-.741-34.206-2.959-62.203-2.965-91.452 0-4.03.044-8.087.133-12.181l23.005.53c.843 39.508-3.377 121.397-3.358 141.058.007 16.972-.925 80.541-2.838 103.62 4.758.562 9.75.792 13.47.792 2.756 0 4.821-.128 5.588-.332-.773.21-2.857.332-5.639.332"/><g transform="translate(320 312)"><mask id="b" fill="#fff"><use xlink:href="#a"/></mask><path fill="#165794" d="M28.881 6.662l-18.268-.416c.854 39.584-3.42 121.632-3.4 141.332.006 17.004-.938 80.697-2.875 103.82 8.386.986 17.472.948 19.301.461 3.516-.928 6.43-106.464 5.826-137.357-.61-30.892-.584-107.84-.584-107.84" mask="url(#b)"/><path fill="#272A2C" d="M41.856 252.768c-10.228 11.744-40.772 22.573-34.188 31.014 1.649 2.112 11.8 6.727 28.24 2.49 16.44-4.237 14.213-11.66 22.195-11.936 7.976-.282 17.575-1.888 10.446-20.954l-26.693-.614" mask="url(#b)"/></g><path fill="#165794" d="M341 315c2.032 43.439.975 108.986 1.95 122.892.98 13.899 8.633 55.258 10.323 75.983 1.684 20.724.462 55.507 2.62 55.558 2.159.05 12.869 3.827 22.8 3.553 9.943-.275 13.039-3.732 13.039-3.732s2.582-92.58-8.273-127.873c-6.849-22.262 8.387-121.674 8.387-121.674L341 315"/><path fill="#1B65A2" d="M377.646 573c-9.627 0-19.671-3.515-21.754-3.566-2.158-.05-.936-34.834-2.62-55.558-.69-8.452-2.373-20.336-4.183-32.385-2.64-17.503-5.557-35.37-6.14-43.599-.949-13.535.026-75.983-1.797-119.358-.044-1.193-.101-2.373-.152-3.534l50.842 4.707s-10.152 66.263-10.158 102.704c0 8.197.519 14.888 1.772 18.97 7.36 23.92 8.544 74.153 8.544 104.05 0 14.212-.272 23.825-.272 23.825s-3.095 3.457-13.038 3.731c-.348.013-.696.013-1.044.013"/><path fill="#165794" d="M391.844 319.944L370.569 318c-2.866 40.671-7.58 111.842-4.637 123.11 2.686 10.279 10.49 101.588 7.03 131.636 1.854.178 3.729.293 5.59.242 10.049-.274 13.177-3.728 13.177-3.728s2.61-92.495-8.36-127.755c-6.922-22.241 8.475-121.561 8.475-121.561"/><path fill="#251714" d="M363.94 87.71c-8.775 3.274-43.289-6.186-46.242-11.1 0 0-3.19 4.496-2.344 8.827 0 0-4.875-3.166-2.87-11.613 2.011-8.447 10.473-23.833 22.247-25.897 10-1.748 27.237-2.28 40.068 10.188 12.824 12.474 12.036 39.004-1.07 49.642-13.113 10.644-9.788-20.047-9.788-20.047"/><path fill="#F0BEA3" d="M369.762 93c.096 2.492 4.23 25.078 11.201 32.593 6.97 7.523 5.99 5.688 5.99 5.688L341.88 167 339 148.882l5.868-16.891s3.804-6.072 3.995-9.037c.198-2.972 20.9-29.954 20.9-29.954"/><path fill="#251714" d="M375.114 62.359c8.884 3.92 17.532-11.01 7.145-21.005-11.423-10.997-24.135-3.181-22.028 6.65 2.407 11.205 14.883 14.355 14.883 14.355"/><path fill="#2172AC" d="M294.825 317.39c1.952-10.274 11.496-92.243 10.415-99.854-1.08-7.606-12.24-17.574-12.24-17.574 2.136-15.573 5.532-52.599 10.657-58.471 6.27-7.192 11.37-9.663 18.084-13.255 4.89-2.618 13.226-4.44 17.41-5.236 1.78 1.936 2.015 4.032 6.384 5.134.954.242 2.085.146 3.332-.217-1.113 5.79-4.439 34.35-4.439 34.35 8.457-9.75 38.254-36.031 38.254-36.031s27.558 15.98 27.316 19.917c-.235 3.93-14.408 63.35-15.222 76.497-.814 13.147 3.001 73.46 3.325 85.606.325 12.16 3.517 36.35 3.517 36.35-34.216 21.74-108.04-18.93-108.04-18.93s-.705 1.988 1.247-8.286"/><g transform="translate(371 165)"><mask id="e" fill="#fff"><use xlink:href="#c"/></mask><path fill="url(#d)" d="M25.623 2.724C16.321 10.63 13 38.198 13.24 64.823c0 0 .241 6.035-11.173.91 0 0 6.155-47.228 23.556-63.01" mask="url(#e)"/></g><path fill="#8B8D8E" d="M323.378 217.367l5.244-2.622-3.408-2.112-1.836 4.734"/><path fill="#EEA88E" d="M374 108.224v.006s-1.046 15.38-26 22.77l.338-1.981c1.157-2.054.994-3.303 1.124-5.37.202-3.04 21.315-30.649 21.315-30.649.052 1.301 1.183 7.985 3.223 15.224"/><path fill="#F0BEA3" d="M364.185 86.725c.729-5.527 2.438-10.003 6.591-8.274 4.153 1.728 3.231 6.159 2.902 9.796-.335 3.624 1.477 9.055-4.108 9.429 0 0 3.625 6.462-2.199 14.394-5.823 7.926-16.78 17.162-22.178 15.794-5.398-1.36-5.03-3.843-8.416-6.068-3.386-2.225-10.319-6.566-11.628-12.015-1.31-5.45-.606-7.526-3.502-9.139-2.89-1.618-3.257-3.011-4.186-6.597-.922-3.58-3.276-11.506-2.173-15.478 1.103-3.98 10.48-9.37 19.618-4.85 9.139 4.514 29.28 13.008 29.28 13.008"/><path fill="#251714" d="M317.007 77s-2.574 3.93-2.304 8c-.198-1.853-2.004-4.59-1.668-5.897.264-1.007 2.832-1.09 3.972-2.103m.993-.538c.508-4.646 13.04-7.35 19.896-3.906C347.122 77.189 365 88.049 365 88.049c-8.92 3.417-41.89-2.816-47-11.587M315.012 84.096l-.024-.192.024.192"/><g transform="translate(288 128)"><mask id="h" fill="#fff"><use xlink:href="#f"/></mask><path fill="url(#g)" d="M14.74 78.358l-10.286-5.86c2.15-15.745 5.556-52.495 10.688-58.35 5.178-5.912 9.575-8.644 14.714-11.422-6.598 8.128-8 23.796-13.677 38.078-3.955 9.954-2.611 27.703-1.44 37.554" mask="url(#h)"/></g><g transform="translate(300 216)"><mask id="k" fill="#fff"><use xlink:href="#i"/></mask><path fill="url(#j)" d="M62.647 33.827C52.25 28.65 47.723 23.547 28.305 23.682c-19.412.14-26.08-4.609-26.08-4.609v-.006c.816-5.646 1.409-10.51 1.651-13.895l49.859 9.543L93.878 25.31c.625 15.157 2.926 58.88 3.143 66.968.325 12.235 3.525 36.577 3.525 36.577-5.584 3.563-12.24 5.435-19.443 6.12.013-.307.733-84.196.637-86.67-.095-2.486-8.702-9.286-19.093-14.478" mask="url(#k)"/></g><path fill="#8B8D8E" d="M337.772 201.14c1.094-1.528 12.707-15.485 12.213-17.244-.495-1.758-3.449-1.488-8.467 5.981C336.499 197.34 332 203 332 203l5.772-1.86"/><path fill="#F0BEA3" d="M415.828 240.127c.811 5.564-.985 20.352-11.117 19.861-10.126-.497-24.534-3.767-33.469-11.67-8.928-7.898-13.963-13.233-21.012-15.356-6.302-1.9-4.506-5.89-5.851-6.285-1.359-.382-7.01-.459-9.187-2.88 0 0-2.826-.039-3.946-2.053s.683-5.38 6.85-7.286c0 0-3.76-1.077-4.796-.892-1.03.185-2.472 1.421-4.075 2.218 0 0-.135 3.984-1.622 4.035-1.487.057-3.09-2.97-2.646-6.674 0 0-3.206 1.6-3.856.153-.65-1.447 2.028-5.227 2.736-5.998.714-.758 7.635-6.234 10.01-6.297 2.382-.064 12.386 1.02 13.763 2.148 1.384 1.128 6.985 11.186 8.71 13.417 1.725 2.225 23.259 12.978 27.862 12.901 4.609-.083 31.646 10.658 31.646 10.658"/><path fill="#2172AC" d="M408.18 143c9.96 9.686 18.357 31.826 16.582 57.489-1.775 25.663-3.628 39.517-3.576 40.7.051 1.176-20.145 3.133-37.01-11.176 0 0-.665-16.808.593-30.522.652-7.154 3.247-23.572 11.702-30.988L408.18 143"/><path fill="#C9CBC7" d="M353.489 236.06l-74.487-43.661a10.178 10.178 0 0 0-5.554-1.39l-32.79 1.312c-.687.02-.91.953-.311 1.305l69.747 40.814c.998.588 2.112.92 3.263.999l39.566 2.56c1.069.058 1.495-1.391.566-1.94"/><path fill="#F0BEA3" d="M275.47 225.203c-1.13-3.458-.788-5.152 7.526-7.51 11.51-3.26 13.804-1.352 12.544 1.846 0 0 8.682-1.757 8.552 2.535 0 0 4.994 1.94 1.893 5.765 0 0 .53 1.416-1.408 3.3-1.938 1.883-13.132 8.058-15.432 7.856-2.293-.208-3.185-2.705-4.18-2.572-.988.139-3.978-.038-4.521-1.29-.549-1.239-.51-2.8-1.718-3.141-1.208-.342-3.217-.949-3.256-6.79"/><path fill="#626663" d="M268.398 191.624l.602-.63-.025-.774-.652-.576-19.715.732L248 191l.038.78.645.576 19.715-.732"/><path fill="#454746" d="M264.683 189.363l.317-.342-.019-.438-.343-.318-10.321.372-.317.348.019.426.337.324 10.327-.372"/><path fill="#442922" d="M320 72s.345.707 1.1 1.848c.454.498.923 1.24 1.638 1.856.677.665 1.464 1.4 2.426 2.03 3.708 2.808 9.373 5.16 15.18 6.687 2.928.65 5.887 1.19 8.684 1.407 2.79.294 5.424.154 7.655 0 2.23-.203 4.078-.567 5.34-.917 1.255-.336 1.977-.532 1.977-.532s-2.946.546-7.35.532c-2.204.02-4.767-.154-7.499-.497-2.731-.273-5.62-.882-8.468-1.569-5.71-1.393-11.272-3.542-15.07-5.88-.97-.568-1.795-1.163-2.537-1.71-.767-.51-1.261-1.134-1.769-1.575C320.43 72.665 320 72 320 72"/><path fill="#442922" d="M359 78.326s-2.239.48-5.597.502c-3.351 0-7.822-.269-12.19-1.293a65.093 65.093 0 0 1-6.384-1.626c-2.015-.665-3.915-1.223-5.495-1.866C326.13 72.876 324 72 324 72s.499.304 1.369.827c.882.488 2.079 1.371 3.658 2.078 3.077 1.64 7.426 3.237 11.91 4.241 4.497.933 9.121 1.053 12.517.594 3.416-.467 5.546-1.414 5.546-1.414M364.474 56c-1.926-1.867-3.53-4.311-4.237-7.605-1.868-8.772 7.595-15.949 17.763-10.503-.36-.09-9.231-1.847-13.712 3.333-3.897 4.512-3.21 9.841.186 14.775"/><path fill="#442922" d="M367.001 59l-.576-.687c-.357-.456-.708-1.15-1.1-2.017-.714-1.746-1.273-4.328-.95-6.851.063-1.26.363-2.499.812-3.565a10.006 10.006 0 0 1 1.56-2.742C367.907 41.688 369 41 369 41l-.79.321c-.506.18-1.232.552-1.98 1.2-.703.688-1.567 1.555-2.086 2.782a12.153 12.153 0 0 0-1.1 3.994c-.115 1.425 0 2.851.294 4.135.253 1.31.83 2.402 1.336 3.288a6.732 6.732 0 0 0 1.613 1.78l.714.5m15.678-11l.354.866c.165.534.152 1.393.102 2.367-.19 1.934-.855 4.585-2.414 6.505a7.347 7.347 0 0 1-2.622 2.354c-.994.52-2.014.913-2.932 1.028-1.837.385-3.173.196-3.167.27.006-.108 1.21.575 3.23.609.988.014 2.223-.108 3.408-.676a8.649 8.649 0 0 0 3.23-2.597c1.748-2.36 2.299-5.363 2.09-7.507-.082-1.075-.393-1.934-.71-2.489l-.57-.73m-4.726 3.19s-.384.42-.924.984c-.552.564-1.164 1.356-1.896 2.01-.654.726-1.422 1.332-2.016 1.812-.588.498-1.068.804-1.068.804-.012-.042.57.096 1.404-.096.84-.168 1.848-.768 2.67-1.542.768-.828 1.338-1.794 1.578-2.598.246-.804.252-1.374.252-1.374"/><path fill="#251714" d="M317 76.213c.09.013.23.614 1.412 1.847 1.082 1.182 2.61 2.415 4.632 3.786 4.002 2.703 9.837 5.544 16.098 6.977 3.105.783 6.305 1.096 9.295 1.177 1.495-.088 2.946-.031 4.301-.225 1.35-.22 2.647-.332 3.799-.62 2.316-.576 4.205-1.145 5.452-1.752l2.011-.826s-.744.263-2.042.726c-1.273.544-3.182 1.02-5.498 1.483-1.151.231-2.436.275-3.766.432-1.343.131-2.768 0-4.231.019-2.92-.226-6.026-.676-9.01-1.59-6.006-1.677-11.522-4.712-15.193-7.46-1.82-1.351-3.283-2.703-4.009-3.58-.75-.732-1.1-1.689-1.113-1.601L317 76.213"/><g transform="translate(39 122)"><mask id="m" fill="#fff"><use xlink:href="#l"/></mask><path fill="#165794" d="M297.712 2.376c.69-.134 1.334-.268 1.902-.377 1.787 1.942 2.023 4.043 6.407 5.148.957.242 2.093.147 3.344-.217-1.117 5.805-4.454 34.443-4.454 34.443 8.487-9.778 38.393-36.13 38.393-36.13s2.457 1.725 5.877 4.216l-.555.549-50.168 45.767-.746-53.4" mask="url(#m)"/><path fill="#16191A" d="M17.39 478.815c-17.613-2.293-14.94-10.768-11.953-14.128 2.987-3.365 10.67-13.45 11.953-18.827 1.277-5.384 33.065-3.143 33.065-3.143s1.5 12.378 0 14.147c-1.494 1.775-5.119 1.526-5.757 3.666-.644 2.14-10.026 20.52-27.308 18.285" mask="url(#m)"/></g><path fill="#16191A" d="M159.12 561c8.822 6.248 19.157 16.73 25.615 18.967 6.459 2.225 8.61 5.345 6.459 10.481s-15.068 6.026-22.17 5.359c-7.11-.674-13.349-7.583-17.006-9.82-3.664-2.232-9.479 2.008-13.349-1.78-3.876-3.795-3.232-8.702-3.664-13.393-.425-4.685 24.115-9.814 24.115-9.814"/><path fill="#12635E" d="M88.131 337.107s37.574 236.884 38.39 240.288c.817 3.416 38.397-8.52 42.479-13.629 0 0-17.15-143.15-18.79-152.526-1.633-9.369-8.98-132.76-16.335-162.24 0 0-79.242 8.009-98.842 6.31 0 0-.817 90.316 5.714 133.776 6.538 43.459 7.355 174.68 8.17 178.09.817 3.404 40.847 5.116 43.296.85 2.45-4.26-4.082-230.92-4.082-230.92"/><path fill="#22908C" d="M38 359l21.895 10.135C60.37 371.712 66.13 544.745 67 571c-9.171-.467-17.358-1.643-17.724-3.165-.818-3.415-1.635-134.796-8.18-178.309-1.3-8.664-2.31-19.215-3.096-30.526m74.964 16.91L150 573.284c-11.244 3.969-23.63 7.078-24.092 5.11C125.286 575.758 103.12 433.878 93 369l19.964 6.91"/><path fill="#CBE8EB" d="M102.232 81.428c9.456 1.257 34.141 15.225 38.553 18.685 4.418 3.466 23.809 74.26 25.075 78.671 1.26 4.405-5.978 3.933-21.425 7.08 0 0-6.649 41.966-4.443 69.664 2.206 27.692 13.599 131.062 13.599 131.062s-74.983 17.198-124.475 2.407c0 0-6.035-148.687-6.975-158.441-.946-9.755-4.412-46.895-4.412-46.895s-7.058 1.52-12.729-3.83c0 0 15.53-73.558 18.995-79.852C27.46 93.69 62.337 81 62.337 81l39.895.428"/><path fill="#F0BEA3" d="M101.652 100.915c.424-.417 1.947 2.926.424-.417-1.658-3.637 5.693-6.961 5.044-10.746s.553-5.988 1.041-8.518c.996-5.072 10.886 2.286 18.243 2.677 5.661.301 5.796-3.388 5.09-6.622-.707-3.24 2.872-2.94 3.25-3.952.676-1.78-5.23-4.79-5.23-4.79s5.514-.704 6.645-2.113c1.13-1.403-1.69-3.241-.707-4.65.996-1.409 5.944-1.556 6.51-3.381.558-1.832-5.09-10.151-5.662-13.11-.565-2.953 5.096-4.932 4.382-8.025-.706-3.106-3.81-13.11-7.068-18.329-3.251-5.207-17.671-17.471-34.924-15.78-17.247 1.69-27.15 22.831-26.867 30.299.283 7.467 6.51 26.213 4.672 32.694C74.65 72.633 68 83.252 68 83.252l33.652 17.663"/><path fill="#000207" d="M117.295 21.286c-2.914 2.375-.567 7.72-5.738 10.484-5.46 2.918-5.596 11.538-7.71 12.062-2.121.53-4.771-9.182-9.8-8.92-5.035.261-7.42 5.51-6.363 10.759C88.742 50.919 76.034 62.745 76.028 63c.032-8-4.77-23.12-5.022-29.634-.284-7.445 9.651-28.522 26.955-30.208C115.27 1.472 129.738 13.7 133 18.891c-5.764 3.531-12.79.02-15.705 2.395"/><path fill="#000207" d="M130.03 20.47c1.75-1.45 2.888-3.973.98-5.27-2.99-2.024-4.243-6.795-11.953-10.474-7.717-3.672-15.14-3.276-18.29-4.33C97.62-.652 90.693.524 89.26 2.236c-1.444 1.698-7.322 2.733-7.06 7.21 0 0-4.575-.651-6.928 3.679-2.354 4.33-2.876 7.607-3.919 8.533-1.05.913-.521 5.64-1.705 7.74-1.17 2.096-.744 13.33 1.184 15.744 1.92 2.415.75 6.247 1.959 7.345C73.999 53.592 75.138 63 75.138 63L92.39 22.833l12.023-13.38L130.03 20.47"/><path fill="#000207" d="M115.483 26c.674-2.653 7.134-1.559 12.276-.685 6.39 1.095 10.121.037 9.062-1.143-.775-.861-.214-2.249-1.682-3.875-1.487-1.656-1.752-3.46-3.662-5.575-1.91-2.127-8.507-3.594-8.898-3.722L113 21.923 115.483 26"/><path fill="#F0BEA3" d="M160.962 180c1.874 2.511 7.388 15.96 5.732 22.377-1.657 6.41-4.976 16.276-4.976 18.174 0 1.898-14.722-2.834-14.722-2.834s-2.636-7.845-3.74-12.725c-1.104-4.875 1.722-18.891 1.722-18.891L160.962 180"/><path fill="#CBE8EB" d="M163.356 167c3.345 14.56 5.511 26.491 4.308 32.942-1.203 6.45-6.487 23.058-6.487 23.058l-20.09-2.801s-1.001-18.637 3.779-34.486L163.356 167"/><g transform="translate(135 96)"><mask id="o" fill="#fff"><use xlink:href="#n"/></mask><path fill="#C6E5E4" mask="url(#o)" d="M5.747 73.124h23.091V4.152H5.747z"/></g><path fill="#B0DCDE" d="M140.61 217c-.457-28.915-1.346-117.34-9.61-122 4.412 2.197 7.948 4.15 9.552 5.297.123.09.232.174.335.251 3.466 2.726 16.103 46.752 22.113 68.147l-18.435 18.417c-3.35 10.955-3.922 23.231-3.955 29.888"/><path fill="#C6E5E4" d="M165.768 179.614c-.072-.268-.192-.765-.366-1.462-.132-.71-.264-1.428-.402-2.152.372 1.844.642 3.124.768 3.614"/><path fill="#B0DCDE" d="M165.201 180.011c-.132-.666-.264-1.338-.402-2.022.174.624.294 1.068.366 1.308l.036.714"/><path fill="#B0DCDE" d="M161.18 223l-20.092-2.801c-.031-1.34-.057-2.986-.088-4.894.031-6.59.592-18.745 3.867-29.592l18.026-18.234.466-.479c.1.453.208.9.309 1.34.472 2.105.913 4.14 1.335 6.131l.164.728c.145.689.283 1.371.422 2.048.145.727.283 1.442.422 2.15v.102c1.669 8.728 2.475 15.836 1.681 20.321-.006.007-.006.013-.006.026 0 .006-.006.019-.006.032-.006.019-.006.038-.013.064-1.19 6.393-6.405 22.796-6.487 23.052V223"/><path fill="#C6E5E4" d="M27.722 335.96500000000003c-.126-3.177-.252-6.424-.384-9.703.132 3.285.258 6.526.384 9.703m-1.362-34.106l-.09-2.213c-.018-.393-.03-.786-.048-1.173.048 1.122.09 2.251.138 3.386m-.306-7.527L26 293l.054 1.332"/><path fill="#B0DCDE" d="M71 395c-14.201-.434-28.403-2.121-40.969-5.878v-.007-.006-.006-.013-.013c-.02-.492-.185-4.568-.453-11.117v-.013-.077c-.25-6.05-.582-14.19-.972-23.563-.166-4.058-.345-8.339-.53-12.785-.076-1.917-.16-3.86-.243-5.834-.134-3.201-.268-6.466-.408-9.776a1322.62 1322.62 0 0 1-.218-5.232c-.274-6.409-.549-12.92-.824-19.354-.05-1.143-.096-2.28-.147-3.411-.057-1.4-.121-2.786-.179-4.173L26 292.401c12.758-4.096 21.804-11.642 21.804-11.642s-13.026-73.905-12.483-83.15c.377-6.434 6.9-34.209 10.834-50.527a24.588 24.588 0 0 0 .173 6.588c-1.489 12.555-2.69 30.323-1.099 50.82C49.803 263.246 62.382 347.074 71 395M47.452 141.728c1.01-4.14 1.655-6.728 1.655-6.728-.128.926-.415 2.562-.792 4.824-.039.07-.07.14-.109.21-.275.55-.524 1.113-.754 1.694"/><path fill="#EEA88E" d="M146.894 216.838c4.068-3.143 3.453-5.524 5.734-8.198 2.28-2.674 5.785-5.7 8.245-4.275 2.46 1.418-3.876 8.927-4.126 10.99-.352 2.928 5.881 2.375 6.234 5.582.352 3.215-4.158 9.448-8.047 13.19-3.888 3.74-3.952 2.758-6.553 4.944-2.601 2.187-5.76 4.145-9.09 2.004-3.332-2.134-3.742-6.155-5.145-9.363-1.403-3.207 7.739-7.593 8.853-8.712 2.326-2.336-2.395 2.941-1.345 2.407 1.05-.533.378-4.834 5.24-8.569M28.75 187.236c1.346 8.76 3.146 27.66 4.05 51.521.897 23.854 1.8 37.364 9.9 45.914 8.1 8.556 6.749 12.606 11.702 22.508 4.954 9.902 5.46 12.837 3.614 14.414-1.839 1.576-6.709-1.577-8.426-5.134-1.711-3.557-5.717-14.35-5.717-14.35s2.955 12.767 3.217 15.267c.263 2.505 8.825 9.087 9.087 12.644.263 3.557-8.407 1.314-12.304.923-3.89-.397-15.014-5.024-17.186-8.69-2.18-3.666-2.372-13.824-2.769-22.521-.39-8.684-3.556-23.7-4.736-28.571-1.185-4.865-8.561-50.272-10.663-64.904C6.41 191.632 5 180 5 180l23.749 7.236"/><path fill="#F0BEA3" d="M145.89 216.857c4.677-2.66 12.802 1.613 16.327 2.843.664.227 1.217.618 1.718 1.066l.045.176c.358 3.214-4.221 9.446-8.17 13.186s-4.02 2.758-6.655 4.944c-2.64 2.186-5.848 4.144-9.23 2.004-3.383-2.134-4.229-4.84-5.66-8.047-.702-1.594.098-6.297 1.152-8.84 1.073-2.596 1.665-4.776 3.213-5.738 3.103-1.939 4.658-.118 7.26-1.594"/><path fill="#CBE8EB" d="M48.664 280.436S35.285 291.292 18.004 294c0 0-15.58-79.67-17.813-91.596-2.233-11.933 15.802-86.83 18.035-93.883 2.227-7.053 11.82-13.367 23.667-18.521L50 135.094s-13.575 53.204-14.132 62.43c-.557 9.219 12.796 82.912 12.796 82.912M75.07 69L63 79.878 102.988 108 104 95.034 75.07 69"/><path fill="#CBE8EB" d="M102 96l4.124-12L113 89.71 102 96"/><path fill="#2172AC" d="M116 85.647L105.837 196 68 83l34.704 12.953L116 85.647"/><path fill="#165794" d="M75.07 69L104 95.252 96.884 104 63 79.969 75.07 69"/><path fill="#165794" d="M102 96.034l7.745 5.966L116 85.696 106.87 81 102 96.034"/><path fill="#CBE8EB" d="M70.239 74L106 196 41 89.814 70.239 74M114.589 86s-3.583 42.376-3.589 51.707c-.006 9.325 17-34.837 17-34.837l-1.63-10.683L114.588 86"/><path fill="#272A2A" d="M121.298 160s4.812-38.581 6.418-52.003c1.775-14.918-4.753-24.298-19.858-27.997 0 0-.292.44-.507 1.075L107 82.513c13.778 3.382 19.688 11.608 18.076 25.166-1.6 13.429-6.418 51.99-6.418 51.99l2.64.331"/><path fill="#5A6060" d="M110 165c0 5.523 4.477 10 10 10s10-4.477 10-10-4.477-10-10-10-10 4.477-10 10"/><path fill="#7F8688" d="M111 164.003a8.993 8.993 0 0 0 9 8.997c4.971 0 9-4.027 9-8.997S124.971 155 120 155c-4.978 0-9 4.034-9 9.003"/><path fill="#494D4C" d="M120 155"/><path fill="#929999" d="M126.202 170c1.254-1.502 2.092-3.387 2.092-5.51 0-4.786-3.826-8.672-8.546-8.672-2.231 0-4.23.92-5.748 2.333 1.557-1.866 3.794-3.132 6.39-3.151h.064c4.72 0 8.546 3.886 8.546 8.673v.057c-.019 2.5-1.116 4.698-2.798 6.27"/><path fill="#5A6060" d="M114 164.5c0 3.034 2.467 5.5 5.503 5.5a5.5 5.5 0 1 0-5.503-5.5"/><path fill="#7F8688" d="M116 164.507a5.493 5.493 0 0 0 5.5 5.493c3.038 0 5.5-2.455 5.5-5.493a5.506 5.506 0 0 0-5.5-5.507c-3.038 0-5.5 2.47-5.5 5.507"/><path fill="#929999" d="M124.322 168c.752-.899 1.255-2.022 1.255-3.302 0-2.88-2.295-5.208-5.127-5.208-1.336 0-2.53.558-3.45 1.41.946-1.138 2.302-1.9 3.872-1.9 2.833 0 5.128 2.335 5.128 5.208v.034c-.007 1.505-.664 2.819-1.678 3.758"/><path fill="#868D8F" d="M47.617 159l1.303-.291c-1.12-4.98-.615-9.927 1.427-13.936 2.16-4.236 5.8-7.023 10.52-8.058 4.321-.95 8.446-.194 11.98 2.166 4.086 2.742 6.94 7.405 7.83 12.818l1.323-.207c-.95-5.769-4.013-10.767-8.4-13.703-3.842-2.568-8.366-3.383-13.02-2.36-5.126 1.124-9.08 4.15-11.424 8.749-2.187 4.274-2.73 9.545-1.539 14.822"/><path fill="#272A2A" d="M60.265 134l2.433-.969c-7.997-19.945-9.233-35.764-3.675-46.995 3.29-6.655 8.183-9.934 11.243-11.436 1.421-.686 2.446-.995 2.734-1.078L72.309 71c-1.044.282-10.315 3.106-15.63 13.868-5.903 11.93-4.7 28.474 3.586 49.132"/><path fill="#5A6060" d="M59.385 134.03c-4.438.998-7.862 3.696-9.891 7.792-1.934 3.902-2.416 8.751-1.345 13.633 2.454 11.212 9.905 20.807 20.31 26.435 5.903-8.938 11.356-22.281 9.6-33.268-.844-5.287-3.545-9.84-7.406-12.5-2.39-1.642-5.073-2.485-7.9-2.485-1.104 0-2.227.135-3.368.393m-1.7 59.948c.033-.032 3.032-2.57 6.424-6.35a45.765 45.765 0 0 0 2.853-3.561c-10.925-6.021-18.743-16.17-21.343-28.045-1.198-5.474-.646-10.942 1.56-15.385 2.359-4.753 6.5-8.018 11.642-9.183 4.768-1.082 9.359-.22 13.284 2.485 4.45 3.072 7.552 8.256 8.509 14.252 1.928 12.087-3.868 25.785-9.81 34.884.743.342 1.497.664 2.27.973 6.468 2.582 10.888 2.917 10.926 2.93l-.178 2.627c-.19-.013-4.825-.367-11.692-3.11a46.411 46.411 0 0 1-2.828-1.23c-1.129 1.578-2.238 2.975-3.278 4.128-3.526 3.934-6.556 6.504-6.683 6.607l-1.655-2.022"/><path fill="#7F8688" d="M65.543 185.707c.757-.788 1.539-1.741 2.321-2.707l.136.086a43.207 43.207 0 0 1-2.91 3.402A75.132 75.132 0 0 1 59.208 192l-.207-.228c.032-.03 3.09-2.454 6.543-6.065"/><path fill="#A2B8B9" d="M69.405 180A81.352 81.352 0 0 0 71 177.407c-.077.129-.155.264-.226.393-.452.759-.91 1.492-1.369 2.2m-21.192-25.65a16.61 16.61 0 0 1-.213-1.075v-.006c.058.36.13.72.213 1.08m-.155-9.18c.284-1.409.73-2.76 1.317-4.015l.104-.154a17.936 17.936 0 0 0-1.389 4.072c-.013.033-.025.065-.032.097"/><path fill="#83898B" d="M48.124 154c-.462-2.723-.438-5.415.054-7.906.006-.031.018-.063.03-.094-.51 2.516-.546 5.24-.084 7.994V154"/><path fill="#6C7374" d="M68.628 182c-10.78-5.703-18.507-15.42-21.05-26.78-1.11-4.954-.61-9.867 1.4-13.822l.25-.398a17.96 17.96 0 0 0-1.34 4.072c-.54 2.59-.566 5.39-.06 8.222.06.359.132.724.217 1.09 2.543 11.36 10.262 21.084 21.043 26.787.178-.254.348-.509.52-.77.466-.718.932-1.461 1.392-2.231a65.368 65.368 0 0 1-2.372 3.83"/><path fill="#A2B8B9" d="M72.567 182.249a49.545 49.545 0 0 1-1.134-.492v-.006c.372.168.75.336 1.134.498"/><path fill="#6C7374" d="M84.818 188l-.397-.042.117-1.626c-.039-.006-4.573-.32-11.209-2.7a56.048 56.048 0 0 1-2.329-.896l.5-.736a56.558 56.558 0 0 0 2.29.878c6.637 2.38 11.171 2.689 11.21 2.7L84.818 188"/><path fill="#A2B8B9" d="M81.174 156c.258-2.968.234-5.929-.144-8.8.378 2.871.402 5.832.144 8.8"/><path fill="#6C7374" d="M73.635 179c5.071-8.697 9.213-20.036 7.512-30.232-.988-5.92-4.188-11.034-8.78-14.064-2.919-1.919-6.19-2.897-9.632-2.897-1.334 0-2.695.146-4.076.444-5.097 1.106-9.18 4.155-11.659 8.532l.111-.28c2.434-4.688 6.707-7.909 12.013-9.058a19.314 19.314 0 0 1 4.082-.445c3.435 0 6.707.978 9.625 2.897 4.593 3.03 7.792 8.144 8.78 14.058 0 .032.007.064.013.102 0 .012.007.025.007.038.006.025.006.05.013.076 0 .019.006.038.006.064 0 0 .007 0 .007.006.412 2.643.438 5.368.157 8.1a44.788 44.788 0 0 1-.295 2.267c-.006.007-.006.013-.006.02-.007.031-.007.056-.013.088-.007.026-.007.051-.013.076 0 .007-.007.02-.007.026-1.197 7.216-4.338 14.35-7.845 20.182"/><path fill="#272A2A" d="M54.753 134.974l.99-.288c1.506-.966 3.23-1.65 5.114-2.034 2.374-.498 4.709-.462 6.934.102.971.234 1.904-.288 2.149-1.152.25-.876-.303-1.77-1.235-2.01-2.78-.702-5.687-.756-8.613-.132-2.316.48-4.445 1.326-6.323 2.532-.804.51-1.01 1.524-.463 2.274l1.447.708"/><path fill="#272A2C" d="M56.79 198.205a2.699 2.699 0 0 0 3.826 0l2.589-2.587a2.695 2.695 0 0 0 0-3.823 2.691 2.691 0 0 0-3.82 0l-2.594 2.587a2.706 2.706 0 0 0 0 3.823m24.284-11.215c-.348 1.38.545 2.766 2.002 3.102l3.571.816c1.457.33 2.926-.516 3.275-1.896.354-1.38-.545-2.772-2.002-3.102l-3.571-.816c-1.457-.336-2.92.516-3.275 1.896"/><path fill="#B0DCDE" d="M130.486 390L105 195l35 193.453-9.514 1.547"/><path fill="#165794" d="M72.035 70.269l.684 1.998-2.52 1.464-.918-.888 2.754-2.574"/><path fill="#272A2A" d="M68.786 71.115c1.494-.618 2.856-1.302 4.428-1.26l-2.454 2.292-1.974-1.032"/><path fill="#EEA88E" d="M83.147 54.496c.186-.23 1.2-1.22 2.924-4.443 1.273-2.396 1.817-5.428 1.883-5.015.16.966-.066 3.362.113 5.44.179 2.08 2.89 1.558 2.532 2.08-.364.52-2.91 2.548-3.162 7.709-.272 5.453 15.805 15.845 24.437 18.299l.126.07c-1.95-.35-3.361-.108-3.706 1.57-.153.769-.371 1.519-.59 2.275L107.18 84c-19.2-4.538-25.24-27.979-24.033-29.504"/></g></svg>