<svg xmlns="http://www.w3.org/2000/svg" width="290" height="447"><g fill="none" fill-rule="evenodd"><path fill="#41B6AE" fill-opacity=".12" d="M145.058 446.831c-79.66 0-144.236-6.896-144.236-15.4 0-6.52 37.948-12.092 91.544-14.337l-.393 1.309v10.862H91.5v5.717h61.757v-5.717h-.503l-2.069-5.253-8.42-3.045-7.642-4.506-.645-.382c3.657-.031 7.353-.044 11.081-.044 18.968 0 37.083.39 53.673 1.101.023.241.037.37.037.37s-2.187 2.553-5.537 5.177c-2.258 1.763-5.031 3.558-8.043 4.623-6.263 2.232-4.51 4.32 8.313 4.322 2.464 0 5.335-.079 8.638-.246l2.677-.217 9.4-.743c.578.3 1.5.539 2.788.73 1.934.3 4.703.476 8.373.476 2.449 0 5.3-.079 8.575-.246l13.255-1.054s0-3.093-.66-6.376c-.234-1.212-.554-2.446-.994-3.566 26.982 2.8 43.744 6.713 43.744 11.046 0 8.503-64.578 15.4-144.239 15.4m70.226-18.817a54.946 54.946 0 0 0-.142-1.57c-.1-.78-.228-1.63-.411-2.493-.357-1.868-.923-3.796-1.822-5.259a4.295 4.295 0 0 1-.38-.874c5.822.33 11.404.701 16.72 1.11a45.276 45.276 0 0 1-4.205 3.754c-2.255 1.763-5.028 3.558-8.04 4.623l-.388.146c-.501.178-.947.372-1.332.563"/><path fill="#ED9D8C" d="M186.008 235.737l-15.153 28.614-28.106-22.628-6.127 8.15 31.21 30.518c3.01 2.491 7.496 1.98 9.866-1.125l15.588-23.664-7.278-19.865"/><path fill="#FFFFFE" d="M195.766 228.15l-5.361 34.969-5.988-3.197-11.666-6.204s3.122-7.074 8.284-14.394c2.57-3.655 6.247-6.437 9.278-8.315v-.016c3.049-1.88 5.453-2.844 5.453-2.844"/><path fill="#ED9D8C" d="M152.412 258.135s-3.783-.552-10.274-1.56c-5.33-.81-14.136-9.154-17.15-12.15a8.55 8.55 0 0 1-.614-.748c-.69-.887-1.717-2.263-2.113-2.765-1.854-2.444.031-4.035.031-4.035s-.72-1.344.06-2.86c.798-1.527 2.42-1.42 2.42-1.42l-.031-1.3c.246-2.106 3.46-1.832 3.46-1.832s.782-1.666 2.36-1.499c.765.092 2.815 1.834 4.685 3.608a118.792 118.792 0 0 1 3.69 3.652c2.221 2.324 4.749 5 4.749 5s-.307-2.341-.37-4.725c-.016-1.253.75-2.093 1.49-2.614a1.045 1.045 0 0 1 1.606.581c.412 1.5 1.162 4.035 1.927 5.884 1.167 2.75 2.265 7.106 2.265 7.106l1.81 11.677"/><path fill="#BEBEB9" d="M187.172 261.392l-2.755-1.47c1.457-11.721 4.52-23.84 5.896-28.913v-.016c.47-.29.923-.557 1.355-.803-1.07 2.805-2.844 10.431-4.496 31.202"/><path fill="#E67868" d="M124.374 243.677c-.69-.887-1.717-2.263-2.113-2.765-.514-.678-.742-1.29-.8-1.821.131-.236.23-.487.296-.746.19.031.38.05.572.05 1.628 0 3.23-1.164 3.65-2.747.183-.71.222-1.567.838-1.963.268-.17.595-.211.905-.282 1.549-.366 2.82-1.706 3.104-3.27.06-.322.08-.655.215-.95.125-.275.335-.497.563-.701.98.664 2.354 1.87 3.642 3.092-.352.963-.813 1.881-1.424 2.63-2.296 2.81-3.584 3.191-4.35 4.72-.641 1.302-2.036 3.973-5.098 4.753"/><path fill="#ED9D8C" d="M228.932 146.896l-2.955 9.261a5.172 5.172 0 0 1-2.571 3.07c-4.305 2.215-14.946 7.458-23.094 9.062-2.035.413-3.904.58-5.482.426l-.55-.06c-.674-.089-1.317-.196-1.959-.288-17.321 4.597-55.206 14.183-65.069 12.255-7.594-1.48-11.592-17.239-13.598-29.985-1.408-8.969-1.835-16.46-1.835-16.46l20.365 5.291s.49 2.383 1.161 5.578c1.135 5.335 2.805 12.958 3.508 15.373.812 2.721 30.413-2.14 47.978-5.256l2.097-4.249s3.445-5.562 6.266-8.88c1.867-2.228 4.027-5.441 5.248-7.333a1.508 1.508 0 0 1 2.467-.11c.339.43.645.934.858 1.515.306.809.414 1.756.06 2.766-1.098 3.27-2.556 6.388-2.556 6.388s3.033-1.713 6.357-3.532c2.785-1.543 5.757-3.194 7.304-4.018 2.19-1.177 5.82-1.164 8.054-1.01a5.245 5.245 0 0 1 3.353 1.56l3.324 3.393a5.186 5.186 0 0 1 1.269 5.243"/><path fill="#E67868" d="M196.044 168.773c-.422 0-.826-.018-1.214-.058l.367-4.552s-.766-9.17.2-16.048c.689-4.982 4.396-9.748 6.37-12.009.173.455.283.955.283 1.484 0 .41-.068.84-.223 1.282-1.098 3.27-2.556 6.388-2.556 6.388s3.033-1.713 6.357-3.532c2.785-1.543 5.757-3.194 7.304-4.018 1.592-.858 3.948-1.083 5.975-1.083.758 0 1.47.031 2.079.073a5.245 5.245 0 0 1 3.353 1.56l3.324 3.393a5.162 5.162 0 0 1 1.515 3.66c0 .528-.08 1.062-.246 1.583l-2.955 9.261a5.172 5.172 0 0 1-2.571 3.07c-4.305 2.215-14.946 7.458-23.094 9.062-1.534.311-2.976.484-4.268.484"/><path fill="#77A599" d="M133.348 145.051c0-.002 0-.002-.003-.005-.43-2.051-.786-3.768-.986-4.733.202.965.561 2.682.994 4.738h-.005"/><path fill="#E67868" d="M119.73 149.397c-.122-4.437-.185-8.95.032-13.152l12.419 3.226s.063.303.178.842a1690.72 1690.72 0 0 0 .989 4.738c-3.634 1.342-8.754 3.108-13.617 4.346"/><path fill="#FFFFFE" d="M91.973 418.403v10.97h60.824l-.044-.108-2.069-5.253-8.42-3.045-7.642-4.506-2.451-1.452-2.085-1.224-2.433-1.434-2.328-1.376-2.388-1.408-8.743-5.167-18.944 3.03-2.773 9.29-.504 1.683"/><path fill="#008C76" d="M91.499 434.982h61.757v-5.717H91.499zM131.083 419.75c.388 0 .773-.162 1.053-.474l2.407-2.713a1.4 1.4 0 0 0-.115-1.978 1.405 1.405 0 0 0-1.982.118l-2.412 2.716a1.398 1.398 0 0 0 .12 1.978c.265.235.598.353.929.353m-4.56-2.627c.386 0 .771-.162 1.05-.473l2.411-2.713a1.4 1.4 0 0 0-.12-1.978 1.405 1.405 0 0 0-1.982.117l-2.41 2.714a1.4 1.4 0 0 0 .118 1.977c.268.239.6.356.934.356m-4.913-2.54c.385 0 .77-.16 1.048-.474l2.41-2.713a1.4 1.4 0 0 0-.118-1.978 1.408 1.408 0 0 0-1.982.118l-2.412 2.716a1.403 1.403 0 0 0 1.054 2.33"/><path fill="#4EB8AA" d="M106.245 429.265H91.973v-10.862l.504-1.683.138.092 8.01 2.888a4.564 4.564 0 0 1 2.726 2.645l1.376 3.527a4.55 4.55 0 0 1 1.518 3.393"/><path fill="#006F5B" d="M91.499 434.982h14.746v-5.717H91.499z"/><path fill="#FFFFFE" d="M61.043 404.395l28.073 16.577 8.423 3.037 2.105 5.369H38.817v-10.973l3.277-10.972 18.949-3.038"/><path fill="#008C76" d="M38.348 434.982h61.765v-5.722H38.348zM77.934 419.75c.386 0 .774-.162 1.05-.474l2.41-2.713a1.403 1.403 0 0 0-2.102-1.86l-2.411 2.716a1.403 1.403 0 0 0 1.053 2.331m-4.564-2.627c.388 0 .774-.162 1.051-.473l2.412-2.713a1.4 1.4 0 0 0-.12-1.978 1.405 1.405 0 0 0-1.982.117l-2.412 2.714a1.4 1.4 0 0 0 .12 1.977c.27.239.6.356.931.356m-4.913-2.54c.388 0 .774-.16 1.052-.474l2.411-2.713a1.4 1.4 0 0 0-.12-1.978 1.407 1.407 0 0 0-1.982.118l-2.41 2.716a1.398 1.398 0 0 0 .119 1.978c.27.235.597.353.93.353"/><path fill="#00A28E" d="M106.395 413.264l-14.548-.502-6.155-163.905h-8.93l-8.895 158.555-8.423 3.822c-8.038.38-18.758 0-18.758 0l4.746-161.228c-.795-1.348-1.762-11.143-2.313-16.279-.12-1.13-.23-2.03-.306-2.566-.168-1.162-.2-3.438-.14-6.31.016-.398.016-.796.032-1.223.184-6.739.75-16.016 1.135-21.809.06-.902.123-1.727.168-2.446.139-1.85.212-2.964.212-2.964h72.451s.032 1.177.032 3.04l-1.73 24.025-.124 1.635-.047.673-.107 8.1v.444l4.978 169.266c.504 5.348-3.371 8.191-13.278 9.672"/><path fill="#00A999" d="M110.05 91.174l2.726.788s11.713 7.982 16.217 21.304c3.023 8.94 6.612 26.215 6.612 26.215l-28.33 6.439-1.35-41.903 2.54-11.263 1.584-1.58"/><path fill="#008C71" d="M43.125 233.735a80.458 80.458 0 0 0-.307-2.566c-.168-1.162-.2-3.44-.14-6.313.011-.398.02-.809.032-1.228l15.785 1.02 23.461-.12c.855.014 1.735.019 2.635.019 1.536 0 3.13-.016 4.76-.032 3.784 1.955 6.188 3.192 6.188 3.192s.199.272.566.73c-19.11 2.441-38.22 4.16-52.98 5.298"/><path fill="#00A28E" d="M120.36 207.735c.092 8.877.17 15.402.17 15.402s-2.144.154-5.557.337c-.905.063-1.901.123-2.973.17-6.187.348-14.794.748-22.648.871-2.588.027-5.084.045-7.396.013l-23.46.12-15.79-1.02-3.781-.245s.015-16.598.873-32.338c.503-9.337 1.316-18.384 2.587-23.473.26-1.133.399-2.522.412-4.097.031-3.851-.658-8.82-1.515-13.89-.184-1.101-.38-2.218-.58-3.317-1.166-6.648-2.42-13.126-2.543-17.252-1.135-7.428-1.67-14.397 0-30.566 0 0 15.866-13.343 37.946-17.76l3.248.461 2.218.06 9.052.244c7.978.735 17.014 7.108 23.031 10.79 1.961 4.264 6.447 16.32 6.877 38.495-.215 1.07-.402 2.064-.598 2.967-.781 9.23.139 20.462.12 29.187-.013 5.821.076 18.6.184 30.901.047 4.877.079 9.675.123 13.94"/><path fill="#008C71" d="M108.552 246.809l-3.062-2.03 1.778-6.374c-4.78-2.279-9.559-7.945-11.163-9.968a910.95 910.95 0 0 0 4.672-.61c.24.335.495.686.762 1.052.425.602.866 1.206 1.32 1.83 1.881 2.597 4.857 4.4 7.61 5.943.694.39 1.4.759 2.11 1.115l-.487.85-3.094 5.382.703.395-1.149 2.415m6.42-2.949l-2.43-1.504 1.356-2.36.705-1.24a35.754 35.754 0 0 1-.731-.353c.317.154.637.306.954.46l.147 4.997"/><path fill="#006E57" d="M96.105 228.437c-.367-.458-.566-.73-.566-.73s-2.404-1.237-6.187-3.192c2.372-.039 4.813-.099 7.233-.177.943.473 1.832.92 2.666 1.336.45.647.957 1.363 1.526 2.154-1.555.206-3.115.41-4.672.61"/><path fill="#008C71" d="M89.352 224.515c-12.956-6.71-42.004-21.932-45.344-25.142-1.5-1.436-2.957-4.707-4.21-8.328.246-4.576.569-9.08.98-13.086 1.688 6.794 3.45 12.746 4.981 15.538 3.484 6.394 34.598 22.67 50.826 30.84-2.42.079-4.86.14-7.233.178"/><path fill="#008C76" d="M87.102 124.799l3.594-.21-1.405-23.512-3.594.209 1.405 23.513"/><path fill="#ED9D8C" d="M72.392 86.834l6.793 12.697c3.909 7.956 9.474 13.144 9.474 13.144L92.9 89.65l.225-1.193-3.765-11.553-.015-7.972-.019-4.28-15.625.031-.013.605-.513 13.317c0 .413-.129 1.195-.302 2.119-.398 2.226-1.035 5.282-.48 6.109"/><path fill="#E67868" d="M92.899 89.651c-10.38-2.47-16.485-5.92-20.027-8.926.173-.924.302-1.706.302-2.12l.277-7.207c.3.303.609.604.926.902 5.285 4.93 9.904 6.855 14.062 6.855.548 0 1.088-.034 1.623-.1l3.062 9.403-.225 1.193"/><path fill="#1D0F11" d="M91.391 83.14l-1.077-3.297c9.621 3.354 13.776 12.069 12.316 26.032-2.076 19.803 4.011 29.826 4.074 29.922l-2.312 1.452c-.273-.431-6.664-10.826-4.48-31.657 1.468-13.984-3.057-19.857-8.52-22.452"/><path fill="#FFFFFE" d="M99.395 141.229c.25 4.084 3.84 7.19 8.022 6.933 4.184-.254 7.367-3.77 7.12-7.857-.251-4.081-3.843-7.187-8.024-6.933-4.182.254-7.367 3.773-7.118 7.857"/><path fill="#2187A6" d="M103.571 140.975c.113 1.831 1.723 3.22 3.597 3.108 1.875-.115 3.303-1.69 3.193-3.521-.112-1.832-1.722-3.226-3.597-3.111-1.877.115-3.305 1.693-3.193 3.524"/><path fill="#ED9D8C" d="M111.287 47.739s2.102-4.45 5.927-3.106c3.825 1.342-.83 14.29-8.675 12.098l2.748-8.992"/><path fill="#E67868" d="M111.59 54.549c.145-.589.281-1.175.412-1.756l.454-.455c.183.421.396 1.026.29 1.392-.067.24-.57.542-1.155.819m1.39-2.58c-.053 0-.103 0-.153-.002l.566-.566s.231-1.779.73-3.46c.18-.038.364-.058.54-.058.387 0 .746.099 1.027.363 1.203 1.125-.184 2.658-1.269 3.323-.519.316-1.038.4-1.442.4"/><path fill="#1D0F11" d="M70.51 4.86c3.062-1.975 6.329-1.598 8.345-1.036 2.731-1.06 9.55-7.192 30.882 1.777 10.935 4.6 16.079 17.453 10.285 25.5-.461 3.698-1.429 8.3-3.369 13.477 0 0-1.426.416-2.17 2.303-.748 1.888-1.089 4.52-1.089 4.52l-1.483 1.484s.592-3.276 1.494-6.719a45.654 45.654 0 0 1-2.677 3.543c-10.91 13.044-26.908-19.667-31.632-30.18-1.5 12.842-3.471 29.29-3.726 29.33-.414.057-1.4 11.47-9.51 8.526-8.11-2.946-5.134-22.354-5.656-22.448C59.68 34.84 65.615 8.021 70.51 4.86"/><path fill="#ED9D8C" d="M67.886 35.102s-.192-5.8-5.736-6.59c-5.545-.79-6.822 15.25 4.234 17.455l1.502-10.865"/><path fill="#E67868" d="M64.339 42.566c-.813-.798-1.647-1.721-1.586-2.098.115-.727 1.675-1.633 1.675-1.633s-1.592-.25-2.588-1.559c-.999-1.308-1.9-3.68.234-4.16.139-.031.28-.044.42-.044 1.315 0 2.631 1.284 3.38 2.166-.626 2.334-1.116 4.372-1.318 5.698-.076.474-.15 1.02-.217 1.63"/><path fill="#ED9D8C" d="M64.556 40.936a37.46 37.46 0 0 0-.44 6.057c-.019 7.059 1.72 17.325 10.26 25.307 13.001 12.127 21.967 6.073 29.99-2.103 7.668-7.83 8.56-25.705 10.562-30.613.244-.6.443-1.225.577-1.847 1.022-4.223.13-8.726.13-8.726-15.105-27.795-44.44-11.44-44.44-11.44s-5.797 17.848-6.639 23.365"/><path fill="#E67868" d="M64.116 46.993v-.233c0-2.41.217-4.424.44-5.824.842-5.517 6.638-23.366 6.638-23.366s8.573-4.78 18.84-4.78c8.719 0 18.663 3.454 25.602 16.221 0 0 .36 1.813.362 4.22 0 1.384-.12 2.962-.493 4.506-4.973-1.371-23.836-7.01-30.954-14.408 0 0-5.474 9-14.592 10.983 0 0-.686 9.408-5.843 12.681"/><path fill="#E78378" d="M89.627 51.603c-.275 1.245 1.651 2.731 4.3 3.312 2.65.584 5.022.045 5.298-1.203.275-1.248-1.65-2.732-4.3-3.313-2.653-.583-5.023-.044-5.298 1.204"/><path fill="#1D0F11" d="M110.112 40.036a1.418 1.418 0 0 0 1.39-2.187c-1.054-1.593-4.2-4.047-8.55-1.939a1.416 1.416 0 0 0-.657 1.897c.343.704 1.19 1 1.9.657 3.222-1.56 4.866.848 4.934.952.233.35.598.565.983.62m-22.449-5.023c.333.047.684-.023.989-.222a1.416 1.416 0 0 0 .4-1.968C88 31.23 84.85 28.776 80.502 30.885a1.419 1.419 0 0 0-.658 1.896 1.423 1.423 0 0 0 1.903.657c3.22-1.56 4.863.85 4.934.952.233.351.595.566.983.623m15.966 9.856c-.406 1.899.113 3.62 1.159 3.843 1.046.222 2.225-1.136 2.63-3.04.406-1.9-.114-3.624-1.16-3.846-1.046-.223-2.223 1.14-2.63 3.043"/><path fill="#FFFFFE" d="M106.154 44.031c-.071.398.091.757.359.809.272.047.55-.236.621-.63.073-.398-.09-.757-.36-.807-.272-.05-.547.233-.62.628"/><path fill="#1D0F11" d="M81.322 40.172c-.407 1.9.115 3.621 1.158 3.844 1.046.222 2.226-1.138 2.63-3.04.406-1.9-.113-3.624-1.156-3.844-1.049-.222-2.226 1.138-2.632 3.04"/><path fill="#FFFFFE" d="M83.849 39.335c-.074.398.089.756.359.806.27.05.548-.233.621-.628.071-.398-.091-.756-.362-.806-.272-.05-.547.233-.618.628"/><path fill="#1D0F11" d="M69.545 16.16s1.84-7.043 6.725-9.816l-.645-1.397s18.619-6.56 28.319.298c9.697 6.857 18.115 14.704 12.55 32.026 0 0-17.875-5.994-31.054-18.126-1.77 2.538-6.452 8.236-13.546 9.385 0 0-.56 8.325-3.104 14.157l-4.593-2.967 5.348-23.56"/><path fill="#FFFFFE" d="M99.723 61.28l-17.749-4.144s1.232 8.849 7.676 10.547c6.444 1.703 10.073-6.402 10.073-6.402"/><path fill="#1D0F11" d="M69.296 80.654c1.133-1.517 2.596-2.854 3.933-3.81.07.432-.145 2.583-.239 3.488-.632.57-.973 1.238-1.505 1.95-3.413 4.573-4.003 11.124-1.754 19.47l-2.634.706c-2.478-9.188-1.739-16.527 2.2-21.804"/><path fill="#FFFFFE" d="M68.874 137.569c.296.894 1.125 1.48 1.9 1.292l5.163-1.248.105-.04c.728-.242 1.119-1.14.87-2.048-.26-.952-1.112-1.564-1.916-1.37l-2.436.583c-.744.18-1.534-.364-1.772-1.225-1.814-6.297-3.581-14.088-4.119-20.226-.354-3.898-.196-7.111.758-8.851.417-.777.973-1.14 1.749-1.183 1.892-.073 4.213 2.381 6.585 6.096 3.254 5.136 6.599 12.679 8.995 19.322.254.709.013 1.462-.545 1.75l-2.703 1.358c-.737.358-1.018 1.394-.603 2.3.406.886 1.334 1.318 2.07.947.806-.409 1.605-.793 2.397-1.196 1.028-.52 2.781-1.149 3.175-2.49.16-.524-.084-1.107-.265-1.636a49.535 49.535 0 0 0-.878-2.496c-1.348-3.744-2.832-7.443-4.512-11.048-1.298-2.779-2.693-5.552-4.32-8.127a38.832 38.832 0 0 0-2.25-3.239c-1.96-2.516-4.638-5.188-7.597-5.06-1.683.08-3.036.96-3.935 2.59-1.46 2.635-1.581 7.127-1.062 12.064 1.02 9.814 4.556 21.32 5.146 23.18"/><path fill="#1D0F11" d="M63.728 114.388l2.941-1.101c-.354-3.898-.196-7.111.758-8.851.417-.777.973-1.14 1.749-1.183 1.892-.073 4.213 2.381 6.585 6.096l2.81-1.316a38.832 38.832 0 0 0-2.249-3.239c-1.96-2.516-4.638-5.188-7.597-5.06-1.683.08-3.036.96-3.935 2.59-1.46 2.635-1.581 7.127-1.062 12.064"/><path fill="#ED9D8C" d="M202.139 431.382l2.677-.217 9.4-.743 1.175-.094s0-.924-.107-2.313a54.946 54.946 0 0 0-.142-1.57c-.1-.78-.228-1.63-.411-2.493-.357-1.868-.923-3.796-1.822-5.259-.89-1.45-1.61-6.614-2.15-13.644-.349-4.639-.635-10.078-.842-15.794a701.844 701.844 0 0 1-.453-29.604v-21.06l-12.018 8.374s-2.163 11.763-2.595 18.236c-.192 2.896.577 13.633 1.478 24.642.54 6.567 1.117 13.228 1.584 18.37.493 5.52.855 9.292.855 9.292s-2.187 2.554-5.537 5.178c-2.258 1.763-5.031 3.558-8.043 4.623-7.467 2.66-3.542 5.117 16.951 4.076"/><path fill="#E67868" d="M197.913 408.212c-.136-1.502-.28-3.131-.433-4.85l13.119-.542c.052.761.105 1.504.16 2.23-3.579.97-8.44 2.212-12.846 3.162"/><path fill="#1D0F11" d="M215.373 423.776s-12.157 3.98-22.984-1.514c0 0-8.738 4.926-14.626 5.685-5.89.756-6.082 5.497-2.092 6.255h40.65s2.09-3.508-.948-10.426"/><path fill="#6F2E2F" d="M173.057 434.982h43.645a.686.686 0 1 0 0-1.371h-43.645a.685.685 0 1 0 0 1.37"/><path fill="#ED9D8C" d="M214.217 430.422c.577.3 1.5.539 2.787.73 3.227.502 8.772.649 16.948.23l13.255-1.054s0-3.093-.66-6.376c-.362-1.868-.926-3.796-1.825-5.259-.876-1.415-1.573-6.423-2.113-13.262-.362-4.576-.65-9.97-.865-15.658a713.437 713.437 0 0 1-.47-30.122l4.457-10.48-16.474-2.206s-2.16 11.763-2.593 18.236c-.191 2.946.603 14.005 1.526 25.194.527 6.468 1.104 12.974 1.55 17.995.49 5.426.838 9.115.838 9.115s-2.183 2.554-5.534 5.178c-2.255 1.763-5.028 3.558-8.04 4.623l-.388.146c-.501.178-.947.372-1.332.563-1.909.91-2.339 1.76-1.067 2.407"/><path fill="#E67868" d="M229.74 408.39c-.142-1.609-.3-3.367-.462-5.23l13.103-.858c.073 1.078.15 2.124.228 3.13-4.085 1.017-8.958 2.178-12.87 2.958"/><path fill="#1D0F11" d="M247.186 423.776s-12.156 3.98-22.983-1.514c0 0-8.738 4.926-14.626 5.685-5.891.756-6.08 5.497-2.09 6.255h40.65s2.088-3.508-.95-10.426"/><path fill="#6F2E2F" d="M204.873 434.982h43.645a.685.685 0 1 0 0-1.371h-43.645a.685.685 0 1 0 0 1.37"/><path fill="#FFFFFE" d="M250.235 401.787l-25.681 1.682-4.821-39.765-2.255-36.173-1.927.013-.965 25.554-.186 22.727 2.682 26.726-26.263 1.085-2.986-46.823-1.18-38.13.215-2.75v-.031l.307-3.851 37.043.855v-.078l20.75-.563 4.41-.123s.212.55.412 1.481c.201.903.385 2.156.37 3.608a14 14 0 0 1-.57 3.82l-.196.628a14.65 14.65 0 0 1-1.335 2.69l-.396 25.108-.246 16.153 2.818 36.157"/><path fill="#54ACA4" d="M250.16 317.231v-.17c0-1.379-.176-2.572-.37-3.438h.005c.196.903.388 2.161.364 3.608"/><path fill="#BEBEB9" d="M235.588 321.53c-18.249 0-39.345-1.887-48.935-2.847l.215-2.75.003-.031h1.038l.016.031s2.351.032 6.312.032c3.146 0 7.31-.018 12.11-.094 4.438-.045 9.28-.136 13.43-.335 1.455-.063 2.94-.123 4.426-.186 1.622-.06 3.277-.136 4.928-.215l8.256-.334 1.18-.045 4.823-.492c-1.701 2.182-3.757 4.903-5.322 7.253-.82.007-1.646.013-2.48.013"/><path fill="#FFFFFE" d="M253.067 313.26c-1.086.117-2.174.24-3.277.363-.994.092-2.003.2-3.031.29l-3.369.351-4.824.492-1.18.045-8.255.334c-1.651.079-3.306.155-4.928.215-1.487.063-2.97.123-4.426.186-4.15.199-8.992.29-13.43.335-10.843.167-18.422.062-18.422.062l-.016-.031h-3.998s.443-17.254 3.078-52.158c2.634-34.922 5.668-35.181 5.668-35.181 4.333-2.643 10.795-7.185 16.705-7.948l6.708-.456 1.639-.123 2.404-.413c8.038 1.086 15.085 3.592 20.184 5.897 1.009.46 1.93.903 2.786 1.316 3.723 1.879 5.88 3.349 5.88 3.349 1.807 10.682 1.7 15.326 1.136 20.307.136 6.175-3.492 20.434-1.686 25.784 1.883 5.578 3.217 18.413 3.967 27.398.456 5.52.687 9.586.687 9.586"/><path fill="#ED9D8C" d="M224.053 221.256l-5.083 8.712c-2.934 5.444-7.16 9.036-7.16 9.036l-3.413-15.326-.071-.322-.176-.81.588-1.688 2.178-6.216-.07-5.434-.035-2.912 8.44-.084 3.565-.031.026.416.01.238.52 8.82.023.216c.037.29.118.73.236 1.23.317 1.51.847 3.582.422 4.155"/><path fill="#E67868" d="M208.397 223.678l-.071-.322-.176-.81.588-1.688 2.178-6.216-.07-5.434-.035-2.912 8.44-.084 3.565-.031.026.416.01.238.52 8.82.023.216c-3.851 2.779-8.984 5.86-14.998 7.807"/><path fill="#8D4940" d="M244.452 159.012c-1.03-2.167-2.779-4.78-5.64-6.497-5.649-3.39-31.681-6.164-37.373-11.864 0 0-9.139 13.49-1.494 22.36l5.43-4.47c-2.796 5.128-4.746 12.23-4.746 12.23l1.224 4.912 39.48 12.458 5.358-2.205c4.074-13.333 2.868-21.503-2.24-26.924"/><path fill="#ED9D8C" d="M200.065 179.986s.176-4.576-3.56-5.101c-3.736-.529-5.458 12.15 1.958 13.701l1.602-8.6"/><path fill="#E67868" d="M198.188 186.988s-2.024-2.104-1.908-2.68c.118-.573 1.23-1.318 1.23-1.318s-1.07-.168-1.681-1.183c-.611-1.015-1.099-2.872.38-3.288a1.22 1.22 0 0 1 .32-.042c1.35 0 2.543 2.279 2.543 2.279l-.884 6.232"/><path fill="#ED9D8C" d="M241.332 188.141s2.65-4.706 7.569-2.982c4.918 1.721-.928 15.509-11.006 12.594l3.437-9.612"/><path fill="#E67868" d="M239.24 196.315l2.826-6.798s1.825-.996 3.408-.996c.564 0 1.099.128 1.508.47 1.554 1.309-.21 2.884-1.597 3.538a3.785 3.785 0 0 1-1.61.343c-.697 0-1.198-.168-1.198-.168s.9 1.415.682 2.064c-.217.654-4.019 1.547-4.019 1.547"/><path fill="#ED9D8C" d="M201.203 168.783c-.307.932-.556 1.92-.645 2.912-.45 4.9-7.409 20.046-4.43 29.808 3.096 10.182 7.893 19.015 23.835 14.567 14.202-3.971 19.938-16.77 21.613-21.694.577-1.716 1.324-4.945 2.01-8.406 1.327-6.442 2.546-13.72 2.546-13.72s-17.176-26.069-41.594-9.58c0 0-2.187 2.704-3.335 6.113"/><path fill="#E78378" d="M216.283 192.453c-.307 1.146-2.538 1.549-4.974.895-2.44-.654-4.165-2.117-3.856-3.265.31-1.146 2.538-1.547 4.973-.893 2.44.654 4.166 2.114 3.857 3.263"/><path fill="#8D4940" d="M205.77 171.442a1.319 1.319 0 0 1-.118-2.407c1.586-.806 5.262-1.35 7.812 2.349.415.6.265 1.423-.34 1.837-.6.41-1.424.264-1.84-.34-1.891-2.74-4.326-1.544-4.431-1.492a1.32 1.32 0 0 1-1.083.053m20.291 7.056a1.318 1.318 0 0 1-.666-.665 1.319 1.319 0 0 1 .661-1.748c1.623-.73 5.32-1.104 7.694 2.708a1.323 1.323 0 1 1-2.25 1.394c-1.758-2.822-4.249-1.742-4.353-1.692-.36.16-.753.15-1.086.003"/><path fill="#1D0F11" d="M208.444 181.797c-.307-.008-.564-.23-.587-.52l-.021-.294c-.032-.5-.063-.97-.189-1.415-.09-.306-.315-.871-.815-1.167a1.458 1.458 0 0 0-.89-.189c-.264.03-.544.131-.854.31-.64.363-1.169.904-1.494 1.527-.144.275-.514.387-.81.257-.302-.137-.43-.469-.286-.744a4.905 4.905 0 0 1 1.94-1.983c.464-.264.905-.418 1.348-.47.595-.071 1.195.06 1.701.36.63.372 1.104 1.018 1.334 1.824.155.55.194 1.099.229 1.627l.02.29c.024.307-.23.568-.566.587h-.06m19.418 6.996c-.306-.032-.548-.27-.548-.56v-.296c0-.5 0-.973-.094-1.426-.066-.311-.252-.89-.729-1.221a1.455 1.455 0 0 0-.875-.246c-.268.013-.55.094-.876.248-.66.32-1.227.822-1.597 1.418-.162.267-.54.353-.825.202-.291-.155-.396-.497-.234-.76a4.943 4.943 0 0 1 2.074-1.844c.485-.232.936-.355 1.376-.374a2.691 2.691 0 0 1 1.673.474c.603.413 1.03 1.09 1.206 1.912.115.56.115 1.11.115 1.64v.289c.003.306-.267.552-.603.546l-.063-.002"/><path fill="#8D4940" d="M200.616 171.149c.317-1.175.784-2.865.988-3.389.32-.829.595-1.904.595-1.904s-4.842-1.078-5.694 9.029c0 0 .666.073 1.167.45.183.23.312.512.362.8.104.589-.032 1.19-.17 1.771-.415 1.748-1.154 3.543-.693 5.343l.105.204.425-.134c.652-.745.757-2.33 1.017-3.265.364-1.313.723-2.626 1.088-3.942.275-.987.545-1.978.67-2.996.077-.646.098-1.31.14-1.967"/><path fill="#FFFFFE" d="M202.427 192.223s7.058 7.87 19.136 5.271c0 0-4.735 9.241-13.297 6.138-8.565-3.097-5.839-11.41-5.839-11.41"/><path fill="#8D4940" d="M234.443 152.183c-6.73-2.538-12.32-2.852-16.674-2.279-2.244.087-8.234.843-13.328 6.117l-.837.09-.16 1.014c-2.338 2.774-4.409 6.606-5.722 11.91l2.96-1.138.613-1.455c.886-.73 1.764-1.68 2.608-2.7 13.567 5.672 23.351 3.875 29.014 1.51-.47 2.584-1.159 9.17 2.831 13.484.79.85 1.057 2.061 1.46 3.15 1.099 2.967.76 5.978.273 9.018-.152.955-.189 1.926-.223 2.894-.013.36-.01.766.252 1.017.168.165.417.223.655.236 2.656.146 3.94-2.868 4.554-4.885.34-1.122.569-2.276.758-3.432.141-.861-.032-1.285.67-1.63.738-.361 1.996-.296 2.82-.421.175-.416.316-.845.458-1.275.697-2.127 1.177-4.327 1.489-6.54.162-1.136.459-2.517.377-3.726.255-3.93-.317-15.48-14.848-20.959"/><path fill="#ED9D8C" d="M113.098 213.619l-6.753 15.55s-55.846-26.978-60.586-35.672c-2.836-5.173-6.47-21.2-8.95-33.319a701.558 701.558 0 0 1-2.826-14.666l21.715 5.146s.74 2.81 1.717 6.807c1.843 7.384 4.548 18.85 5.144 24.22.936 8.267 50.54 31.934 50.54 31.934"/><path fill="#E67868" d="M36.809 160.178a701.558 701.558 0 0 1-2.826-14.666l21.715 5.146s.74 2.81 1.717 6.807c-4.598.736-13.297 2.203-20.606 2.713"/><path fill="#00A999" d="M59.871 145.407c.315-.089-4.86-25.917-8.952-34.982-4.09-9.063-7.776-13.019-10.27-13.074-5.33-.115-11.985 6.14-13.33 15.101-1.335 8.89 2.703 44.752 2.703 44.752l31.44-2.865-1.59-8.932"/><path fill="#ED9D8C" d="M134.297 223.859c.217-1.706-1.786-3.823-3.935-5.576 1.08-2.26-.868-4.643-.868-4.643l-4.979-2.34s-2.39-.525-3.969-.572c-1.58-.047-4.643.429-5.744.81-1.1.383-3.494 1.24-3.494 1.24l-.124.053c-.532-.029-1.048-.105-1.486-.275-1.66-.635-8.295-2.163-8.295-2.163l-5.615 9.806s.938 2.085 5.751 8.68c.425.602.866 1.206 1.32 1.83 1.881 2.597 4.857 4.4 7.61 5.943 1.701.955 3.46 1.777 5.214 2.622 1.369.66 2.323 1.82 4.02 1.277a3.163 3.163 0 0 0 2.054-2.206c1.807.317 3.752-.929 4.221-2.697.184-.71.223-1.567.84-1.963.267-.17.594-.211.904-.282 1.549-.366 2.82-1.706 3.104-3.27.06-.322.08-.655.215-.95.175-.39.524-.67.849-.947.511-.44 1.01-.934 1.4-1.486.427-.6.731-1.27.797-2.002l-.005-.057c.097-.257.175-.526.215-.832"/><path fill="#DAD9D3" d="M131.478 209.354l-1.837 3.208-2.341 4.065c-.323-.183-.658-.382-1.028-.596-.291-.183-.595-.366-.905-.563l2.499-4.343 1.651-2.888.86.49 1.101.627"/><path fill="#A9ACA8" d="M127.3 216.627c-.229-.128-.46-.264-.706-.408l-.32-.19 2.386-4.244c.315.259.648.525.98.777l-2.34 4.065"/><path fill="#54ACA4" d="M131.478 209.354l-1.101-.628-.86-.489 1.961 1.117"/><path fill="#A9ACA8" d="M128.66 211.785c-.278-.228-.545-.453-.794-.66l1.651-2.888.86.49 1.101.627-1.1-.628-1.718 3.059"/><path fill="#848A88" d="M129.64 212.562a29.73 29.73 0 0 1-.98-.777l1.717-3.059 1.101.628-1.837 3.208"/><path fill="#DA2A6C" d="M151.342 205.992c-4.273 7.457-13.784 10.039-21.243 5.777-7.471-4.265-10.059-13.754-5.788-21.213 2.973-5.18 8.483-7.993 14.073-7.81.632.016 1.274.092 1.9.2.674.09 1.332.245 1.99.444.784.228 1.563.518 2.315.884.333.152.656.338.98.521.334.199.659.395.978.625 1.225.796 2.3 1.758 3.217 2.844l.013.016c4.061 4.858 4.903 11.92 1.565 17.712"/><path fill="#FFFFFE" d="M150.593 199.313c-.17 2.276-.661 4.555-1.733 6.585-1.057 2.02-2.756 3.778-4.871 4.662-.962.382-1.974.612-3.015.72-2.91.35-5.928-.06-8.575-1.3-2.65-1.238-4.932-3.334-6.25-5.932-1.822-3.605-1.73-8.053-.016-11.702 1.717-3.655 4.963-6.497 8.717-8.043a19.468 19.468 0 0 1 5.434-1.358c.674.092 1.332.246 1.99.445.784.228 1.563.518 2.315.884l-.6.168c-2.297.246-4.593.445-6.814 1.025-4.286 1.086-8.205 3.943-9.83 8.145-1.257 3.255-1.105 7.059.458 10.18.813 1.635 2.008 3.116 3.6 4.034.72.41 1.499.717 2.264.963 4.23 1.436 9.021 1.313 12.191-2.203 2.053-2.292 3.125-5.607 2.973-8.65-.092-1.71-.446-3.437-1.258-4.965-.81-1.512-2.127-2.797-3.765-3.346-1.088-.37-2.27-.4-3.4-.309-3.03.217-6.282 1.363-7.721 4.204-.671 1.3-.81 2.797-.779 4.25.045 1.802.475 3.803 1.99 4.782 1.133.764 2.666.732 3.875.091 1.211-.61 2.084-1.774 2.556-3.055.49-1.316.475-2.996-.595-3.912-.889-.732-2.375-.66-3.17.18-.8.843-.768 2.327.013 3.166.247.244.585.521.49.869-.794.139-1.622-.38-2.02-1.096-.4-.704-.444-1.575-.352-2.386.123-1.086.582-2.263 1.591-2.797.706-.366 1.594-.32 2.376-.199.61.092 1.208.262 1.746.552 3.077 1.756 2.619 7.258.06 9.212l-.598.4c-1.85 1.086-4.577 1.743-6.494.563-.857-.502-1.5-1.31-1.974-2.17-1.885-3.453-1.195-8.02 1.392-10.972 2.606-2.948 6.848-4.233 10.705-3.53.873.153 1.746.414 2.543.828 1.884.96 3.216 2.778 3.919 4.767.69 2.001.797 4.141.632 6.25"/><path fill="#E67868" d="M128.838 217.658c-4.721 0-6.19-4.115-6.19-4.115.916.79 2.266 1.669 3.498 2.41l.126.078c.11.065.217.128.322.188 1.41.832 2.567 1.434 2.567 1.434-.11.003-.215.005-.323.005"/><path fill="#C7A198" d="M126.272 216.03l-.126-.078c.042.026.087.053.128.076l-.002.003"/><path fill="#9B817A" d="M126.594 216.22l-.322-.19.002-.002c.108.066.215.128.32.191"/><path fill="#DAD9D3" d="M114.603 238.756l-.705 1.24-2.939 5.117-.794-.457-1.167-.657 3.094-5.382.492-.855c.38.198.763.384 1.146.567.291.152.582.288.873.427"/><path fill="#A9ACA8" d="M110.959 245.113l-.794-.457 2.959-5.251.774.591-2.939 5.117"/><path fill="#006F5B" d="M114.603 238.756"/><path fill="#C37E6E" d="M113.408 238.172c-.276-.133-.551-.266-.824-.41.273.138.548.274.824.41"/><path fill="#A9ACA8" d="M113.124 239.405l-1.032-.788.492-.855c.273.144.548.277.824.41.107.055.212.108.32.16l-.604 1.073"/><path fill="#848A88" d="M113.898 239.996l-.774-.591.603-1.073.163.078c.236.12.474.233.713.346l-.705 1.24"/><path fill="#BEBEB9" d="M247.663 349.477c-4.09-.932-8.176-4.063-8.176-7.658 0-4.581 2.54-17.069 2.54-17.069s-3.634 2.475-5.414 2.475c-.576 0-.957-.259-.957-.947 0-.845 1.007-2.653 2.412-4.761 4.077-.042 7.975-.186 11.522-.466l-.196.628a14.65 14.65 0 0 1-1.335 2.69l-.396 25.108"/><path fill="#949996" d="M238.068 321.517c1.565-2.35 3.62-5.07 5.322-7.253l3.369-.35c1.028-.092 2.037-.2 3.03-.29.195.865.37 2.058.37 3.437v.17a14 14 0 0 1-.569 3.82c-3.547.28-7.445.424-11.522.466"/><path fill="#BEBEB9" d="M243.39 314.264c.582-.732 1.12-1.42 1.578-1.999.994-1.24 1.652-2.035 1.652-2.035l-3.062-40.495h-3.83s-3.306-14.259-4.59-25.464c-1.275-11.216 6.003-17.1 6.003-17.1s.75-.123 1.942-.335c3.723 1.879 5.88 3.349 5.88 3.349 1.115 6.593 1.503 10.886 1.5 14.376 0 2.167-.15 4.024-.364 5.931.003.12.003.246.003.372-.006 5.065-2.2 14.86-2.195 21.286.003 1.64.147 3.058.506 4.126 1.883 5.578 3.217 18.413 3.967 27.398.456 5.52.687 9.586.687 9.586-1.086.117-2.174.24-3.277.363-.994.092-2.003.2-3.031.29l-3.369.351"/><path fill="#ED9D8C" d="M244.586 342.742s-1.833.165-2.486-1.266c-.652-1.43 2.014-10.9 2.014-10.9a1915.1 1915.1 0 0 1 1.914-6.613s-1.864 1.457-3.894 2.705c-1.074.66-2.196.424-3.014.052a1.038 1.038 0 0 1-.312-1.666c1.082-1.112 2.902-3.053 4.097-4.652 1.796-2.396 4.994-5.56 4.994-5.56l9.166-7.477s1.439 3.54 3.874 9.636c1.993 4.99-.744 16.796-1.8 20.912-.13.502-1.322 3.296-1.663 4.126-1.161 2.833-3.49 2.022-3.49 2.022s-.794 1.3-2.505 1.395c-1.712.096-2.457-1.36-2.457-1.36l-1.101.69c-1.943.847-3.337-2.044-3.337-2.044"/><path fill="#ED9D8C" d="M245.094 260.95l3.702 21.396 1.914 40.625h10.72l1.635-41.444a5.488 5.488 0 0 0-.076-1.154l-3.728-21.587-14.167 2.164"/><path fill="#FFFFFE" d="M242.441 265.562a53.049 53.049 0 0 1-.569-2.634l-.684-2.706c-.262.016-5.007-16.043-4.323-22.311.682-6.274 2.315-10.358 4.268-10.732 1.956-.37 8.969 2.119 12.382 7.171 3.392 5.015 8.638 24.865 8.638 24.865s.262 1.115.595 2.873c-4.7.816-13.755 2.36-20.307 3.474"/></g></svg>