<svg xmlns="http://www.w3.org/2000/svg" width="192" height="48"><defs><linearGradient id="a" x1="49.98%" x2="49.98%" y1=".006%" y2="100.009%"><stop offset="0%" stop-color="#55ADC9"/><stop offset="100%" stop-color="#83C058"/></linearGradient><linearGradient id="b" x1=".07%" x2="100.021%" y1="50.005%" y2="50.005%"><stop offset="0%" stop-color="#55ADC9"/><stop offset="100%" stop-color="#83C058"/></linearGradient></defs><g fill="none"><path fill="#FFF" d="M118.527 32.88c-.527 0-.917-.205-1.169-.615-.252-.41-.378-.914-.378-1.512v-.193c0-.61.111-1.09.334-1.442.27-.422.674-.633 1.213-.633h1.23c.715 0 1.196-.073 1.442-.22.246-.146.369-.336.369-.57 0-2.637.234-4.518.703-5.643.504-1.242 1.266-2.183 2.285-2.821 1.02-.64 2.25-.958 3.692-.958 2.156 0 3.794.653 4.913 1.96 1.119 1.306 1.673 3.19 1.66 5.65 0 2.345-.55 4.138-1.651 5.38-1.102 1.242-2.713 1.863-4.834 1.863-1.934-.012-3.499-.492-4.694-1.441-.844.797-2.127 1.195-3.85 1.195h-1.265zm9.773-10.248c-.41 0-.758.053-1.046.158-.287.106-.53.276-.729.51-.2.234-.352.545-.457.932-.106.386-.158.855-.158 1.406-.024 1.148.158 1.969.545 2.46.386.493 1.013.739 1.88.739.75.012 1.307-.226 1.67-.712.364-.486.545-1.315.545-2.487 0-1.09-.181-1.863-.545-2.32-.363-.458-.931-.686-1.705-.686zm-9.597 10.248h-1.336c-2.074 0-3.65-.621-4.729-1.863-1.078-1.242-1.617-3.024-1.617-5.344V9.448h4.201v16.243c0 .691.082 1.242.246 1.652.164.41.402.703.712.879.31.176.724.263 1.24.263h1.283c.246 0 .445.06.597.176.141.13.24.31.3.545.058.235.093.434.105.598.011.152.017.363.017.633v.316c0 .574-.04 1.008-.123 1.3-.152.552-.451.827-.896.827zm-16.664-5.256c1.77 0 3.14.378 4.113 1.134.973.756 1.459 1.872 1.459 3.349v.51c0 2.695-.905 4.728-2.716 6.099-1.81 1.371-4.438 2.057-7.884 2.057h-1.476c-3.586 0-6.31-.873-8.174-2.62-1.863-1.746-2.795-4.318-2.795-7.716v-7.84h4.307v7.822c0 2.027.539 3.524 1.617 4.491 1.078.967 2.771 1.45 5.08 1.45h1.6c2.167 0 3.74-.29 4.72-.87.978-.58 1.467-1.432 1.467-2.557v-.211c0-.281-.088-.487-.264-.615-.175-.13-.533-.194-1.072-.194h-2.83c-1.148 0-2.04-.304-2.672-.914-.633-.61-.95-1.476-.95-2.601v-1.143c0-.96.071-1.843.212-2.646.14-.802.36-1.538.659-2.206a6.908 6.908 0 0 1 1.134-1.775c1.347-1.512 3.351-2.268 6.012-2.268h4.025v.616l.017 3.252v.615h-4.78c-.973 0-1.706.334-2.198 1.002-.492.668-.75 1.77-.773 3.305l-.018.474h2.18zM60.643 32.88c-.527 0-.917-.205-1.169-.615-.252-.41-.378-.914-.378-1.512v-.193c0-.61.112-1.09.334-1.442.27-.422.674-.633 1.213-.633h1.23c.716 0 1.196-.073 1.442-.22.246-.146.37-.336.37-.57 0-2.637.234-4.518.702-5.643.504-1.242 1.266-2.183 2.286-2.821 1.02-.64 2.25-.958 3.691-.958 2.156 0 3.794.653 4.913 1.96 1.12 1.306 1.673 3.19 1.661 5.65 0 2.345-.55 4.138-1.652 5.38-1.102 1.242-2.713 1.863-4.834 1.863-1.934-.012-3.498-.492-4.693-1.441-.844.797-2.127 1.195-3.85 1.195h-1.266zm9.774-10.248c-.41 0-.76.053-1.046.158-.287.106-.53.276-.73.51-.199.234-.351.545-.457.932-.105.386-.158.855-.158 1.406-.023 1.148.158 1.969.545 2.46.387.493 1.014.739 1.88.739.75.012 1.308-.226 1.67-.712.364-.486.546-1.315.546-2.487 0-1.09-.182-1.863-.545-2.32-.363-.458-.932-.686-1.705-.686zM60.8 32.88h-.28c-2.11 0-3.968-.855-5.573-2.566-1.125 1.71-3.428 2.566-6.908 2.566h-7.278v-4.395h7.357c.1 0 .196-.005.29-.017.644-.024 1.195-.08 1.652-.167.457-.088.803-.205 1.037-.352.235-.146.402-.301.501-.465.1-.165.15-.352.15-.563-.012-.328-.147-.727-.405-1.195a9.304 9.304 0 0 0-.527-.809c-.21-.293-.457-.603-.738-.932l-4.799-5.554-.352-.405.37-.404 2.162-2.373.474-.527.44.545 9.422 11.355c1.03 1.242 1.98 1.863 2.847 1.863h.158c.247 0 .446.062.598.185.152.123.255.302.308.536.052.235.085.43.096.589.012.158.018.372.018.642v.316c0 .563-.041.996-.123 1.3-.035.13-.08.244-.132.344-.053.1-.146.205-.281.316a.735.735 0 0 1-.484.167zm-27.826 5.15l1.6-1.617c.527-.515 1.02-.545 1.476-.088l1.706 1.705c.492.493.48 1.002-.036 1.53l-1.617 1.6c-.492.491-.984.491-1.476 0l-1.723-1.706c-.445-.445-.422-.92.07-1.424zm-6.275 0l1.617-1.617c.516-.527 1.002-.556 1.46-.088l1.704 1.705c.492.493.48 1.002-.035 1.53l-1.617 1.6c-.492.491-.985.491-1.477 0l-1.705-1.706c-.457-.457-.44-.931.053-1.424zm.176-5.15c-.528 0-.917-.205-1.17-.615-.251-.41-.377-.914-.377-1.512v-.193c0-.586.126-1.078.378-1.477.252-.398.641-.598 1.169-.598h4.095c1.043 0 1.793-.216 2.25-.65.457-.434.686-1.142.686-2.127v-5.783h4.289v5.8c0 2.321-.615 4.093-1.846 5.318-1.23 1.225-3.017 1.837-5.361 1.837h-4.113zm-3.867-6.908c1.44 1.652 2.648 2.49 3.62 2.513h.44a.93.93 0 0 1 .483.159c.135.093.238.199.308.316.07.117.12.281.15.492.029.211.046.378.052.501.006.123.009.29.009.501v.87c0 .1-.009.24-.026.422-.018.182-.05.328-.097.44a3.273 3.273 0 0 1-.176.351.602.602 0 0 1-.29.264c-.123.053-.266.079-.43.079h-.264c-2.309 0-4.324-1.008-6.047-3.023-1.137 2.015-3.545 3.023-7.225 3.023h-5.73c-.527 0-.917-.205-1.17-.615-.251-.41-.377-.914-.377-1.512v-.193c0-.61.111-1.09.334-1.442.281-.422.686-.633 1.213-.633h5.765c1.372 0 2.341-.152 2.91-.457.568-.304.858-.732.87-1.283 0-.082-.035-.202-.106-.36a6.654 6.654 0 0 0-.307-.589 8.002 8.002 0 0 0-.572-.835 28.976 28.976 0 0 0-.826-1.028l-5.642-6.416c-.657-.75-.979-1.688-.967-2.813 0-.41.056-.79.167-1.142a3.157 3.157 0 0 1 1.257-1.688c.304-.21.65-.38 1.037-.51l10.986-3.62.809-.264v4.464l-.44.141-9.14 2.988 9.422 10.899zM7.962 32.88H6.626c-2.075 0-3.65-.621-4.729-1.863C.82 29.775.28 27.993.28 25.673V9.448h4.201v16.243c0 .691.082 1.242.246 1.652.164.41.402.703.712.879.31.176.724.263 1.24.263h1.283c.246 0 .445.06.597.176.14.13.24.31.3.545.058.235.093.434.105.598.011.152.017.363.017.633v.316c0 .574-.04 1.008-.123 1.3-.152.552-.451.827-.896.827z"/><path fill="url(#a)" d="M22.889.061c2.825-.122 5.67.233 8.375 1.1 4.974 1.57 9.419 4.84 12.425 9.183 2.684 3.844 4.21 8.521 4.264 13.246a23.668 23.668 0 0 1-1.84 9.641 24.065 24.065 0 0 1-10.217 11.56 23.596 23.596 0 0 1-8.274 2.888 24.184 24.184 0 0 1-9.942-.573 23.935 23.935 0 0 1-9.914-5.517c-3.836-3.53-6.5-8.378-7.371-13.574a24.096 24.096 0 0 1 .16-8.897 23.691 23.691 0 0 1 3.08-7.715c2.765-4.48 7.01-7.975 11.87-9.805C17.855.69 20.365.184 22.889.06zm-.67 1.031c-4.063.3-8.04 1.714-11.4 4.07A22.976 22.976 0 0 0 1.62 18.66c-.582 2.41-.736 4.916-.535 7.387.441 5.244 2.778 10.297 6.44 13.998 2.972 3.079 6.815 5.25 10.925 6.268 3.642.894 7.498.887 11.14-.014a22.954 22.954 0 0 0 7.98-3.742 23.388 23.388 0 0 0 4.947-4.923 23.048 23.048 0 0 0 3.555-7.162c1.024-3.49 1.185-7.23.515-10.802a22.72 22.72 0 0 0-2.195-6.295 23.116 23.116 0 0 0-9.172-9.43 22.87 22.87 0 0 0-8.281-2.73 24.22 24.22 0 0 0-4.72-.124z" transform="translate(144)"/><path fill="#55ADC9" d="M161.48 4.855c.354-.198.77-.164 1.164-.164h9.982c.65-.007 1.272.43 1.5 1.044.153.376.113.792.12 1.188v6.692c0 .737.04 1.488-.194 2.198-.308 1.072-1.065 1.98-2.015 2.527-4.305 2.546-7.94 6.268-10.417 10.678a3.727 3.727 0 0 1-3.18 1.912h-8.576a1.663 1.663 0 0 1-1.486-.976c-.18-.369-.14-.785-.14-1.181v-9.491c0-.396-.034-.813.14-1.181a1.658 1.658 0 0 1 1.486-.984h9.982c.241 0 .482.021.716-.027.007-3.57 0-7.142 0-10.72-.02-.62.348-1.25.917-1.515z"/><path fill="url(#b)" d="M37.463 17.302c2.088-.157 4.184-.089 6.28-.103-1.012 1.878-2.531 3.421-4.218 4.678a22.952 22.952 0 0 1-9.7 4.035c-.362.082-.744.04-1.085.184.69.041 1.372-.075 2.048-.15a21.871 21.871 0 0 0 7.29-2.403c2.43-1.325 4.647-3.19 6.08-5.613.04-.055.08-.11.12-.157-.04 2.328-.656 4.67-1.855 6.657a11.898 11.898 0 0 1-3.092 3.4c-1.7 1.29-3.696 2.117-5.751 2.602-2.303.56-4.686.553-7.043.717-1.72.116-3.468.239-5.128.737-.77.246-1.54.587-2.135 1.168-.563.532-.938 1.263-1.092 2.028-.1.484-.107.99-.12 1.481-.013 1.461.013 2.916 0 4.377 0 .157-.007.341.12.457.1.11.255.096.389.103h9.379c.207.02.448-.13.442-.362v-5.735c-.014-.567.013-1.161.24-1.687.282-.642.891-1.147 1.58-1.243.047 1.066.007 2.13.02 3.196v5.394a2.218 2.218 0 0 1-.843 1.761c-.395.308-.89.478-1.386.478h-9.647c-1.097 0-2.122-.955-2.135-2.089-.007-1.393 0-2.779-.007-4.172.007-.683-.027-1.372.06-2.055.215-1.359.764-2.636 1.4-3.837 1.131-2.09 2.55-4.001 4.103-5.783 1.239-1.38 2.544-2.704 4.004-3.838a18.844 18.844 0 0 1 6.708-3.393c1.633-.45 3.3-.703 4.974-.833z" transform="translate(144)"/></g></svg>